<svg width="65" height="41" viewBox="0 0 65 41" fill="none" xmlns="http://www.w3.org/2000/svg">
<path d="M13.3819 40.2923C15.4007 40.2923 17.2611 39.1444 18.1319 37.3632L23.7527 26.1215C24.3069 25.0132 24.584 23.8256 24.584 22.5986V4.66732C24.584 2.49023 22.8027 0.708984 20.6256 0.708984H4.79232C2.61523 0.708984 0.833984 2.49023 0.833984 4.66732V20.5007C0.833984 22.6777 2.61523 24.459 4.79232 24.459H12.709L8.6319 32.6132C6.85065 36.1361 9.42357 40.2923 13.3819 40.2923ZM52.9652 40.2923C54.984 40.2923 56.8444 39.1444 57.7152 37.3632L63.3361 26.1215C63.8902 25.0132 64.1673 23.8256 64.1673 22.5986V4.66732C64.1673 2.49023 62.3861 0.708984 60.209 0.708984H44.3756C42.1986 0.708984 40.4173 2.49023 40.4173 4.66732V20.5007C40.4173 22.6777 42.1986 24.459 44.3756 24.459H52.2923L48.2152 32.6132C46.434 36.1361 49.0069 40.2923 52.9652 40.2923Z" fill="white" fill-opacity="0.1"/>
</svg>
