<svg width="32" height="32" viewBox="0 0 32 32" fill="none" xmlns="http://www.w3.org/2000/svg">
<path opacity="0.4" d="M10.9366 17.587L6.00434 18.0232C4.89744 18.0232 4 17.117 4 15.9993C4 14.8816 4.89744 13.9755 6.00434 13.9755L10.9366 14.4117C11.805 14.4117 12.509 15.1225 12.509 15.9993C12.509 16.8776 11.805 17.587 10.9366 17.587Z" fill="#C22649"/>
<path d="M27.5002 17.5069C27.4231 17.5847 27.1351 17.9137 26.8646 18.1869C25.2864 19.8979 21.1657 22.6958 19.0101 23.552C18.6829 23.6886 17.8552 23.9794 17.4116 24C16.9883 24 16.584 23.9016 16.1985 23.7077C15.7171 23.436 15.3331 23.0072 15.1207 22.5019C14.9854 22.1524 14.7731 21.1023 14.7731 21.0832C14.5622 19.9361 14.4473 18.0709 14.4473 16.0088C14.4473 14.0466 14.5622 12.2578 14.7353 11.0916C14.7542 11.071 14.9665 9.76831 15.1978 9.32183C15.6211 8.50523 16.4487 8 17.3345 8H17.4116C17.989 8.01909 19.2021 8.52579 19.2021 8.54342C21.2428 9.39967 25.266 12.0624 26.8835 13.8322C26.8835 13.8322 27.3402 14.2875 27.538 14.571C27.8464 14.9793 28.0006 15.4845 28.0006 15.9897C28.0006 16.5537 27.8275 17.078 27.5002 17.5069Z" fill="#C22649"/>
</svg>
