<svg width="28" height="28" viewBox="0 0 28 28" fill="none" xmlns="http://www.w3.org/2000/svg">
<mask id="mask0" style="mask-type:alpha" maskUnits="userSpaceOnUse" x="0" y="0" width="29" height="28">
<path fill-rule="evenodd" clip-rule="evenodd" d="M0.667969 0.666016H28.0007V27.9987H0.667969V0.666016Z" fill="white"/>
</mask>
<g mask="url(#mask0)">
<path fill-rule="evenodd" clip-rule="evenodd" d="M3.81341 4.74755C3.81608 4.74755 3.74941 4.81689 3.66541 4.89955C3.34275 5.21289 2.67475 5.86489 2.66808 7.22889C2.65741 9.13689 3.91208 12.6796 9.95341 18.7196C15.9667 24.7302 19.5041 25.9996 21.4161 25.9996H21.4441C22.8081 25.9929 23.4587 25.3236 23.7734 25.0022C23.8694 24.9036 23.9467 24.8316 24.0014 24.7862C25.3294 23.4502 26.0094 22.4556 26.0027 21.8182C25.9934 21.1676 25.1841 20.3982 24.0654 19.3342C23.7094 18.9956 23.3227 18.6276 22.9147 18.2196C21.8574 17.1649 21.3334 17.3449 20.1814 17.7502C18.5881 18.3089 16.4014 19.0689 13.0041 15.6702C9.60141 12.2702 10.3627 10.0862 10.9201 8.49289C11.3227 7.34089 11.5067 6.81555 10.4481 5.75689C10.0334 5.34355 9.66141 4.95155 9.31875 4.59155C8.26141 3.47955 7.49875 2.67555 6.85208 2.66622H6.84141C6.20275 2.66622 5.21075 3.34889 3.80675 4.75289C3.81075 4.74889 3.81208 4.74755 3.81341 4.74755V4.74755ZM21.4174 27.9996C18.0947 27.9996 13.7627 25.3542 8.54008 20.1342C3.29741 14.8929 0.648081 10.5476 0.668081 7.21822C0.680081 5.01822 1.83341 3.89155 2.26675 3.46889C2.28941 3.44089 2.36675 3.36489 2.39341 3.33822C4.30541 1.42489 5.59475 0.651553 6.87741 0.66622C8.36675 0.68622 9.42675 1.80089 10.7681 3.21289C11.1001 3.56222 11.4601 3.94222 11.8614 4.34222C13.8081 6.28889 13.2534 7.87689 12.8081 9.15155C12.3227 10.5422 11.9027 11.7422 14.4174 14.2569C16.9347 16.7716 18.1347 16.3516 19.5201 15.8622C20.7961 15.4169 22.3801 14.8596 24.3294 16.8062C24.7241 17.2009 25.0987 17.5569 25.4441 17.8862C26.8627 19.2342 27.9827 20.2996 28.0014 21.7929C28.0174 23.0662 27.2441 24.3636 25.3347 26.2742L24.4894 25.7009L25.2041 26.3996C24.7814 26.8329 23.6561 27.9876 21.4547 27.9996H21.4174Z" fill="#A5250A"/>
</g>
</svg>
