<svg width="31" height="31" viewBox="0 0 31 31" fill="none" xmlns="http://www.w3.org/2000/svg">
<path d="M22 13.5215H19V24.1805C20.1148 23.6916 21.1314 23.0039 22 22.151V13.5215ZM21 19.5215H20V18.5215H21V19.5215ZM21 17.5215H20V16.5215H21V17.5215ZM21 15.5215H20V14.5215H21V15.5215Z" fill="white"/>
<path d="M12 24.5605C12.3286 24.6643 12.6624 24.7509 13 24.82V20.5215C13 20.3889 13.0527 20.2617 13.1464 20.1679C13.2402 20.0742 13.3674 20.0215 13.5 20.0215H16.5C16.6326 20.0215 16.7598 20.0742 16.8536 20.1679C16.9473 20.2617 17 20.3889 17 20.5215V24.8215C17.3376 24.7524 17.6714 24.6658 18 24.562V11.0215H12V24.5605ZM15.5 12.0215H16.5V13.0215H15.5V12.0215ZM15.5 14.0215H16.5V15.0215H15.5V14.0215ZM15.5 16.0215H16.5V17.0215H15.5V16.0215ZM15.5 18.0215H16.5V19.0215H15.5V18.0215ZM13.5 12.0215H14.5V13.0215H13.5V12.0215ZM13.5 14.0215H14.5V15.0215H13.5V14.0215ZM13.5 16.0215H14.5V17.0215H13.5V16.0215ZM13.5 18.0215H14.5V19.0215H13.5V18.0215Z" fill="white"/>
<path d="M8 22.151C8.8686 23.0039 9.88516 23.6916 11 24.1805V15.5215H8V22.151ZM9 16.5215H10V17.5215H9V16.5215ZM9 18.5215H10V19.5215H9V18.5215ZM9 20.5215H10V21.5215H9V20.5215Z" fill="white"/>
<path d="M19 12.5196H22.5C22.6326 12.5196 22.7598 12.5723 22.8536 12.6661C22.9473 12.7599 23 12.887 23 13.0196V20.9941C24.1143 19.5084 24.7928 17.7418 24.9596 15.8922C25.1264 14.0426 24.7748 12.1831 23.9443 10.522C23.1138 8.86095 21.8371 7.46398 20.2573 6.48763C18.6776 5.51129 16.8571 4.99414 15 4.99414C13.1429 4.99414 11.3225 5.51129 9.74269 6.48763C8.16293 7.46398 6.88626 8.86095 6.05573 10.522C5.2252 12.1831 4.87363 14.0426 5.04041 15.8922C5.20719 17.7418 5.88573 19.5084 7.00001 20.9941V15.0196C7.00001 14.887 7.05268 14.7599 7.14645 14.6661C7.24022 14.5723 7.3674 14.5196 7.50001 14.5196H11V10.5196C11 10.387 11.0527 10.2599 11.1465 10.1661C11.2402 10.0723 11.3674 10.0196 11.5 10.0196H18.5C18.6326 10.0196 18.7598 10.0723 18.8536 10.1661C18.9473 10.2599 19 10.387 19 10.5196V12.5196Z" fill="white"/>
<path d="M14 24.9715C14.329 25.004 14.6625 25.0215 15 25.0215C15.3375 25.0215 15.671 25.0035 16 24.9715V21.0215H14V24.9715Z" fill="white"/>
<path d="M1.0959 2.95803L1.4079 7.64353C1.20127 7.73083 1.01684 7.86336 0.86821 8.03137C0.719577 8.19938 0.610517 8.39859 0.549062 8.61432C0.487606 8.83006 0.475319 9.05683 0.513104 9.27794C0.55089 9.49906 0.637787 9.70888 0.767397 9.89196C0.897007 10.075 1.06603 10.2267 1.26202 10.3358C1.45801 10.445 1.67598 10.5087 1.89988 10.5225C2.12378 10.5362 2.3479 10.4995 2.55576 10.4152C2.76361 10.3308 2.94989 10.2009 3.1009 10.035L4.8509 10.785C4.9804 10.476 5.1244 10.175 5.2804 9.88103L3.4914 9.11553C3.4914 9.08353 3.5009 9.05303 3.5009 9.02053C3.50025 8.69426 3.39287 8.37716 3.19517 8.11762C2.99746 7.85807 2.72027 7.67033 2.4059 7.58303L2.0939 2.89753C2.42183 2.75926 2.69029 2.50946 2.85179 2.19232C3.01329 1.87519 3.05743 1.51115 2.97639 1.16461C2.89534 0.818069 2.69435 0.511358 2.40896 0.29873C2.12357 0.0861022 1.77218 -0.0187383 1.41694 0.00275374C1.06169 0.0242458 0.725502 0.170685 0.467827 0.416168C0.210153 0.661651 0.0476033 0.990358 0.00893191 1.34414C-0.0297395 1.69792 0.0579598 2.05398 0.256516 2.34934C0.455073 2.64469 0.75169 2.8603 1.0939 2.95803H1.0959Z" fill="white"/>
<path d="M22.5005 27.0205C22.3496 27.0227 22.1998 27.0478 22.0565 27.095L20.2505 24.6855C19.9535 24.8475 19.647 24.9955 19.334 25.13L21.254 27.6895C21.0687 27.9679 20.9818 28.3002 21.007 28.6336C21.0322 28.9671 21.1681 29.2825 21.3931 29.5299C21.6181 29.7772 21.9193 29.9423 22.2489 29.9989C22.5785 30.0555 22.9175 30.0004 23.2121 29.8422C23.5067 29.6841 23.7401 29.4321 23.8751 29.1261C24.0101 28.8202 24.039 28.478 23.9572 28.1537C23.8754 27.8295 23.6877 27.5419 23.4237 27.3366C23.1598 27.1313 22.8349 27.02 22.5005 27.0205Z" fill="white"/>
<path d="M30.0009 18.5199C30.0021 18.2446 29.9275 17.9744 29.7852 17.7387C29.643 17.503 29.4387 17.311 29.1946 17.1837C28.9506 17.0564 28.6762 16.9987 28.4016 17.017C28.1269 17.0352 27.8626 17.1287 27.6375 17.2871C27.4124 17.4456 27.2353 17.6629 27.1255 17.9153C27.0157 18.1678 26.9774 18.4455 27.015 18.7182C27.0525 18.9909 27.1644 19.248 27.3383 19.4614C27.5122 19.6747 27.7414 19.8361 28.001 19.9279V23.1119C27.9251 23.139 27.8517 23.1725 27.7815 23.2119L24.601 20.3829C24.4343 20.6789 24.2555 20.9662 24.0645 21.2449L27.1145 23.9554C27.0003 24.2327 26.9719 24.538 27.0329 24.8316C27.094 25.1253 27.2417 25.3939 27.4569 25.6028C27.6722 25.8116 27.9451 25.9512 28.2404 26.0034C28.5358 26.0556 28.84 26.0181 29.1138 25.8957C29.3876 25.7732 29.6184 25.5715 29.7765 25.3166C29.9345 25.0617 30.0125 24.7652 30.0003 24.4655C29.9882 24.1659 29.8864 23.8767 29.7083 23.6354C29.5302 23.3941 29.2838 23.2117 29.0009 23.1119V19.9279C29.2928 19.8255 29.5457 19.6351 29.7248 19.3829C29.9039 19.1307 30.0004 18.8292 30.0009 18.5199Z" fill="white"/>
<path d="M10 27.1129V24.8129C9.65674 24.637 9.32295 24.4433 9 24.2324V27.1119C8.66639 27.2299 8.38522 27.462 8.20619 27.7672C8.02715 28.0724 7.96177 28.431 8.02161 28.7798C8.08144 29.1285 8.26264 29.4449 8.53317 29.673C8.80371 29.901 9.14616 30.0261 9.5 30.0261C9.85384 30.0261 10.1963 29.901 10.4668 29.673C10.7374 29.4449 10.9186 29.1285 10.9784 28.7798C11.0382 28.431 10.9729 28.0724 10.7938 27.7672C10.6148 27.462 10.3336 27.2299 10 27.1119V27.1129Z" fill="white"/>
<path d="M20.8883 5.73546L21.9823 4.42246C22.1967 4.50433 22.4271 4.53525 22.6554 4.5128C22.8838 4.49035 23.1038 4.41513 23.2981 4.29309C23.4924 4.17105 23.6556 4.00551 23.775 3.80956C23.8943 3.6136 23.9665 3.39259 23.9858 3.16396L27.2503 2.34796C27.3614 2.51506 27.5047 2.65835 27.6718 2.76946L26.8558 6.03446C26.6159 6.05532 26.3847 6.13423 26.1822 6.26438C25.9796 6.39454 25.8117 6.57204 25.6931 6.78155C25.5744 6.99106 25.5085 7.22631 25.5011 7.46697C25.4936 7.70764 25.5448 7.94651 25.6503 8.16296L24.4373 9.37596C24.6163 9.67329 24.7813 9.97979 24.9323 10.2955L26.3573 8.86996C26.5577 8.9676 26.7774 9.01886 27.0003 9.01996C27.3224 9.01971 27.6359 8.91576 27.8944 8.7235C28.1529 8.53124 28.3426 8.26088 28.4355 7.95242C28.5283 7.64396 28.5194 7.3138 28.4101 7.01079C28.3007 6.70778 28.0968 6.44803 27.8283 6.26996L28.6443 3.00496C28.927 2.97837 29.1963 2.87188 29.4207 2.69793C29.6451 2.52398 29.8154 2.28976 29.9117 2.02262C30.0079 1.75549 30.0262 1.46648 29.9643 1.18936C29.9023 0.912251 29.7629 0.658478 29.5621 0.4577C29.3613 0.256921 29.1075 0.117428 28.8304 0.055521C28.5533 -0.00638631 28.2643 0.0118487 27.9972 0.108095C27.73 0.204342 27.4958 0.374625 27.3218 0.599048C27.1479 0.82347 27.0414 1.09276 27.0148 1.37546L23.7503 2.19196C23.5355 1.86452 23.2009 1.63432 22.8183 1.55077C22.4357 1.46721 22.0356 1.53696 21.7039 1.74504C21.3721 1.95313 21.1351 2.28296 21.0438 2.66378C20.9525 3.04459 21.014 3.44603 21.2153 3.78196L20.0078 5.23196C20.3095 5.38596 20.603 5.55379 20.8883 5.73546Z" fill="white"/>
<path d="M5.4115 20.4023L2.143 23.6708C1.94265 23.5732 1.72288 23.5219 1.5 23.5208C1.20333 23.5208 0.913319 23.6088 0.666645 23.7736C0.419972 23.9385 0.227713 24.1727 0.114181 24.4468C0.000649929 24.7209 -0.0290551 25.0225 0.0288228 25.3135C0.0867006 25.6045 0.229562 25.8717 0.439341 26.0815C0.649119 26.2913 0.916394 26.4341 1.20737 26.492C1.49834 26.5499 1.79994 26.5202 2.07403 26.4067C2.34811 26.2931 2.58238 26.1009 2.74721 25.8542C2.91203 25.6075 3 25.3175 3 25.0208C2.9989 24.798 2.94764 24.5782 2.85 24.3778L5.956 21.2708C5.76133 20.9912 5.57983 20.7017 5.4115 20.4023Z" fill="white"/>
</svg>
