<svg width="892" height="513" viewBox="0 0 892 513" fill="none" xmlns="http://www.w3.org/2000/svg">
<path d="M10.2 155.726H12.3V149.586C16.38 149.966 19.26 152.006 21.52 156.706L23.6 155.326C20.44 148.786 15.84 146.886 10.2 146.886L10.2 155.726ZM8.28 144.066H26.7V141.406H8.28L8.28 144.066ZM24.4 125.568V132.528H22.76V125.568H24.4ZM20.76 125.568V132.528H19L19 135.148H26.5L26.5 122.948H19V125.568H20.76ZM15.66 133.268C15.66 134.608 14.84 135.588 13.46 135.588C12.08 135.588 11.26 134.608 11.26 133.268C11.26 131.908 12.08 130.928 13.46 130.928C14.84 130.928 15.66 131.908 15.66 133.268ZM8.3 125.588H12.36V128.528C10.4 129.048 9.06 130.928 9.06 133.268C9.06 136.028 10.9 138.108 13.46 138.108C16.02 138.108 17.86 136.028 17.86 133.268C17.86 130.888 16.5 129.008 14.5 128.508V125.588H18.2V122.948H8.3V125.588ZM10.18 119.109H12.32V113.089C16.4 113.569 19.32 115.849 21.52 120.129L23.54 118.649C20.44 112.529 15.7 110.429 10.18 110.429V119.109ZM15.32 102.949V105.529H8.28V108.169H26.68V105.529H17.5V102.949H15.32ZM13.4 94.371L13.4 90.611H11.3L11.3 94.371H8.74V97.011H11.3V100.851H13.4V97.011H14.04C16.84 97.011 19.96 98.451 21.32 101.471L23.34 100.051C22.4 97.951 20.52 96.471 18.3 95.651C20.4 94.831 22.16 93.371 23.02 91.291L21 89.891C19.7 92.911 16.7 94.371 14.04 94.371H13.4ZM8.3 88.911H26.72V86.271H8.3V88.911Z" fill="#333333" fill-opacity="0.2"/>
<path d="M422.461 287.79C311.231 441.6 51.4028 407.014 2 333.678V480.77H850.977V77.2085C718.878 68.408 514.286 160.812 422.461 287.79Z" fill="url(#paint0_linear)"/>
<path d="M2 334.301C51.4028 407.815 311.231 442.485 422.461 288.301C514.286 161.016 718.878 68.388 850.977 77.2099" stroke="#2A263C" stroke-width="3"/>
<g filter="url(#filter0_d)">
<rect x="158.458" y="388.738" width="20" height="20" rx="10" fill="#2A263C"/>
</g>
<g filter="url(#filter1_d)">
<rect x="330.301" y="350.727" width="20" height="20" rx="10" fill="#2A263C"/>
</g>
<g filter="url(#filter2_d)">
<rect x="807.373" y="69.627" width="20" height="20" rx="10" fill="#2A263C"/>
</g>
<rect x="297.5" y="270.5" width="87" height="45" rx="7.5" fill="#E9E9F1"/>
<path d="M308.548 301H316.108V299.29H313.516V287.734H311.95C311.194 288.22 310.312 288.526 309.07 288.76V290.074H311.446V299.29H308.548V301ZM318.058 301H326.608V299.236H323.296C322.648 299.236 321.82 299.29 321.136 299.362C323.944 296.68 325.978 294.034 325.978 291.478C325.978 289.084 324.412 287.5 321.982 287.5C320.254 287.5 319.084 288.238 317.95 289.48L319.12 290.632C319.822 289.822 320.686 289.156 321.73 289.156C323.224 289.156 323.98 290.146 323.98 291.586C323.98 293.764 321.964 296.338 318.058 299.794V301ZM332.661 301.234C335.253 301.234 336.945 298.93 336.945 294.322C336.945 289.75 335.253 287.5 332.661 287.5C330.069 287.5 328.377 289.732 328.377 294.322C328.377 298.93 330.069 301.234 332.661 301.234ZM332.661 299.596C331.311 299.596 330.357 298.156 330.357 294.322C330.357 290.524 331.311 289.138 332.661 289.138C334.011 289.138 334.965 290.524 334.965 294.322C334.965 298.156 334.011 299.596 332.661 299.596ZM341.217 298.066H350.325V302.422H352.179V296.572H341.217V298.066ZM343.161 293.35C341.775 293.35 340.713 292.396 340.713 290.956C340.713 289.552 341.775 288.58 343.161 288.58C344.565 288.58 345.627 289.552 345.627 290.956C345.627 292.396 344.565 293.35 343.161 293.35ZM350.325 286.132V290.2H347.319C346.977 288.31 345.303 287.014 343.161 287.014C340.749 287.014 338.931 288.652 338.931 290.956C338.931 293.278 340.749 294.934 343.161 294.934C345.303 294.934 346.977 293.62 347.319 291.712H350.325V295.744H352.179V286.132H350.325ZM367.74 295.672V296.968H370.926V298.48H372.78V286.114H370.926V295.672H367.74ZM364.5 288.112C365.832 288.112 366.75 288.688 366.75 289.606C366.75 290.524 365.832 291.1 364.5 291.1C363.15 291.1 362.232 290.524 362.232 289.606C362.232 288.688 363.15 288.112 364.5 288.112ZM364.5 292.468C366.876 292.468 368.514 291.334 368.514 289.606C368.514 287.878 366.876 286.744 364.5 286.744C362.106 286.744 360.468 287.878 360.468 289.606C360.468 291.334 362.106 292.468 364.5 292.468ZM363.762 297.958H365.616V294.826C367.002 294.736 368.424 294.592 369.792 294.358L369.648 293.026C366.21 293.458 362.214 293.494 359.226 293.512L359.46 295.024C360.756 295.024 362.214 295.006 363.762 294.934V297.958ZM363.276 300.568V297.274H361.422V302.08H373.158V300.568H363.276Z" fill="#2A263C"/>
<rect x="297.5" y="270.5" width="87" height="45" rx="7.5" stroke="#838291"/>
<path d="M332.893 315.308L341.656 322.969L350.42 315.308H332.893Z" fill="#E9E9F1" stroke="#838291"/>
<rect x="761" width="113" height="49" rx="8" fill="url(#paint1_linear)"/>
<path d="M772.72 33H781.12V31.1H778.24V18.26H776.5C775.66 18.8 774.68 19.14 773.3 19.4V20.86H775.94V31.1H772.72V33ZM783.986 37C786.046 36.22 787.266 34.6 787.266 32.5C787.266 30.96 786.606 30.02 785.486 30.02C784.606 30.02 783.886 30.6 783.886 31.5C783.886 32.46 784.606 32.98 785.426 32.98C785.506 32.98 785.566 32.98 785.646 32.96C785.646 34.12 784.846 35.14 783.466 35.7L783.986 37ZM793.723 33.26C796.303 33.26 798.683 31.42 798.683 28.16C798.683 24.94 796.663 23.48 794.203 23.48C793.403 23.48 792.823 23.68 792.183 24L792.523 20.22H797.983V18.26H790.523L790.083 25.26L791.203 26C792.063 25.44 792.623 25.16 793.563 25.16C795.243 25.16 796.363 26.28 796.363 28.24C796.363 30.2 795.103 31.38 793.443 31.38C791.903 31.38 790.843 30.64 790.003 29.8L788.903 31.3C789.943 32.32 791.403 33.26 793.723 33.26ZM805.47 33.26C808.35 33.26 810.23 30.7 810.23 25.58C810.23 20.5 808.35 18 805.47 18C802.59 18 800.71 20.48 800.71 25.58C800.71 30.7 802.59 33.26 805.47 33.26ZM805.47 31.44C803.97 31.44 802.91 29.84 802.91 25.58C802.91 21.36 803.97 19.82 805.47 19.82C806.97 19.82 808.03 21.36 808.03 25.58C808.03 29.84 806.97 31.44 805.47 31.44ZM816.876 33.26C819.756 33.26 821.636 30.7 821.636 25.58C821.636 20.5 819.756 18 816.876 18C813.996 18 812.116 20.48 812.116 25.58C812.116 30.7 813.996 33.26 816.876 33.26ZM816.876 31.44C815.376 31.44 814.316 29.84 814.316 25.58C814.316 21.36 815.376 19.82 816.876 19.82C818.376 19.82 819.436 21.36 819.436 25.58C819.436 29.84 818.376 31.44 816.876 31.44ZM826.382 29.74H836.502V34.58H838.562V28.08H826.382V29.74ZM828.542 24.5C827.002 24.5 825.822 23.44 825.822 21.84C825.822 20.28 827.002 19.2 828.542 19.2C830.102 19.2 831.282 20.28 831.282 21.84C831.282 23.44 830.102 24.5 828.542 24.5ZM836.502 16.48V21H833.162C832.782 18.9 830.922 17.46 828.542 17.46C825.862 17.46 823.842 19.28 823.842 21.84C823.842 24.42 825.862 26.26 828.542 26.26C830.922 26.26 832.782 24.8 833.162 22.68H836.502V27.16H838.562V16.48H836.502ZM855.853 27.08V28.52H859.393V30.2H861.453V16.46H859.393V27.08H855.853ZM852.253 18.68C853.733 18.68 854.753 19.32 854.753 20.34C854.753 21.36 853.733 22 852.253 22C850.753 22 849.733 21.36 849.733 20.34C849.733 19.32 850.753 18.68 852.253 18.68ZM852.253 23.52C854.893 23.52 856.713 22.26 856.713 20.34C856.713 18.42 854.893 17.16 852.253 17.16C849.593 17.16 847.773 18.42 847.773 20.34C847.773 22.26 849.593 23.52 852.253 23.52ZM851.433 29.62H853.493V26.14C855.033 26.04 856.613 25.88 858.133 25.62L857.973 24.14C854.153 24.62 849.713 24.66 846.393 24.68L846.653 26.36C848.093 26.36 849.713 26.34 851.433 26.26V29.62ZM850.893 32.52V28.86H848.833V34.2H861.873V32.52H850.893Z" fill="white"/>
<path d="M816.977 54.8965L824.751 48.1441H809.203L816.977 54.8965Z" fill="#BF2F10"/>
<path d="M120.478 502.301V503.746H123.538V508.897H125.289V497.524H123.538V502.301H120.478ZM113.627 498.731V500.142H118.693C118.642 500.686 118.523 501.213 118.37 501.706L112.862 501.927L113.134 503.321L117.707 502.981C116.823 504.256 115.293 505.293 112.879 506.058L113.593 507.452C118.608 505.803 120.529 502.862 120.529 498.731H113.627ZM117.248 511.158V507.792H115.48V512.586H125.731V511.158H117.248ZM139.177 505.395H140.928V497.507H139.177V500.074H136.066V501.485H139.177V505.395ZM137.273 503.78C134.978 503.032 133.652 501.23 133.652 499.292V498H131.901V499.292C131.901 501.4 130.558 503.321 128.161 504.103L129.062 505.48C130.864 504.851 132.139 503.61 132.819 502.012C133.465 503.44 134.689 504.579 136.355 505.14L137.273 503.78ZM132.7 511.311V510.002H140.928V506.126H130.932V507.486H139.194V508.71H130.966V512.688H141.455V511.311H132.7ZM156.498 497.541H154.747V506.942H156.498V497.541ZM153.2 504.222C151.16 504.562 149.409 504.63 146.451 504.63V502.981H151.619V501.604H146.451V500.023H152.061V498.612H144.717V506.024H145.992C149.29 506.024 151.177 505.973 153.37 505.616L153.2 504.222ZM151.381 511.515C149.188 511.515 147.93 510.988 147.93 510.019C147.93 509.05 149.188 508.523 151.381 508.523C153.557 508.523 154.832 509.05 154.832 510.019C154.832 510.988 153.557 511.515 151.381 511.515ZM151.381 507.163C148.151 507.163 146.179 508.217 146.179 510.019C146.179 511.821 148.151 512.875 151.381 512.875C154.611 512.875 156.583 511.821 156.583 510.019C156.583 508.217 154.611 507.163 151.381 507.163ZM168.968 498.799H167.217V501.315C167.217 504.273 165.619 507.214 163.171 508.319L164.208 509.781C166.061 508.88 167.421 507.061 168.118 504.834C168.815 506.908 170.158 508.608 171.926 509.441L172.946 508.047C170.532 506.959 168.968 504.137 168.968 501.315V498.799ZM174.17 497.507V512.909H175.938V497.507H174.17ZM187.973 504.817C185.627 504.035 184.335 502.148 184.335 500.21V499.938H187.548V498.51H179.303V499.938H182.567V500.21C182.567 502.318 181.224 504.273 178.793 505.089L179.711 506.466C181.513 505.837 182.788 504.579 183.468 502.964C184.131 504.426 185.355 505.599 187.072 506.16L187.973 504.817ZM180.833 508.931H189.18V512.875H190.931V507.52H180.833V508.931ZM193.107 501.434H190.931V497.507H189.18V506.772H190.931V502.879H193.107V501.434Z" fill="#2A263C"/>
<path d="M307.61 497.541H305.859V508.761H307.61V497.541ZM304.261 504.953C301.898 504.137 300.555 502.08 300.555 499.904V498.374H298.77V499.904C298.77 502.148 297.427 504.341 295.013 505.225L295.914 506.636C297.716 505.956 298.991 504.562 299.688 502.845C300.351 504.443 301.609 505.701 303.36 506.347L304.261 504.953ZM299.348 511.158V507.707H297.58V512.586H308.052V511.158H299.348ZM311.994 505.038C314.527 504.664 316.601 503.406 317.536 501.706C318.471 503.406 320.562 504.664 323.095 505.038L323.724 503.661C320.8 503.27 318.641 501.587 318.539 499.802H323.18V498.391H311.875V499.802H316.55C316.448 501.587 314.289 503.27 311.365 503.661L311.994 505.038ZM324.489 506.16H310.6V507.571H316.618V512.892H318.369V507.571H324.472L324.489 506.16ZM336.092 503.491H332.335V501.536H336.092V503.491ZM337.826 498.17H336.092V500.193H332.335V498.17H330.584V504.885H337.826V498.17ZM333.882 510.002H342.042V506.075H332.131V507.435H340.308V508.71H332.165V512.739H342.552V511.362H333.882V510.002ZM342.042 500.669V497.524H340.291V505.395H342.042V502.114H344.201V500.669H342.042ZM355.42 502.964H357.018V507.197H358.684V497.507H357.018V501.519H355.42V497.813H353.788V506.67H355.42V502.964ZM353.261 499.241H350.303V497.66H348.586V499.241H345.611V500.618H353.261V499.241ZM347.736 503.933C347.736 503.1 348.416 502.556 349.453 502.556C350.49 502.556 351.187 503.1 351.187 503.933C351.187 504.766 350.49 505.31 349.453 505.31C348.416 505.31 347.736 504.766 347.736 503.933ZM352.751 503.933C352.751 502.352 351.391 501.281 349.453 501.281C347.532 501.281 346.172 502.352 346.172 503.933C346.172 505.531 347.532 506.585 349.453 506.585C351.391 506.585 352.751 505.531 352.751 503.933ZM353.584 511.549C351.391 511.549 350.133 511.056 350.133 510.138C350.133 509.22 351.391 508.744 353.584 508.744C355.794 508.744 357.018 509.22 357.018 510.138C357.018 511.056 355.794 511.549 353.584 511.549ZM353.584 507.418C350.337 507.418 348.382 508.404 348.382 510.138C348.382 511.872 350.337 512.875 353.584 512.875C356.814 512.875 358.769 511.872 358.769 510.138C358.769 508.404 356.814 507.418 353.584 507.418Z" fill="#2A263C"/>
<path d="M767.752 502.301V503.746H770.812V508.897H772.563V497.524H770.812V502.301H767.752ZM760.901 498.731V500.142H765.967C765.916 500.686 765.797 501.213 765.644 501.706L760.136 501.927L760.408 503.321L764.981 502.981C764.097 504.256 762.567 505.293 760.153 506.058L760.867 507.452C765.882 505.803 767.803 502.862 767.803 498.731H760.901ZM764.522 511.158V507.792H762.754V512.586H773.005V511.158H764.522ZM786.451 505.395H788.202V497.507H786.451V500.074H783.34V501.485H786.451V505.395ZM784.547 503.78C782.252 503.032 780.926 501.23 780.926 499.292V498H779.175V499.292C779.175 501.4 777.832 503.321 775.435 504.103L776.336 505.48C778.138 504.851 779.413 503.61 780.093 502.012C780.739 503.44 781.963 504.579 783.629 505.14L784.547 503.78ZM779.974 511.311V510.002H788.202V506.126H778.206V507.486H786.468V508.71H778.24V512.688H788.729V511.311H779.974ZM803.773 497.541H802.022V506.942H803.773V497.541ZM800.475 504.222C798.435 504.562 796.684 504.63 793.726 504.63V502.981H798.894V501.604H793.726V500.023H799.336V498.612H791.992V506.024H793.267C796.565 506.024 798.452 505.973 800.645 505.616L800.475 504.222ZM798.656 511.515C796.463 511.515 795.205 510.988 795.205 510.019C795.205 509.05 796.463 508.523 798.656 508.523C800.832 508.523 802.107 509.05 802.107 510.019C802.107 510.988 800.832 511.515 798.656 511.515ZM798.656 507.163C795.426 507.163 793.454 508.217 793.454 510.019C793.454 511.821 795.426 512.875 798.656 512.875C801.886 512.875 803.858 511.821 803.858 510.019C803.858 508.217 801.886 507.163 798.656 507.163ZM811.874 503.797C814.577 503.508 816.685 502.42 817.518 500.839C818.334 502.42 820.442 503.508 823.145 503.797L823.774 502.437C820.918 502.148 818.946 500.958 818.708 499.598H823.196V498.187H811.857V499.598H816.311C816.056 500.958 814.101 502.148 811.262 502.437L811.874 503.797ZM817.484 511.532C815.223 511.532 813.982 511.09 813.982 510.189C813.982 509.305 815.223 508.846 817.484 508.846C819.745 508.846 821.003 509.305 821.003 510.189C821.003 511.09 819.745 511.532 817.484 511.532ZM817.484 507.503C814.186 507.503 812.197 508.472 812.197 510.189C812.197 511.906 814.186 512.875 817.484 512.875C820.799 512.875 822.771 511.906 822.771 510.189C822.771 508.472 820.799 507.503 817.484 507.503ZM818.368 505.038V502.981H816.617V505.038H810.565V506.449H824.454V505.038H818.368ZM831.678 506.976H834.823V509.628H831.678V506.976ZM836.557 509.628V506.976H838.818V505.565H829.621V503.44H838.478V498.595H827.87V500.006H836.744V502.046H827.904V506.976H829.944V509.628H826.221V511.073H840.127V509.628H836.557Z" fill="#2A263C"/>
<line x1="169.217" y1="399.742" x2="169.217" y2="480.771" stroke="#130F26" stroke-dasharray="5 5 5 5 5 5"/>
<line x1="341.062" y1="359.729" x2="341.062" y2="480.771" stroke="#130F26" stroke-dasharray="5 5 5 5 5 5"/>
<line x1="818.134" y1="78.6309" x2="818.134" y2="480.771" stroke="#130F26" stroke-dasharray="5 5 5 5 5 5"/>
<rect x="119.5" y="313.5" width="98.9955" height="45" rx="7.5" fill="#E9E9F1"/>
<path d="M144.822 344.234C147.252 344.234 149.25 342.83 149.25 340.436C149.25 338.654 148.044 337.502 146.514 337.124V337.034C147.918 336.512 148.8 335.45 148.8 333.92C148.8 331.742 147.126 330.5 144.75 330.5C143.22 330.5 141.996 331.166 140.952 332.102L142.032 333.398C142.788 332.66 143.652 332.174 144.678 332.156C145.938 332.174 146.712 332.894 146.712 334.064C146.712 335.396 145.848 336.386 143.238 336.386V337.916C146.226 337.916 147.162 338.87 147.162 340.328C147.162 341.714 146.136 342.542 144.642 342.542C143.274 342.542 142.284 341.876 141.51 341.084L140.502 342.416C141.384 343.406 142.734 344.234 144.822 344.234ZM155.394 344.234C157.986 344.234 159.678 341.93 159.678 337.322C159.678 332.75 157.986 330.5 155.394 330.5C152.802 330.5 151.11 332.732 151.11 337.322C151.11 341.93 152.802 344.234 155.394 344.234ZM155.394 342.596C154.044 342.596 153.09 341.156 153.09 337.322C153.09 333.524 154.044 332.138 155.394 332.138C156.744 332.138 157.698 333.524 157.698 337.322C157.698 341.156 156.744 342.596 155.394 342.596ZM163.949 341.066H173.057V345.422H174.911V339.572H163.949V341.066ZM165.893 336.35C164.507 336.35 163.445 335.396 163.445 333.956C163.445 332.552 164.507 331.58 165.893 331.58C167.297 331.58 168.359 332.552 168.359 333.956C168.359 335.396 167.297 336.35 165.893 336.35ZM173.057 329.132V333.2H170.051C169.709 331.31 168.035 330.014 165.893 330.014C163.481 330.014 161.663 331.652 161.663 333.956C161.663 336.278 163.481 337.934 165.893 337.934C168.035 337.934 169.709 336.62 170.051 334.712H173.057V338.744H174.911V329.132H173.057ZM190.473 338.672V339.968H193.659V341.48H195.513V329.114H193.659V338.672H190.473ZM187.233 331.112C188.565 331.112 189.483 331.688 189.483 332.606C189.483 333.524 188.565 334.1 187.233 334.1C185.883 334.1 184.965 333.524 184.965 332.606C184.965 331.688 185.883 331.112 187.233 331.112ZM187.233 335.468C189.609 335.468 191.247 334.334 191.247 332.606C191.247 330.878 189.609 329.744 187.233 329.744C184.839 329.744 183.201 330.878 183.201 332.606C183.201 334.334 184.839 335.468 187.233 335.468ZM186.495 340.958H188.349V337.826C189.735 337.736 191.157 337.592 192.525 337.358L192.381 336.026C188.943 336.458 184.947 336.494 181.959 336.512L182.193 338.024C183.489 338.024 184.947 338.006 186.495 337.934V340.958ZM186.009 343.568V340.274H184.155V345.08H195.891V343.568H186.009Z" fill="#2A263C"/>
<rect x="119.5" y="313.5" width="98.9955" height="45" rx="7.5" stroke="#838291"/>
<path d="M160.792 359.127L168.897 366.213L177.002 359.127H160.792Z" fill="#E9E9F1" stroke="#838291"/>
<defs>
<filter id="filter0_d" x="143.458" y="373.738" width="50" height="50" filterUnits="userSpaceOnUse" color-interpolation-filters="sRGB">
<feFlood flood-opacity="0" result="BackgroundImageFix"/>
<feColorMatrix in="SourceAlpha" type="matrix" values="0 0 0 0 0 0 0 0 0 0 0 0 0 0 0 0 0 0 127 0" result="hardAlpha"/>
<feOffset/>
<feGaussianBlur stdDeviation="7.5"/>
<feColorMatrix type="matrix" values="0 0 0 0 0 0 0 0 0 0 0 0 0 0 0 0 0 0 1 0"/>
<feBlend mode="normal" in2="BackgroundImageFix" result="effect1_dropShadow"/>
<feBlend mode="normal" in="SourceGraphic" in2="effect1_dropShadow" result="shape"/>
</filter>
<filter id="filter1_d" x="315.301" y="335.727" width="50" height="50" filterUnits="userSpaceOnUse" color-interpolation-filters="sRGB">
<feFlood flood-opacity="0" result="BackgroundImageFix"/>
<feColorMatrix in="SourceAlpha" type="matrix" values="0 0 0 0 0 0 0 0 0 0 0 0 0 0 0 0 0 0 127 0" result="hardAlpha"/>
<feOffset/>
<feGaussianBlur stdDeviation="7.5"/>
<feColorMatrix type="matrix" values="0 0 0 0 0 0 0 0 0 0 0 0 0 0 0 0 0 0 1 0"/>
<feBlend mode="normal" in2="BackgroundImageFix" result="effect1_dropShadow"/>
<feBlend mode="normal" in="SourceGraphic" in2="effect1_dropShadow" result="shape"/>
</filter>
<filter id="filter2_d" x="792.373" y="54.627" width="50" height="50" filterUnits="userSpaceOnUse" color-interpolation-filters="sRGB">
<feFlood flood-opacity="0" result="BackgroundImageFix"/>
<feColorMatrix in="SourceAlpha" type="matrix" values="0 0 0 0 0 0 0 0 0 0 0 0 0 0 0 0 0 0 127 0" result="hardAlpha"/>
<feOffset/>
<feGaussianBlur stdDeviation="7.5"/>
<feColorMatrix type="matrix" values="0 0 0 0 0 0 0 0 0 0 0 0 0 0 0 0 0 0 1 0"/>
<feBlend mode="normal" in2="BackgroundImageFix" result="effect1_dropShadow"/>
<feBlend mode="normal" in="SourceGraphic" in2="effect1_dropShadow" result="shape"/>
</filter>
<linearGradient id="paint0_linear" x1="427.294" y1="-45.9974" x2="427.294" y2="481.399" gradientUnits="userSpaceOnUse">
<stop stop-color="#2A263C"/>
<stop offset="0.4375" stop-color="#2A263C" stop-opacity="0.35"/>
<stop offset="1" stop-color="#2A263C" stop-opacity="0"/>
</linearGradient>
<linearGradient id="paint1_linear" x1="817.5" y1="0" x2="817.5" y2="49" gradientUnits="userSpaceOnUse">
<stop stop-color="#A5250A"/>
<stop offset="1" stop-color="#C13011"/>
</linearGradient>
</defs>
</svg>
