<svg width="592" height="508" viewBox="0 0 592 508" fill="none" xmlns="http://www.w3.org/2000/svg">
<path d="M4.14559 420.329L2.85156 419L126.658 281.013L206.581 311.669L266.672 258.022L347.145 249.926L452.722 66.9915L584.179 5.88672L584.907 7.64736L453.951 68.5105L348.196 251.738L267.4 259.868L206.937 313.844L127.143 283.24L4.14559 420.329Z" fill="#D03A3B" fill-opacity="0.2"/>
<path d="M135.397 283.398C135.324 284.885 134.81 286.316 133.921 287.509C133.032 288.703 131.809 289.605 130.405 290.101C129.002 290.597 127.483 290.664 126.042 290.294C124.6 289.924 123.302 289.134 122.311 288.023C121.32 286.913 120.682 285.533 120.477 284.059C120.273 282.585 120.512 281.083 121.163 279.745C121.815 278.407 122.85 277.294 124.136 276.546C125.423 275.798 126.903 275.449 128.388 275.545C130.353 275.671 132.19 276.566 133.502 278.035C134.813 279.505 135.494 281.431 135.397 283.398Z" fill="#851801"/>
<path d="M591.991 7.86766C591.918 9.35326 591.405 10.7836 590.517 11.977C589.629 13.1703 588.407 14.0727 587.005 14.5694C585.603 15.0661 584.085 15.1348 582.644 14.7666C581.202 14.3984 579.903 13.6101 578.911 12.5018C577.92 11.3935 577.279 10.0152 577.073 8.54226C576.866 7.0693 577.102 5.56814 577.751 4.22961C578.399 2.89107 579.431 1.77561 580.715 1.02502C581.999 0.274426 583.478 -0.0774024 584.962 0.0142581C586.931 0.135827 588.773 1.02826 590.089 2.49822C591.404 3.96819 592.088 5.89731 591.991 7.86766Z" fill="#851801"/>
<path d="M14.991 415.868C14.9181 417.353 14.4051 418.784 13.5172 419.977C12.6293 421.17 11.4067 422.073 10.0047 422.569C8.60271 423.066 7.08467 423.135 5.64357 422.767C4.20246 422.398 2.90337 421.61 1.91142 420.502C0.919479 419.393 0.279479 418.015 0.0727791 416.542C-0.133921 415.069 0.102015 413.568 0.750595 412.23C1.39918 410.891 2.43111 409.776 3.71522 409.025C4.99933 408.274 6.47762 407.923 7.96219 408.014C9.93116 408.136 11.773 409.028 13.0886 410.498C14.4042 411.968 15.0877 413.897 14.991 415.868Z" fill="#851801"/>
<path d="M213.991 311.868C213.918 313.353 213.405 314.784 212.517 315.977C211.629 317.17 210.407 318.073 209.005 318.569C207.603 319.066 206.085 319.135 204.644 318.767C203.202 318.398 201.903 317.61 200.911 316.502C199.919 315.393 199.279 314.015 199.073 312.542C198.866 311.069 199.102 309.568 199.751 308.23C200.399 306.891 201.431 305.776 202.715 305.025C203.999 304.274 205.478 303.923 206.962 304.014C208.931 304.136 210.773 305.028 212.089 306.498C213.404 307.968 214.088 309.897 213.991 311.868Z" fill="#851801"/>
<path d="M274.894 260.32C274.821 261.806 274.307 263.237 273.418 264.431C272.529 265.625 271.305 266.527 269.902 267.023C268.499 267.518 266.98 267.586 265.538 267.216C264.097 266.846 262.798 266.055 261.807 264.945C260.816 263.835 260.178 262.455 259.973 260.981C259.769 259.507 260.008 258.005 260.66 256.667C261.311 255.329 262.346 254.216 263.633 253.467C264.919 252.719 266.399 252.371 267.885 252.467C269.848 252.598 271.682 253.494 272.993 254.962C274.303 256.431 274.986 258.354 274.894 260.32Z" fill="#851801"/>
<path d="M354.984 249.967C354.892 251.448 354.362 252.868 353.463 254.048C352.563 255.228 351.334 256.114 349.93 256.595C348.527 257.076 347.012 257.13 345.578 256.75C344.144 256.37 342.855 255.572 341.874 254.459C340.893 253.346 340.264 251.967 340.067 250.497C339.869 249.026 340.113 247.53 340.766 246.198C341.419 244.866 342.453 243.757 343.736 243.013C345.02 242.268 346.495 241.921 347.976 242.015C348.959 242.075 349.92 242.329 350.805 242.761C351.689 243.194 352.48 243.796 353.131 244.535C353.782 245.274 354.281 246.134 354.599 247.066C354.917 247.998 355.048 248.984 354.984 249.967Z" fill="#851801"/>
<path d="M461.846 69.0806C461.774 70.5662 461.261 71.9965 460.373 73.1899C459.485 74.3832 458.262 75.2856 456.86 75.7823C455.458 76.279 453.94 76.3477 452.499 75.9795C451.058 75.6113 449.759 74.823 448.767 73.7147C447.775 72.6064 447.135 71.2281 446.928 69.7552C446.722 68.2822 446.958 66.781 447.606 65.4425C448.255 64.104 449.287 62.9885 450.571 62.2379C451.855 61.4873 453.333 61.1355 454.818 61.2271C456.787 61.3487 458.628 62.2412 459.944 63.7111C461.26 65.1811 461.943 67.1102 461.846 69.0806Z" fill="#851801"/>
<g opacity="0.5">
<g opacity="0.5">
<path style="mix-blend-mode:multiply" opacity="0.5" d="M7.76953 414.893L126.901 282.119V506.947H7.85041L7.76953 414.893Z" fill="url(#paint0_linear)"/>
</g>
<g opacity="0.5">
<path style="mix-blend-mode:multiply" opacity="0.5" d="M126.594 282.051L207.083 313.104V506.947H126.901L126.594 282.051Z" fill="url(#paint1_linear)"/>
</g>
<g opacity="0.5">
<path style="mix-blend-mode:multiply" opacity="0.5" d="M207.082 313.106L266.09 258.957V506.949H207.082V313.106Z" fill="url(#paint2_linear)"/>
</g>
<g opacity="0.5">
<path style="mix-blend-mode:multiply" opacity="0.5" d="M266.09 258.957L347.776 251.172V507.001H266.09V258.957Z" fill="url(#paint3_linear)"/>
</g>
<g opacity="0.5">
<path style="mix-blend-mode:multiply" opacity="0.5" d="M453.031 67.668V506.949H347.777V251.172L453.031 67.668Z" fill="url(#paint4_linear)"/>
</g>
<g opacity="0.5">
<path style="mix-blend-mode:multiply" opacity="0.5" d="M453.031 506.948V67.6671L584.537 6.76953V506.948H453.031Z" fill="url(#paint5_linear)"/>
</g>
</g>
<defs>
<linearGradient id="paint0_linear" x1="16.4004" y1="435.193" x2="104.478" y2="268.849" gradientUnits="userSpaceOnUse">
<stop stop-color="#CF393A"/>
<stop offset="1" stop-color="#FF0000"/>
</linearGradient>
<linearGradient id="paint1_linear" x1="132.425" y1="435.172" x2="235.868" y2="303.22" gradientUnits="userSpaceOnUse">
<stop stop-color="#CF393A"/>
<stop offset="1" stop-color="#FF0000"/>
</linearGradient>
<linearGradient id="paint2_linear" x1="211.357" y1="427.803" x2="327.242" y2="329.523" gradientUnits="userSpaceOnUse">
<stop stop-color="#CF393A"/>
<stop offset="1" stop-color="#FF0000"/>
</linearGradient>
<linearGradient id="paint3_linear" x1="272.008" y1="425.353" x2="392.175" y2="288.597" gradientUnits="userSpaceOnUse">
<stop stop-color="#CF393A"/>
<stop offset="1" stop-color="#FF0000"/>
</linearGradient>
<linearGradient id="paint4_linear" x1="355.403" y1="366.753" x2="560.904" y2="191.255" gradientUnits="userSpaceOnUse">
<stop stop-color="#CF393A"/>
<stop offset="1" stop-color="#FF0000"/>
</linearGradient>
<linearGradient id="paint5_linear" x1="462.559" y1="347.316" x2="698.97" y2="125.777" gradientUnits="userSpaceOnUse">
<stop stop-color="#CF393A"/>
<stop offset="1" stop-color="#FF0000"/>
</linearGradient>
</defs>
</svg>
