<svg width="25" height="25" viewBox="0 0 25 25" fill="none" xmlns="http://www.w3.org/2000/svg">
<path d="M12.5007 2.08325C6.75065 2.08325 2.08398 6.74992 2.08398 12.4999C2.08398 18.2499 6.75065 22.9166 12.5007 22.9166C18.2507 22.9166 22.9173 18.2499 22.9173 12.4999C22.9173 6.74992 18.2507 2.08325 12.5007 2.08325ZM12.5007 20.8333C7.9069 20.8333 4.16732 17.0937 4.16732 12.4999C4.16732 7.90617 7.9069 4.16659 12.5007 4.16659C17.0944 4.16659 20.834 7.90617 20.834 12.4999C20.834 17.0937 17.0944 20.8333 12.5007 20.8333ZM16.5423 8.63534L10.4173 14.7603L8.45898 12.802C8.05273 12.3958 7.39648 12.3958 6.99023 12.802C6.58398 13.2083 6.58398 13.8645 6.99023 14.2708L9.68815 16.9687C10.0944 17.3749 10.7507 17.3749 11.1569 16.9687L18.0215 10.1041C18.4277 9.69784 18.4277 9.04159 18.0215 8.63534C17.6152 8.22909 16.9486 8.22909 16.5423 8.63534Z" fill="#47CE3B"/>
</svg>
