<svg width="157" height="52" viewBox="0 0 157 52" fill="none" xmlns="http://www.w3.org/2000/svg">
<path d="M27.1227 12.4505L27.1208 12.428L3.19059 12.4263L31.6093 8.2628L4.71 8.294L35.6041 4.07334L35.5902 4.05774L6.17359 4.16L40.3107 0.0103992L40.2984 0L7.76627 0.0138657L5.73224 4.16L5.71829 4.15827L3.74533 8.42227H3.76277L1.82817 12.6239L1.85957 12.6221L0 16.7266L27.1227 12.4505Z" fill="white"/>
<path d="M47.7658 10.5798C40.3362 17.9482 29.9794 30.2965 21.2048 48.5346C30.5568 27.7571 40.4042 13.8506 46.0893 6.87915L46.0579 6.85661C38.6092 13.7865 26.3492 27.3359 16.2332 48.5918C27.354 23.7133 39.4291 8.56741 44.3711 3.08141H44.3275C37.5975 8.72861 22.3457 23.429 10.4242 48.9021C25.1212 15.681 41.5259 0.680747 42.0423 0.316747L42.0632 0.257812L41.5102 0.637411C36.2559 4.72461 17.9706 20.4546 4.5332 50.6007L9.6235 50.6441L9.6549 50.6458L15.2493 50.6978H15.3139L20.1582 50.7411H20.2262L27.0645 50.8053C32.5804 31.0435 42.0789 18.4613 47.7466 10.6128L47.7658 10.5798Z" fill="white"/>
<path d="M63.0272 28.5619C62.8146 29.0676 62.4866 29.5148 62.0389 29.9059C61.591 30.2925 61.0165 30.6071 60.3154 30.8476C59.6141 31.0857 58.7819 31.2072 57.8207 31.2072C57.4225 31.2072 57.0244 31.1801 56.6355 31.124C56.2419 31.0678 55.8642 30.9981 55.5001 30.9082C55.1358 30.8205 54.8012 30.7126 54.498 30.5913C54.1972 30.4677 53.9371 30.3464 53.7155 30.2228C53.6454 30.1824 53.6273 30.1328 53.6522 30.0789L54.2538 28.1125C54.2787 28.0293 54.3329 28.0092 54.4166 28.0496C54.8577 28.3238 55.3893 28.5529 56.018 28.7373C56.6423 28.9215 57.3049 29.0137 58.0061 29.0137C58.8452 29.0137 59.4966 28.8428 59.9557 28.5013C60.4171 28.1597 60.6433 27.7147 60.6433 27.1686C60.6433 26.663 60.442 26.2427 60.0259 25.9078C59.6141 25.573 58.947 25.2606 58.0265 24.9752C57.4067 24.7819 56.8458 24.5639 56.3459 24.3077C55.8438 24.0583 55.4119 23.7639 55.0567 23.429C54.6994 23.0941 54.4212 22.7166 54.2221 22.3009C54.0209 21.8851 53.9213 21.4109 53.9213 20.8761C53.9213 20.3029 54.0435 19.7726 54.281 19.2871C54.523 18.8016 54.8667 18.3815 55.3146 18.0263C55.7602 17.6713 56.2984 17.3949 56.9226 17.1971C57.5492 17.0015 58.2526 16.9004 59.0374 16.9004C59.8744 16.9004 60.5958 16.9723 61.1929 17.1162C61.79 17.2578 62.2898 17.433 62.6879 17.6398C62.7558 17.6667 62.7783 17.7117 62.749 17.7814L62.1315 19.6669C62.118 19.7074 62.0886 19.7366 62.0479 19.7501C62.0071 19.7635 61.9732 19.7569 61.9438 19.7298C61.7109 19.604 61.3376 19.4624 60.8198 19.2962C60.3062 19.1343 59.6956 19.0535 58.9967 19.0535C58.5557 19.0535 58.1848 19.1006 57.884 19.1972C57.5786 19.2894 57.3344 19.4175 57.1512 19.5748C56.9657 19.7321 56.8276 19.9096 56.7372 20.1074C56.6491 20.3074 56.6038 20.5007 56.6038 20.6917C56.6038 21.1974 56.8232 21.6042 57.2642 21.912C57.7031 22.2177 58.411 22.5233 59.3881 22.8245C60.7089 23.247 61.6995 23.7774 62.3599 24.4111C63.0182 25.0493 63.3462 25.9124 63.3462 27.0045C63.3462 27.5371 63.242 28.0586 63.0272 28.5619Z" fill="white"/>
<path d="M71.4132 19.34V30.8374C71.4132 30.9183 71.3726 30.9587 71.2888 30.9587H68.8755C68.7941 30.9587 68.7534 30.9183 68.7534 30.8374V19.34H64.4018C64.318 19.34 64.2773 19.2972 64.2773 19.2163V17.2476C64.2773 17.1803 64.318 17.1465 64.4018 17.1465H75.7875C75.8689 17.1465 75.9118 17.1803 75.9118 17.2476V19.2163C75.9118 19.2972 75.8689 19.34 75.7875 19.34H71.4132Z" fill="white"/>
<path d="M79.8089 26.0607C80.0147 26.663 80.3065 27.1888 80.6866 27.6383C81.0619 28.09 81.5279 28.4452 82.0774 28.7036C82.6294 28.9665 83.2468 29.0946 83.9344 29.0946C84.6378 29.0946 85.2666 28.9665 85.8207 28.7036C86.3794 28.4452 86.8499 28.09 87.2366 27.6383C87.6211 27.1888 87.9151 26.6517 88.1233 26.0292C88.3291 25.4089 88.4331 24.7369 88.4331 24.0111C88.4331 23.3683 88.3359 22.7458 88.1435 22.1458C87.9513 21.5457 87.664 21.0131 87.2863 20.5479C86.9086 20.0827 86.4405 19.7119 85.884 19.431C85.3254 19.15 84.6876 19.0107 83.9752 19.0107C83.2468 19.0107 82.6044 19.1478 82.0458 19.4198C81.4917 19.6962 81.0212 20.0602 80.6435 20.5277C80.2636 20.9929 79.9786 21.5345 79.7886 22.1571C79.5941 22.7773 79.4991 23.438 79.4991 24.1346C79.4991 24.8179 79.6031 25.4606 79.8089 26.0607ZM90.679 26.9416C90.308 27.8451 89.7901 28.6092 89.132 29.2384C88.4715 29.8676 87.6935 30.3532 86.791 30.6947C85.8908 31.0341 84.9182 31.2048 83.8734 31.2048C82.8012 31.2048 81.8241 31.0274 80.9444 30.6722C80.0622 30.3172 79.3114 29.8295 78.6848 29.207C78.0584 28.5844 77.5743 27.8473 77.2328 26.9933C76.8868 26.1416 76.7148 25.2134 76.7148 24.2156C76.7148 23.1369 76.898 22.1503 77.2599 21.2558C77.6241 20.3614 78.1329 19.5883 78.7776 18.9388C79.4268 18.2915 80.198 17.7882 81.0982 17.433C82.0006 17.078 82.9777 16.9004 84.0385 16.9004C85.1376 16.9004 86.1305 17.078 87.0194 17.433C87.9061 17.7882 88.6593 18.2781 89.2881 18.8984C89.9123 19.5208 90.394 20.2602 90.7288 21.1232C91.0681 21.9817 91.2376 22.9121 91.2376 23.91C91.2376 25.0292 91.0499 26.0382 90.679 26.9416Z" fill="white"/>
<path d="M103.334 17.1341C103.987 17.2914 104.458 17.4443 104.747 17.5972C104.815 17.6241 104.836 17.6713 104.808 17.7388L104.252 19.604C104.225 19.7007 104.166 19.7209 104.087 19.6669C103.714 19.5029 103.266 19.3613 102.734 19.2466C102.207 19.1299 101.626 19.0736 100.99 19.0736C100.167 19.0736 99.4185 19.1883 98.7536 19.4198C98.0863 19.6534 97.5141 19.9839 97.0414 20.4131C96.5687 20.8446 96.2046 21.375 95.9491 22.002C95.6934 22.6312 95.569 23.3346 95.569 24.1123C95.569 24.8089 95.6844 25.4561 95.9196 26.0517C96.1503 26.6449 96.4919 27.1619 96.9396 27.5978C97.3852 28.0361 97.9439 28.3755 98.6089 28.6226C99.276 28.8677 100.043 28.9912 100.911 28.9912C101.499 28.9912 102.083 28.9396 102.653 28.8362C103.221 28.7351 103.707 28.5957 104.109 28.4181C104.189 28.3755 104.245 28.4024 104.272 28.5013L104.727 30.3441C104.752 30.3711 104.734 30.4071 104.661 30.4476C104.32 30.625 103.788 30.7958 103.065 30.9577C102.343 31.1239 101.493 31.2049 100.518 31.2049C99.3349 31.2049 98.2695 31.0409 97.3219 30.7128C96.3719 30.3868 95.56 29.9149 94.886 29.2991C94.212 28.6833 93.694 27.9462 93.3299 27.0833C92.9658 26.2248 92.7803 25.2606 92.7803 24.1953C92.7803 23.1458 92.9748 22.175 93.3616 21.285C93.7437 20.3974 94.2911 19.6287 94.9991 18.9792C95.7092 18.3297 96.5597 17.8218 97.5571 17.4533C98.5568 17.0825 99.6651 16.9004 100.889 16.9004C101.866 16.9004 102.68 16.9768 103.334 17.1341Z" fill="white"/>
<path d="M115.659 31.1653C115.63 31.1653 115.596 31.1451 115.553 31.1023L110.975 24.648C110.758 24.8795 110.541 25.1041 110.324 25.3245C110.111 25.5425 109.903 25.7671 109.699 25.9987V30.8373C109.699 30.9181 109.656 30.9586 109.573 30.9586H107.18C107.098 30.9586 107.058 30.9181 107.058 30.8373V17.2475C107.058 17.18 107.098 17.1463 107.18 17.1463H109.573C109.656 17.1463 109.699 17.18 109.699 17.2475L109.758 23.1917C109.867 23.0141 109.966 22.8815 110.048 22.7917C110.131 22.7041 110.22 22.6029 110.315 22.495L110.624 22.1241L115.019 17.0834C115.046 17.0541 115.08 17.043 115.121 17.043L118.011 17.1463C118.066 17.1463 118.102 17.1665 118.122 17.207C118.145 17.2475 118.133 17.2901 118.093 17.3305L112.895 23.0276C113.829 24.3109 114.768 25.5963 115.709 26.8819C116.65 28.1651 117.588 29.4551 118.525 30.7541C118.554 30.7967 118.556 30.8417 118.536 30.8867C118.516 30.9361 118.477 30.9586 118.423 30.9586L115.659 31.1653Z" fill="white"/>
<path d="M63.678 50.7559C63.5944 50.7559 63.5537 50.7154 63.5537 50.6322V44.6678H56.9538V50.6322C56.9538 50.7154 56.9131 50.7559 56.8294 50.7559H54.4161C54.3324 50.7559 54.2939 50.7154 54.2939 50.6322V37.0448C54.2939 36.9751 54.3324 36.9414 54.4161 36.9414H56.8294C56.9131 36.9414 56.9538 36.9751 56.9538 37.0448V42.3957H63.5537V37.0448C63.5537 36.9751 63.5944 36.9414 63.678 36.9414H66.0913C66.1751 36.9414 66.2157 36.9751 66.2157 37.0448V50.6322C66.2157 50.7154 66.1751 50.7559 66.0913 50.7559H63.678Z" fill="white"/>
<path d="M71.6409 45.8578C71.849 46.4601 72.1385 46.986 72.5162 47.4377C72.8962 47.8873 73.3598 48.2423 73.9095 48.5007C74.4591 48.7614 75.0787 48.8918 75.7664 48.8918C76.4653 48.8918 77.0963 48.7614 77.6526 48.5007C78.2113 48.2423 78.6795 47.8873 79.0663 47.4377C79.4508 46.986 79.7493 46.449 79.9551 45.8286C80.1587 45.2062 80.2627 44.532 80.2627 43.8083C80.2627 43.1678 80.1678 42.5452 79.9732 41.9429C79.781 41.3406 79.4961 40.8103 79.1183 40.3451C78.7406 39.8821 78.2724 39.5068 77.7159 39.2281C77.1574 38.9472 76.5218 38.8079 75.8071 38.8079C75.0787 38.8079 74.4365 38.945 73.88 39.2191C73.3236 39.4889 72.8533 39.8596 72.4755 40.3249C72.0978 40.7901 71.8127 41.3316 71.6205 41.9542C71.426 42.5744 71.331 43.2329 71.331 43.9319C71.331 44.615 71.4328 45.2578 71.6409 45.8578ZM82.511 46.7389C82.1423 47.64 81.6243 48.4064 80.9639 49.0356C80.3034 49.6649 79.5231 50.1481 78.6252 50.4896C77.7227 50.8313 76.7479 51.0021 75.7031 51.0021C74.631 51.0021 73.6538 50.8245 72.7763 50.4695C71.8942 50.1143 71.1433 49.6267 70.5168 49.0064C69.8903 48.3817 69.4063 47.6446 69.0625 46.7905C68.7164 45.9365 68.5469 45.0106 68.5469 44.0128C68.5469 42.934 68.7277 41.9474 69.0942 41.0507C69.4583 40.1585 69.9626 39.3854 70.6072 38.7359C71.2541 38.0864 72.0299 37.5831 72.9301 37.2303C73.8303 36.8751 74.8096 36.6953 75.8682 36.6953C76.9697 36.6953 77.9626 36.8751 78.8491 37.2303C79.738 37.5831 80.4934 38.0731 81.12 38.6955C81.7442 39.3159 82.2259 40.0574 82.5629 40.9181C82.8999 41.7788 83.0696 42.7092 83.0696 43.7049C83.0696 44.8263 82.8841 45.8376 82.511 46.7389Z" fill="white"/>
<path d="M105.273 40.1175C104.316 39.3107 102.916 38.9106 101.075 38.9106C100.593 38.9106 100.188 38.9241 99.8582 38.9511C99.528 38.978 99.2453 39.0185 99.0124 39.0746V48.7248C99.2318 48.754 99.4851 48.7698 99.7745 48.7765C100.064 48.7855 100.372 48.7901 100.702 48.7901C101.681 48.7901 102.543 48.6686 103.292 48.4281C104.04 48.1922 104.667 47.8461 105.169 47.3967C105.671 46.945 106.053 46.3966 106.313 45.7538C106.576 45.1111 106.707 44.3964 106.707 43.6031C106.707 42.0884 106.227 40.9265 105.273 40.1175ZM108.912 46.5135C108.514 47.4147 107.955 48.1878 107.243 48.8305C106.499 49.5114 105.531 50.0283 104.332 50.3767C103.138 50.7272 101.783 50.898 100.27 50.898C99.4444 50.898 98.7273 50.8868 98.1145 50.8598C97.5037 50.8307 96.9497 50.7835 96.4543 50.716C96.3842 50.716 96.3525 50.6756 96.3525 50.5924V37.2297C96.3525 37.1465 96.3842 37.1037 96.4543 37.1037C97.0989 37.0251 97.8001 36.9554 98.56 36.9016C99.3132 36.8476 100.105 36.8184 100.93 36.8184C103.764 36.8184 105.881 37.4004 107.284 38.5623C107.971 39.1331 108.514 39.8344 108.912 40.6636C109.312 41.4883 109.509 42.4345 109.509 43.502C109.509 44.6077 109.312 45.6122 108.912 46.5135Z" fill="white"/>
<path d="M111.864 50.7559C111.78 50.7559 111.739 50.7154 111.739 50.6322V37.0448C111.739 36.9751 111.78 36.9414 111.864 36.9414H114.277C114.358 36.9414 114.401 36.9751 114.401 37.0448V50.6322C114.401 50.7154 114.358 50.7559 114.277 50.7559H111.864Z" fill="white"/>
<path d="M126.754 50.7559C126.727 50.7559 126.693 50.7334 126.653 50.6951L122.425 44.4026C121.944 43.6767 121.475 42.9464 121.021 42.2091C120.569 41.472 120.161 40.7394 119.804 40.018C119.847 40.8495 119.874 41.6789 119.888 42.5058C119.899 43.3329 119.908 44.225 119.908 45.1802V50.6322C119.908 50.7154 119.867 50.7559 119.781 50.7559H117.538C117.452 50.7559 117.411 50.7154 117.411 50.6322V37.0448C117.411 36.9751 117.452 36.9414 117.538 36.9414H120.403C120.444 36.9683 120.471 36.9886 120.485 37.0021L124.732 43.1328C125.214 43.8296 125.644 44.5038 126.024 45.16C126.404 45.8185 126.754 46.4657 127.085 47.1084C127.017 46.3286 126.976 45.56 126.963 44.8004C126.949 44.043 126.94 43.2205 126.94 42.3328V37.0448C126.94 36.9751 126.983 36.9414 127.067 36.9414H129.315C129.396 36.9414 129.437 36.9751 129.437 37.0448V50.6322C129.437 50.7154 129.396 50.7559 129.315 50.7559H126.754Z" fill="white"/>
<path d="M144.741 50.2248C144.602 50.2517 144.48 50.2653 144.372 50.2653C144.274 50.2788 144.183 50.2854 144.1 50.2854C144.021 50.2854 143.923 50.3057 143.813 50.3461C143.29 50.4967 142.684 50.6271 141.997 50.735C141.312 50.8473 140.574 50.899 139.791 50.899C137.247 50.899 135.245 50.2382 133.789 48.9101C133.144 48.3101 132.64 47.5819 132.283 46.7189C131.924 45.8581 131.749 44.9345 131.749 43.9525C131.749 42.9546 131.934 42.022 132.314 41.1545C132.692 40.287 133.242 39.5296 133.965 38.8801C134.686 38.2284 135.567 37.7227 136.604 37.3542C137.64 36.9834 138.821 36.7969 140.145 36.7969C141.092 36.7969 141.924 36.8823 142.646 37.0463C143.37 37.2104 143.907 37.3654 144.267 37.5182C144.348 37.5452 144.376 37.5901 144.348 37.6598L143.773 39.5453C143.758 39.6262 143.709 39.6554 143.627 39.6262C143.186 39.451 142.691 39.2959 142.131 39.1656C141.573 39.0352 140.89 38.9723 140.079 38.9723C139.226 38.9723 138.459 39.0892 137.778 39.3206C137.1 39.5521 136.519 39.8824 136.036 40.3049C135.555 40.7274 135.185 41.2353 134.922 41.8287C134.661 42.4242 134.531 43.0826 134.531 43.8109C134.531 44.5323 134.652 45.1975 134.903 45.7976C135.151 46.3975 135.508 46.9167 135.976 47.355C136.442 47.7932 137.007 48.1325 137.678 48.3797C138.342 48.6247 139.095 48.7461 139.938 48.7461C140.472 48.7461 140.936 48.7146 141.327 48.6472C141.721 48.5775 142.023 48.5034 142.246 48.418V45.2042H139.522C139.441 45.2042 139.398 45.1615 139.398 45.0784V43.2152C139.398 43.1322 139.441 43.0917 139.522 43.0917H144.722C144.804 43.0917 144.844 43.1322 144.844 43.2152V50.1237L144.741 50.2248Z" fill="white"/>
<path d="M156.324 48.359C156.109 48.8647 155.781 49.3142 155.334 49.7008C154.887 50.0918 154.313 50.4064 153.612 50.6446C152.912 50.8829 152.078 51.0019 151.116 51.0019C150.718 51.0019 150.321 50.975 149.93 50.9211C149.539 50.8671 149.16 50.7929 148.795 50.7076C148.428 50.6177 148.096 50.5098 147.795 50.3885C147.493 50.2648 147.23 50.1412 147.013 50.0176C146.941 49.9794 146.92 49.93 146.947 49.876L147.546 47.9073C147.574 47.8264 147.63 47.8039 147.714 47.8467C148.151 48.1185 148.685 48.3501 149.31 48.5344C149.937 48.7186 150.603 48.8108 151.303 48.8108C152.14 48.8108 152.789 48.6378 153.251 48.2983C153.713 47.9568 153.94 47.5118 153.94 46.9657C153.94 46.46 153.735 46.0398 153.323 45.705C152.912 45.3701 152.245 45.0599 151.321 44.7746C150.703 44.5812 150.143 44.3588 149.644 44.1071C149.141 43.8509 148.71 43.561 148.35 43.2239C147.994 42.8912 147.716 42.5137 147.515 42.098C147.317 41.6799 147.218 41.2058 147.218 40.6708C147.218 40.0978 147.338 39.572 147.578 39.0865C147.817 38.601 148.164 38.1785 148.61 37.8257C149.058 37.4684 149.591 37.1943 150.218 36.9942C150.843 36.7941 151.547 36.6953 152.332 36.6953C153.171 36.6953 153.89 36.7694 154.487 36.9133C155.088 37.0549 155.585 37.2301 155.983 37.4346C156.051 37.4617 156.073 37.5111 156.047 37.5785L155.426 39.4641C155.413 39.5045 155.386 39.5337 155.343 39.5471C155.305 39.5584 155.268 39.5539 155.238 39.5248C155.008 39.4033 154.635 39.2596 154.117 39.0955C153.601 38.9314 152.993 38.8482 152.292 38.8482C151.851 38.8482 151.479 38.8954 151.177 38.9898C150.876 39.0887 150.631 39.2146 150.448 39.3719C150.26 39.5292 150.12 39.7068 150.035 39.9045C149.942 40.1022 149.899 40.2977 149.899 40.4888C149.899 40.9922 150.119 41.4013 150.557 41.7069C151 42.0148 151.708 42.3182 152.683 42.6193C154.004 43.0441 154.995 43.5722 155.655 44.2081C156.315 44.8442 156.643 45.7094 156.643 46.8016C156.643 47.332 156.537 47.8535 156.324 48.359Z" fill="white"/>
<path d="M94.4612 48.524H88.0378V37.0467C88.0378 36.9748 87.997 36.9434 87.9156 36.9434H85.5022C85.4186 36.9434 85.3779 36.9748 85.3779 37.0467V50.632C85.3779 50.7174 85.4186 50.7578 85.5022 50.7578H94.4612V48.524Z" fill="white"/>
</svg>
