<svg width="145" height="48" viewBox="0 0 145 48" fill="none" xmlns="http://www.w3.org/2000/svg">
<path d="M25.0496 11.4928L25.0479 11.472L2.94673 11.4704L29.1933 7.6272L4.35 7.656L32.8827 3.76001L32.8699 3.74561L5.70173 3.84L37.2296 0.0095993L37.2182 0L7.17267 0.0127991L5.29411 3.84L5.28123 3.8384L3.45906 7.7744H3.47517L1.68844 11.6528L1.71744 11.6512L0 15.4399L25.0496 11.4928Z" fill="#C22649"/>
<path d="M44.1147 9.76628C37.253 16.5679 27.6878 27.9663 19.5839 44.8015C28.221 25.6223 37.3158 12.7855 42.5664 6.35029L42.5374 6.32948C35.658 12.7263 24.335 25.2335 14.9922 44.8543C25.263 21.8895 36.4152 7.90868 40.9795 2.84468H40.9392C34.7236 8.05748 20.6375 21.6271 9.62725 45.1407C23.2009 14.4751 38.3517 0.628682 38.8286 0.292682L38.848 0.238281L38.3372 0.58868C33.4845 4.36148 16.5969 18.8815 4.18652 46.7087L8.88775 46.7487L8.91675 46.7503L14.0835 46.7983H14.1432L18.6172 46.8383H18.68L24.9956 46.8975C30.09 28.6559 38.8625 17.0415 44.097 9.79669L44.1147 9.76628Z" fill="#C22649"/>
<path d="M58.2102 26.3641C58.0138 26.8309 57.7109 27.2437 57.2974 27.6047C56.8838 27.9615 56.3532 28.2519 55.7057 28.4739C55.058 28.6938 54.2894 28.8059 53.4016 28.8059C53.0339 28.8059 52.6662 28.7809 52.307 28.729C51.9435 28.6772 51.5947 28.6129 51.2584 28.5299C50.922 28.449 50.6129 28.3494 50.333 28.2374C50.0552 28.1233 49.8149 28.0113 49.6103 27.8972C49.5455 27.8599 49.5288 27.8142 49.5518 27.7644L50.1074 25.9492C50.1304 25.8724 50.1805 25.8539 50.2578 25.8912C50.6651 26.1443 51.1561 26.3558 51.7368 26.526C52.3133 26.696 52.9253 26.7811 53.5729 26.7811C54.3479 26.7811 54.9495 26.6234 55.3735 26.3082C55.7996 25.9928 56.0085 25.5821 56.0085 25.0779C56.0085 24.6113 55.8227 24.2233 55.4383 23.9142C55.058 23.605 54.4419 23.3167 53.5917 23.0533C53.0193 22.8748 52.5013 22.6736 52.0396 22.4371C51.5759 22.2069 51.177 21.9351 50.8489 21.626C50.5189 21.3169 50.262 20.9684 50.0781 20.5847C49.8923 20.2009 49.8003 19.7631 49.8003 19.2694C49.8003 18.7404 49.9132 18.2509 50.1325 17.8027C50.356 17.3546 50.6735 16.9668 51.0871 16.6389C51.4986 16.3112 51.9957 16.0561 52.5722 15.8734C53.1509 15.693 53.8005 15.5996 54.5254 15.5996C55.2984 15.5996 55.9646 15.666 56.5161 15.7988C57.0676 15.9295 57.5292 16.0912 57.8969 16.2822C57.9596 16.307 57.9804 16.3485 57.9533 16.4128L57.383 18.1533C57.3705 18.1906 57.3433 18.2177 57.3058 18.2301C57.2681 18.2425 57.2368 18.2364 57.2096 18.2114C56.9945 18.0952 56.6498 17.9646 56.1715 17.8111C55.6972 17.6617 55.1333 17.587 54.4878 17.587C54.0805 17.587 53.7379 17.6306 53.4601 17.7198C53.1781 17.8048 52.9525 17.923 52.7833 18.0682C52.612 18.2134 52.4845 18.3774 52.401 18.5599C52.3196 18.7446 52.2778 18.923 52.2778 19.0993C52.2778 19.5661 52.4804 19.9416 52.8877 20.2257C53.293 20.5078 53.9468 20.79 54.8492 21.068C56.0692 21.458 56.984 21.9476 57.594 22.5326C58.2019 23.1217 58.5048 23.9184 58.5048 24.9265C58.5048 25.4181 58.4086 25.8995 58.2102 26.3641Z" fill="#C22649"/>
<path d="M65.9547 17.8519V28.4649C65.9547 28.5396 65.9172 28.5769 65.8398 28.5769H63.6109C63.5358 28.5769 63.4982 28.5396 63.4982 28.4649V17.8519H59.4792C59.4018 17.8519 59.3643 17.8124 59.3643 17.7378V15.9205C59.3643 15.8583 59.4018 15.8271 59.4792 15.8271H69.9947C70.0698 15.8271 70.1095 15.8583 70.1095 15.9205V17.7378C70.1095 17.8124 70.0698 17.8519 69.9947 17.8519H65.9547Z" fill="#C22649"/>
<path d="M73.7082 24.0563C73.8982 24.6122 74.1677 25.0976 74.5187 25.5125C74.8654 25.9295 75.2958 26.2573 75.8033 26.4959C76.3131 26.7385 76.8833 26.8568 77.5183 26.8568C78.168 26.8568 78.7487 26.7385 79.2605 26.4959C79.7764 26.2573 80.2109 25.9295 80.5681 25.5125C80.9233 25.0976 81.1948 24.6018 81.387 24.0272C81.5771 23.4546 81.6732 22.8343 81.6732 22.1643C81.6732 21.5709 81.5834 20.9964 81.4057 20.4425C81.2282 19.8885 80.9629 19.3969 80.614 18.9675C80.2652 18.5381 79.8329 18.1958 79.319 17.9365C78.803 17.6772 78.2139 17.5485 77.556 17.5485C76.8833 17.5485 76.29 17.6751 75.7741 17.9262C75.2623 18.1813 74.8278 18.5173 74.479 18.9488C74.1281 19.3783 73.8649 19.8782 73.6894 20.4529C73.5098 21.0254 73.422 21.6353 73.422 22.2783C73.422 22.9091 73.5181 23.5023 73.7082 24.0563ZM83.7474 24.8694C83.4048 25.7034 82.9264 26.4087 82.3186 26.9895C81.7087 27.5703 80.9901 28.0185 80.1566 28.3338C79.3252 28.6471 78.427 28.8047 77.462 28.8047C76.4718 28.8047 75.5694 28.6409 74.7569 28.313C73.9421 27.9853 73.2486 27.5352 72.67 26.9605C72.0914 26.3858 71.6443 25.7054 71.329 24.9171C71.0094 24.1309 70.8506 23.2741 70.8506 22.3531C70.8506 21.3573 71.0198 20.4467 71.354 19.6209C71.6904 18.7953 72.1603 18.0817 72.7556 17.4822C73.3552 16.8847 74.0675 16.4201 74.8989 16.0922C75.7324 15.7645 76.6348 15.6006 77.6145 15.6006C78.6296 15.6006 79.5466 15.7645 80.3675 16.0922C81.1864 16.4201 81.8821 16.8723 82.4628 17.4449C83.0393 18.0194 83.4842 18.702 83.7934 19.4985C84.1067 20.291 84.2633 21.1499 84.2633 22.071C84.2633 23.1041 84.0899 24.0355 83.7474 24.8694Z" fill="#C22649"/>
<path d="M95.4362 15.8173C96.0399 15.9625 96.4744 16.1036 96.7417 16.2448C96.8044 16.2696 96.8233 16.3132 96.7981 16.3754L96.2844 18.0972C96.2592 18.1865 96.205 18.2051 96.1319 18.1553C95.7871 18.0038 95.3735 17.8732 94.8827 17.7673C94.396 17.6596 93.8591 17.6076 93.2721 17.6076C92.5118 17.6076 91.8203 17.7134 91.2062 17.9272C90.59 18.1428 90.0614 18.4478 89.6249 18.8441C89.1883 19.2424 88.852 19.732 88.616 20.3107C88.3799 20.8915 88.265 21.5408 88.265 22.2587C88.265 22.9018 88.3716 23.4991 88.5888 24.049C88.8019 24.5965 89.1174 25.0738 89.5309 25.4761C89.9424 25.8806 90.4584 26.194 91.0726 26.4221C91.6887 26.6483 92.3969 26.7623 93.199 26.7623C93.7422 26.7623 94.2811 26.7146 94.8074 26.6192C95.3317 26.5259 95.7809 26.3972 96.1527 26.2333C96.2258 26.194 96.2781 26.2188 96.3031 26.3101L96.723 28.0111C96.746 28.0361 96.7293 28.0693 96.6625 28.1066C96.347 28.2704 95.8561 28.4281 95.1877 28.5775C94.5213 28.731 93.7359 28.8058 92.8355 28.8058C91.7431 28.8058 90.7591 28.6543 89.8839 28.3514C89.0066 28.0506 88.2567 27.615 87.6343 27.0466C87.0117 26.4781 86.5334 25.7977 86.1971 25.0012C85.8608 24.2087 85.6895 23.3186 85.6895 22.3354C85.6895 21.3666 85.8691 20.4704 86.2263 19.6489C86.5793 18.8296 87.0848 18.12 87.7387 17.5205C88.3946 16.921 89.18 16.4521 90.1012 16.1119C91.0245 15.7697 92.0481 15.6016 93.1781 15.6016C94.0805 15.6016 94.8326 15.6721 95.4362 15.8173Z" fill="#C22649"/>
<path d="M106.819 28.7684C106.792 28.7684 106.761 28.7498 106.721 28.7103L102.493 22.7524C102.292 22.9661 102.092 23.1735 101.891 23.3769C101.695 23.5781 101.503 23.7855 101.315 23.9992V28.4656C101.315 28.5403 101.275 28.5776 101.198 28.5776H98.9877C98.9126 28.5776 98.875 28.5403 98.875 28.4656V15.9212C98.875 15.8589 98.9126 15.8278 98.9877 15.8278H101.198C101.275 15.8278 101.315 15.8589 101.315 15.9212L101.369 21.4082C101.469 21.2443 101.561 21.1219 101.637 21.0389C101.714 20.9581 101.795 20.8647 101.883 20.7651L102.169 20.4227L106.228 15.7697C106.253 15.7427 106.284 15.7324 106.322 15.7324L108.992 15.8278C109.042 15.8278 109.075 15.8464 109.094 15.8839C109.115 15.9212 109.104 15.9605 109.067 15.9979L104.266 21.2567C105.129 22.4413 105.996 23.6278 106.865 24.8145C107.734 25.999 108.601 27.1898 109.466 28.3888C109.493 28.4282 109.495 28.4697 109.476 28.5112C109.457 28.5568 109.422 28.5776 109.372 28.5776L106.819 28.7684Z" fill="#C22649"/>
<path d="M58.8113 46.8524C58.7341 46.8524 58.6965 46.8151 58.6965 46.7383V41.2327H52.6011V46.7383C52.6011 46.8151 52.5635 46.8524 52.4862 46.8524H50.2574C50.1801 46.8524 50.1445 46.8151 50.1445 46.7383V34.196C50.1445 34.1317 50.1801 34.1006 50.2574 34.1006H52.4862C52.5635 34.1006 52.6011 34.1317 52.6011 34.196V39.1353H58.6965V34.196C58.6965 34.1317 58.7341 34.1006 58.8113 34.1006H61.0402C61.1175 34.1006 61.1551 34.1317 61.1551 34.196V46.7383C61.1551 46.8151 61.1175 46.8524 61.0402 46.8524H58.8113Z" fill="#C22649"/>
<path d="M66.1652 42.3308C66.3573 42.8867 66.6247 43.3721 66.9736 43.7891C67.3245 44.2041 67.7527 44.5318 68.2603 44.7704C68.768 45.011 69.3402 45.1313 69.9753 45.1313C70.6208 45.1313 71.2036 45.011 71.7174 44.7704C72.2333 44.5318 72.6658 44.2041 73.023 43.7891C73.3781 43.3721 73.6538 42.8764 73.8439 42.3038C74.0319 41.7292 74.128 41.1069 74.128 40.4388C74.128 39.8476 74.0403 39.2729 73.8606 38.717C73.6831 38.161 73.4199 37.6715 73.0711 37.242C72.7222 36.8147 72.2898 36.4683 71.7759 36.211C71.26 35.9517 70.673 35.8232 70.0129 35.8232C69.3402 35.8232 68.747 35.9496 68.2331 36.2027C67.7192 36.4517 67.2848 36.794 66.936 37.2234C66.5872 37.6528 66.3239 38.1527 66.1464 38.7274C65.9667 39.2999 65.8789 39.9077 65.8789 40.553C65.8789 41.1836 65.973 41.7768 66.1652 42.3308ZM76.2044 43.144C75.8639 43.9758 75.3855 44.6832 74.7755 45.264C74.1656 45.845 73.4449 46.291 72.6156 46.6062C71.7821 46.9216 70.8818 47.0793 69.9168 47.0793C68.9267 47.0793 68.0242 46.9154 67.2138 46.5876C66.3991 46.2598 65.7056 45.8097 65.127 45.2372C64.5483 44.6604 64.1014 43.98 63.7838 43.1916C63.4642 42.4034 63.3076 41.5487 63.3076 40.6276C63.3076 39.6318 63.4746 38.7212 63.8131 37.8934C64.1493 37.0698 64.6152 36.3562 65.2105 35.7567C65.8079 35.1572 66.5244 34.6925 67.3558 34.3668C68.1872 34.039 69.0917 33.873 70.0693 33.873C71.0866 33.873 72.0036 34.039 72.8224 34.3668C73.6433 34.6925 74.341 35.1448 74.9197 35.7194C75.4962 36.292 75.9411 36.9765 76.2524 37.771C76.5636 38.5655 76.7204 39.4244 76.7204 40.3434C76.7204 41.3786 76.549 42.312 76.2044 43.144Z" fill="#C22649"/>
<path d="M97.2268 37.0317C96.3433 36.287 95.0503 35.9176 93.3499 35.9176C92.905 35.9176 92.531 35.9301 92.226 35.955C91.921 35.9799 91.6599 36.0172 91.4448 36.069V44.9769C91.6475 45.0039 91.8814 45.0184 92.1487 45.0246C92.4161 45.0329 92.7002 45.0371 93.0051 45.0371C93.9097 45.0371 94.7055 44.925 95.3969 44.703C96.0883 44.4852 96.667 44.1658 97.1308 43.751C97.5945 43.334 97.9475 42.8278 98.1877 42.2344C98.4301 41.6411 98.5512 40.9815 98.5512 40.2491C98.5512 38.851 98.1083 37.7784 97.2268 37.0317ZM100.588 42.9357C100.22 43.7675 99.7043 44.4812 99.0462 45.0744C98.359 45.703 97.465 46.1801 96.3579 46.5017C95.2549 46.8252 94.0037 46.9829 92.6062 46.9829C91.8438 46.9829 91.1815 46.9726 90.6155 46.9476C90.0515 46.9208 89.5398 46.8772 89.0823 46.8149C89.0175 46.8149 88.9883 46.7776 88.9883 46.7008V34.366C88.9883 34.2892 89.0175 34.2497 89.0823 34.2497C89.6776 34.1771 90.3252 34.1128 91.027 34.0631C91.7226 34.0133 92.4537 33.9863 93.2161 33.9863C95.8335 33.9863 97.7887 34.5236 99.0839 35.5961C99.7189 36.123 100.22 36.7703 100.588 37.5358C100.958 38.2971 101.139 39.1704 101.139 40.1559C101.139 41.1765 100.958 42.1037 100.588 42.9357Z" fill="#C22649"/>
<path d="M103.313 46.8524C103.236 46.8524 103.198 46.8151 103.198 46.7383V34.196C103.198 34.1317 103.236 34.1006 103.313 34.1006H105.542C105.617 34.1006 105.657 34.1317 105.657 34.196V46.7383C105.657 46.8151 105.617 46.8524 105.542 46.8524H103.313Z" fill="#C22649"/>
<path d="M117.066 46.8524C117.041 46.8524 117.009 46.8316 116.972 46.7963L113.068 40.9879C112.623 40.3178 112.19 39.6436 111.77 38.9631C111.353 38.2827 110.977 37.6064 110.647 36.9405C110.686 37.708 110.711 38.4736 110.724 39.2369C110.734 40.0004 110.743 40.8239 110.743 41.7056V46.7383C110.743 46.8151 110.705 46.8524 110.626 46.8524H108.553C108.474 46.8524 108.437 46.8151 108.437 46.7383V34.196C108.437 34.1317 108.474 34.1006 108.553 34.1006H111.2C111.238 34.1254 111.263 34.1441 111.275 34.1566L115.198 39.8157C115.643 40.4589 116.04 41.0812 116.391 41.687C116.742 42.2948 117.066 42.8923 117.371 43.4855C117.308 42.7657 117.27 42.0562 117.258 41.3551C117.245 40.6559 117.237 39.8967 117.237 39.0772V34.196C117.237 34.1317 117.277 34.1006 117.354 34.1006H119.43C119.506 34.1006 119.543 34.1317 119.543 34.196V46.7383C119.543 46.8151 119.506 46.8524 119.43 46.8524H117.066Z" fill="#C22649"/>
<path d="M133.678 46.3609C133.55 46.3857 133.438 46.3982 133.338 46.3982C133.247 46.4107 133.164 46.4168 133.086 46.4168C133.014 46.4168 132.923 46.4355 132.822 46.4728C132.338 46.6118 131.779 46.7321 131.145 46.8317C130.511 46.9354 129.83 46.9832 129.107 46.9832C126.757 46.9832 124.908 46.3732 123.563 45.1473C122.968 44.5934 122.503 43.9213 122.173 43.1246C121.842 42.3301 121.68 41.4775 121.68 40.571C121.68 39.6499 121.85 38.789 122.202 37.9882C122.551 37.1875 123.058 36.4883 123.727 35.8888C124.392 35.2873 125.206 34.8205 126.164 34.4803C127.121 34.138 128.211 33.9658 129.434 33.9658C130.308 33.9658 131.077 34.0447 131.744 34.1961C132.412 34.3475 132.909 34.4906 133.241 34.6317C133.316 34.6565 133.341 34.6981 133.316 34.7624L132.784 36.5029C132.771 36.5775 132.725 36.6045 132.65 36.5775C132.243 36.4157 131.785 36.2726 131.268 36.1523C130.753 36.032 130.122 35.9739 129.373 35.9739C128.585 35.9739 127.877 36.0818 127.248 36.2954C126.622 36.5091 126.085 36.814 125.639 37.204C125.195 37.594 124.853 38.0629 124.61 38.6105C124.369 39.1603 124.249 39.7681 124.249 40.4403C124.249 41.1062 124.361 41.7202 124.593 42.2741C124.821 42.8279 125.151 43.3072 125.584 43.7117C126.014 44.1163 126.536 44.4295 127.156 44.6577C127.768 44.8838 128.464 44.9959 129.243 44.9959C129.736 44.9959 130.165 44.9668 130.526 44.9045C130.89 44.8402 131.169 44.7718 131.374 44.693V41.7265H128.858C128.783 41.7265 128.744 41.687 128.744 41.6103V39.8905C128.744 39.8138 128.783 39.7765 128.858 39.7765H133.662C133.736 39.7765 133.774 39.8138 133.774 39.8905V46.2675L133.678 46.3609Z" fill="#C22649"/>
<path d="M144.375 44.6386C144.177 45.1054 143.873 45.5202 143.46 45.8771C143.048 46.2381 142.518 46.5285 141.87 46.7483C141.224 46.9683 140.454 47.0782 139.565 47.0782C139.197 47.0782 138.831 47.0533 138.47 47.0035C138.109 46.9537 137.758 46.8852 137.421 46.8065C137.083 46.7235 136.776 46.6239 136.498 46.5119C136.219 46.3978 135.976 46.2837 135.775 46.1695C135.709 46.1343 135.689 46.0887 135.715 46.0389L136.268 44.2216C136.294 44.1469 136.346 44.1262 136.423 44.1657C136.827 44.4166 137.32 44.6303 137.897 44.8005C138.476 44.9705 139.091 45.0556 139.737 45.0556C140.511 45.0556 141.11 44.8959 141.537 44.5825C141.963 44.2673 142.173 43.8565 142.173 43.3524C142.173 42.8856 141.984 42.4978 141.603 42.1887C141.224 41.8796 140.607 41.5932 139.754 41.3298C139.184 41.1514 138.667 40.9461 138.205 40.7137C137.741 40.4772 137.342 40.2096 137.01 39.8985C136.682 39.5914 136.425 39.2429 136.239 38.8591C136.057 38.4732 135.965 38.0356 135.965 37.5418C135.965 37.0128 136.076 36.5274 136.297 36.0794C136.518 35.6312 136.839 35.2412 137.251 34.9155C137.664 34.5857 138.157 34.3326 138.736 34.148C139.313 33.9633 139.963 33.8721 140.688 33.8721C141.463 33.8721 142.127 33.9405 142.678 34.0733C143.233 34.204 143.692 34.3658 144.06 34.5545C144.122 34.5795 144.143 34.6251 144.119 34.6874L143.546 36.4278C143.534 36.4652 143.509 36.4922 143.469 36.5045C143.434 36.515 143.4 36.5108 143.372 36.4839C143.159 36.3718 142.815 36.2391 142.336 36.0876C141.86 35.9362 141.299 35.8594 140.651 35.8594C140.244 35.8594 139.901 35.903 139.621 35.9901C139.343 36.0814 139.118 36.1976 138.948 36.3428C138.774 36.488 138.645 36.6519 138.567 36.8344C138.481 37.0169 138.441 37.1974 138.441 37.3738C138.441 37.8384 138.644 38.2161 139.049 38.4982C139.458 38.7823 140.112 39.0624 141.012 39.3404C142.233 39.7325 143.147 40.2199 143.757 40.807C144.366 41.3941 144.67 42.1927 144.67 43.201C144.67 43.6906 144.572 44.1719 144.375 44.6386Z" fill="#C22649"/>
<path d="M87.2415 44.7914H81.3091V34.197C81.3091 34.1306 81.2714 34.1016 81.1962 34.1016H78.9673C78.8901 34.1016 78.8525 34.1306 78.8525 34.197V46.7372C78.8525 46.816 78.8901 46.8534 78.9673 46.8534H87.2415V44.7914Z" fill="#C22649"/>
</svg>
