<svg width="31" height="31" viewBox="0 0 31 31" fill="none" xmlns="http://www.w3.org/2000/svg">
<path d="M11.6257 16.7918C14.4791 16.7918 16.7923 14.4786 16.7923 11.6252C16.7923 8.77169 14.4791 6.4585 11.6257 6.4585C8.77218 6.4585 6.45898 8.77169 6.45898 11.6252C6.45898 14.4786 8.77218 16.7918 11.6257 16.7918Z" fill="#A5250A"/>
<path d="M11.6243 19.375C8.1756 19.375 1.29102 21.1059 1.29102 24.5417V25.8334C1.29102 26.5438 1.87227 27.125 2.58268 27.125H20.666C21.3764 27.125 21.9577 26.5438 21.9577 25.8334V24.5417C21.9577 21.1059 15.0731 19.375 11.6243 19.375ZM19.9814 10.0363C20.3948 11.0567 20.3948 12.1934 19.9814 13.2138C19.736 13.8209 19.8393 14.5055 20.3043 14.9705L20.3431 15.0092C21.0923 15.7584 22.371 15.6034 22.8618 14.6605C23.8435 12.7875 23.8435 10.5917 22.836 8.64129C22.3452 7.68545 21.0535 7.50462 20.2914 8.2667L20.2785 8.27962C19.8393 8.7317 19.736 9.4292 19.9814 10.0363ZM24.7735 3.73295C24.2568 4.24962 24.1793 5.05045 24.6056 5.64462C27.1502 9.18379 27.1373 13.9242 24.5668 17.5925C24.1535 18.1738 24.2439 18.9746 24.7477 19.4784L24.7864 19.5171C25.4193 20.15 26.4914 20.0984 27.0339 19.388C30.586 14.8155 30.5989 8.5767 27.0339 3.86212C26.4914 3.1517 25.4064 3.10004 24.7735 3.73295Z" fill="#A5250A"/>
</svg>
