<svg width="25" height="28" viewBox="0 0 25 28" fill="none" xmlns="http://www.w3.org/2000/svg">
<path d="M17.1053 0H2.63158C1.18421 0 0 1.14545 0 2.54545V19.0909C0 19.7909 0.592105 20.3636 1.31579 20.3636C2.03947 20.3636 2.63158 19.7909 2.63158 19.0909V3.81818C2.63158 3.11818 3.22368 2.54545 3.94737 2.54545H17.1053C17.8289 2.54545 18.4211 1.97273 18.4211 1.27273C18.4211 0.572727 17.8289 0 17.1053 0ZM22.3684 5.09091H7.89474C6.44737 5.09091 5.26316 6.23636 5.26316 7.63636V25.4545C5.26316 26.8545 6.44737 28 7.89474 28H22.3684C23.8158 28 25 26.8545 25 25.4545V7.63636C25 6.23636 23.8158 5.09091 22.3684 5.09091ZM21.0526 25.4545H9.21053C8.48684 25.4545 7.89474 24.8818 7.89474 24.1818V8.90909C7.89474 8.20909 8.48684 7.63636 9.21053 7.63636H21.0526C21.7763 7.63636 22.3684 8.20909 22.3684 8.90909V24.1818C22.3684 24.8818 21.7763 25.4545 21.0526 25.4545Z" fill="#C7C7D2"/>
</svg>
