<svg width="97" height="32" viewBox="0 0 97 32" fill="none" xmlns="http://www.w3.org/2000/svg">
<g clip-path="url(#clip0)">
<path d="M16.6997 7.66187L16.6986 7.648L1.96448 7.64694L19.4622 5.0848L2.9 5.104L21.9218 2.50667L21.9133 2.49707L3.80115 2.56L24.8197 0.00639954L24.8122 0L4.78178 0.00853272L3.5294 2.56L3.52082 2.55894L2.30604 5.18294H2.31678L1.12563 7.76854L1.14496 7.76746L0 10.2933L16.6997 7.66187Z" fill="white"/>
<path d="M29.4079 6.5102C24.8334 11.0446 18.4566 18.6436 13.054 29.867C18.8121 17.0809 24.8752 8.52301 28.3756 4.23287L28.3563 4.219C23.77 8.48357 16.2214 16.8216 9.99286 29.9022C16.8401 14.5924 24.2749 5.2718 27.3177 1.8958H27.2909C23.1471 5.371 13.7564 14.4174 6.41621 30.0932C15.4653 9.64941 25.5659 0.41847 25.8838 0.19447L25.8967 0.158203L25.5562 0.391802C22.3211 2.907 11.0626 12.587 2.78906 31.1384L5.92321 31.1652L5.94255 31.1662L9.38708 31.1982H9.42687L12.4095 31.2249H12.4514L16.6618 31.2644C20.058 19.1033 25.9064 11.3604 29.396 6.53047L29.4079 6.5102Z" fill="white"/>
<path d="M38.8061 17.5767C38.6752 17.8879 38.4733 18.1631 38.1976 18.4038C37.9219 18.6417 37.5682 18.8353 37.1365 18.9833C36.7047 19.1298 36.1923 19.2046 35.6004 19.2046C35.3553 19.2046 35.1102 19.1879 34.8707 19.1534C34.6284 19.1188 34.3958 19.0759 34.1716 19.0206C33.9474 18.9666 33.7413 18.9002 33.5547 18.8256C33.3695 18.7495 33.2093 18.6749 33.0729 18.5988C33.0297 18.5739 33.0186 18.5434 33.0339 18.5102L33.4043 17.3002C33.4196 17.249 33.453 17.2366 33.5045 17.2614C33.7761 17.4302 34.1034 17.5712 34.4905 17.6846C34.8749 17.798 35.2829 17.8547 35.7146 17.8547C36.2313 17.8547 36.6324 17.7496 36.915 17.5394C37.1991 17.3292 37.3383 17.0554 37.3383 16.7193C37.3383 16.4082 37.2145 16.1495 36.9582 15.9434C36.7047 15.7374 36.2939 15.5451 35.7272 15.3695C35.3456 15.2506 35.0002 15.1164 34.6924 14.9587C34.3832 14.8053 34.1173 14.6241 33.8986 14.418C33.6786 14.2119 33.5074 13.9796 33.3848 13.7238C33.2609 13.4679 33.1996 13.1761 33.1996 12.847C33.1996 12.4942 33.2748 12.1679 33.421 11.8691C33.57 11.5704 33.7817 11.3118 34.0574 11.0933C34.3318 10.8748 34.6632 10.7047 35.0475 10.583C35.4333 10.4626 35.8664 10.4004 36.3496 10.4004C36.8649 10.4004 37.3091 10.4446 37.6768 10.5332C38.0444 10.6203 38.3521 10.7282 38.5973 10.8554C38.6391 10.872 38.6529 10.8997 38.6349 10.9426L38.2547 12.1029C38.2464 12.1278 38.2282 12.1458 38.2032 12.1541C38.1781 12.1623 38.1572 12.1582 38.1391 12.1416C37.9957 12.0642 37.7659 11.977 37.447 11.8747C37.1308 11.7751 36.7549 11.7254 36.3246 11.7254C36.053 11.7254 35.8246 11.7544 35.6394 11.8138C35.4514 11.8706 35.301 11.9494 35.1882 12.0462C35.074 12.143 34.989 12.2522 34.9334 12.3739C34.8791 12.497 34.8512 12.616 34.8512 12.7335C34.8512 13.0447 34.9863 13.295 35.2578 13.4845C35.528 13.6726 35.9639 13.8606 36.5655 14.046C37.3788 14.306 37.9887 14.6324 38.3953 15.0224C38.8006 15.4151 39.0025 15.9462 39.0025 16.6183C39.0025 16.9461 38.9384 17.267 38.8061 17.5767Z" fill="white"/>
<path d="M43.9679 11.9006V18.976C43.9679 19.0257 43.9428 19.0506 43.8913 19.0506H42.4053C42.3552 19.0506 42.3302 19.0257 42.3302 18.976V11.9006H39.6508C39.5993 11.9006 39.5742 11.8743 39.5742 11.8245V10.613C39.5742 10.5716 39.5993 10.5508 39.6508 10.5508H46.6612C46.7113 10.5508 46.7377 10.5716 46.7377 10.613V11.8245C46.7377 11.8743 46.7113 11.9006 46.6612 11.9006H43.9679Z" fill="white"/>
<path d="M49.1394 16.0375C49.2661 16.4082 49.4458 16.7318 49.6798 17.0083C49.9109 17.2863 50.1979 17.5049 50.5362 17.6639C50.8761 17.8257 51.2562 17.9046 51.6795 17.9046C52.1127 17.9046 52.4998 17.8257 52.841 17.6639C53.1849 17.5049 53.4746 17.2863 53.7127 17.0083C53.9495 16.7318 54.1305 16.4012 54.2587 16.0182C54.3854 15.6364 54.4494 15.2229 54.4494 14.7762C54.4494 14.3806 54.3896 13.9976 54.2711 13.6283C54.1528 13.259 53.9759 12.9313 53.7433 12.645C53.5108 12.3587 53.2226 12.1306 52.88 11.9577C52.536 11.7848 52.1433 11.699 51.7046 11.699C51.2562 11.699 50.8607 11.7834 50.5167 11.9508C50.1755 12.1209 49.8859 12.3449 49.6533 12.6326C49.4194 12.9189 49.2439 13.2522 49.1269 13.6353C49.0072 14.017 48.9487 14.4235 48.9487 14.8522C48.9487 15.2727 49.0127 15.6682 49.1394 16.0375ZM55.8322 16.5796C55.6039 17.1356 55.2849 17.6058 54.8797 17.993C54.4731 18.3802 53.994 18.679 53.4384 18.8892C52.8841 19.0981 52.2853 19.2031 51.642 19.2031C50.9818 19.2031 50.3802 19.0939 49.8386 18.8754C49.2954 18.6569 48.8331 18.3568 48.4473 17.9737C48.0616 17.5906 47.7635 17.137 47.5533 16.6114C47.3402 16.0873 47.2344 15.5161 47.2344 14.9021C47.2344 14.2382 47.3472 13.6311 47.57 13.0806C47.7942 12.5302 48.1075 12.0545 48.5044 11.6548C48.9041 11.2565 49.379 10.9467 49.9332 10.7282C50.4889 10.5097 51.0905 10.4004 51.7436 10.4004C52.4204 10.4004 53.0317 10.5097 53.579 10.7282C54.1249 10.9467 54.5887 11.2482 54.9758 11.6299C55.3602 12.013 55.6568 12.468 55.8629 12.999C56.0718 13.5274 56.1762 14.0999 56.1762 14.714C56.1762 15.4027 56.0606 16.0237 55.8322 16.5796Z" fill="white"/>
<path d="M63.6229 10.5442C64.0253 10.641 64.315 10.7351 64.4932 10.8292C64.535 10.8458 64.5476 10.8748 64.5308 10.9163L64.1883 12.0641C64.1715 12.1237 64.1354 12.1361 64.0866 12.1029C63.8568 12.0019 63.5811 11.9148 63.2538 11.8442C62.9294 11.7724 62.5714 11.7378 62.1801 11.7378C61.6733 11.7378 61.2122 11.8083 60.8028 11.9508C60.392 12.0946 60.0397 12.2979 59.7486 12.5621C59.4576 12.8276 59.2334 13.154 59.0761 13.5398C58.9186 13.927 58.842 14.3599 58.842 14.8385C58.842 15.2672 58.9131 15.6654 59.0579 16.032C59.2 16.397 59.4103 16.7152 59.6859 16.9834C59.9603 17.2531 60.3043 17.462 60.7138 17.6141C61.1245 17.7649 61.5966 17.8409 62.1314 17.8409C62.4935 17.8409 62.8527 17.8091 63.2036 17.7455C63.5532 17.6833 63.8526 17.5975 64.1005 17.4882C64.1492 17.462 64.1841 17.4785 64.2008 17.5394L64.4807 18.6734C64.496 18.6901 64.4849 18.7122 64.4403 18.7371C64.23 18.8463 63.9028 18.9514 63.4572 19.051C63.0129 19.1533 62.4893 19.2032 61.8891 19.2032C61.1608 19.2032 60.5048 19.1022 59.9213 18.9003C59.3364 18.6997 58.8365 18.4093 58.4215 18.0304C58.0065 17.6514 57.6876 17.1978 57.4634 16.6668C57.2392 16.1385 57.125 15.5451 57.125 14.8896C57.125 14.2437 57.2448 13.6463 57.4829 13.0986C57.7182 12.5524 58.0553 12.0793 58.4911 11.6797C58.9284 11.28 59.452 10.9674 60.0662 10.7406C60.6817 10.5125 61.3641 10.4004 62.1174 10.4004C62.719 10.4004 63.2204 10.4474 63.6229 10.5442Z" fill="white"/>
<path d="M71.214 19.1789C71.1959 19.1789 71.175 19.1665 71.1485 19.1402L68.33 15.1683C68.1962 15.3108 68.0625 15.449 67.9289 15.5846C67.798 15.7188 67.6698 15.857 67.5446 15.9995V18.9771C67.5446 19.0268 67.518 19.0517 67.4665 19.0517H65.9931C65.943 19.0517 65.918 19.0268 65.918 18.9771V10.6141C65.918 10.5726 65.943 10.5519 65.9931 10.5519H67.4665C67.518 10.5519 67.5446 10.5726 67.5446 10.6141L67.5807 14.2721C67.6476 14.1628 67.7088 14.0812 67.759 14.026C67.8105 13.972 67.8648 13.9098 67.9233 13.8434L68.1141 13.6152L70.8199 10.5132C70.8366 10.4952 70.8575 10.4883 70.8825 10.4883L72.6623 10.5519C72.6958 10.5519 72.718 10.5643 72.7306 10.5892C72.7445 10.6141 72.7375 10.6404 72.7124 10.6652L69.5123 14.1712C70.0874 14.9608 70.6654 15.7519 71.2446 16.543C71.824 17.3327 72.4019 18.1265 72.9784 18.9259C72.9966 18.9521 72.9979 18.9798 72.9854 19.0075C72.9729 19.0379 72.9492 19.0517 72.9158 19.0517L71.214 19.1789Z" fill="white"/>
<path d="M39.2075 31.2356C39.1561 31.2356 39.131 31.2107 39.131 31.1595V27.4891H35.0674V31.1595C35.0674 31.2107 35.0423 31.2356 34.9908 31.2356H33.5049C33.4534 31.2356 33.4297 31.2107 33.4297 31.1595V22.798C33.4297 22.7551 33.4534 22.7344 33.5049 22.7344H34.9908C35.0423 22.7344 35.0674 22.7551 35.0674 22.798V26.0909H39.131V22.798C39.131 22.7551 39.1561 22.7344 39.2075 22.7344H40.6935C40.745 22.7344 40.7701 22.7551 40.7701 22.798V31.1595C40.7701 31.2107 40.745 31.2356 40.6935 31.2356H39.2075Z" fill="white"/>
<path d="M44.1082 28.2205C44.2363 28.5912 44.4145 28.9148 44.6471 29.1928C44.881 29.4694 45.1665 29.6879 45.5049 29.8469C45.8433 30.0073 46.2249 30.0876 46.6483 30.0876C47.0786 30.0876 47.4671 30.0073 47.8096 29.8469C48.1536 29.6879 48.4419 29.4694 48.68 29.1928C48.9168 28.9148 49.1006 28.5843 49.2273 28.2025C49.3527 27.8195 49.4167 27.4046 49.4167 26.9592C49.4167 26.5651 49.3582 26.182 49.2384 25.8113C49.1201 25.4407 48.9447 25.1144 48.7121 24.828C48.4795 24.5432 48.1912 24.3122 47.8486 24.1407C47.5047 23.9678 47.1134 23.8821 46.6733 23.8821C46.2249 23.8821 45.8294 23.9664 45.4868 24.1352C45.1442 24.3012 44.8546 24.5293 44.622 24.8156C44.3895 25.1019 44.214 25.4351 44.0956 25.8183C43.9758 26.1999 43.9173 26.6052 43.9173 27.0353C43.9173 27.4557 43.98 27.8512 44.1082 28.2205ZM50.801 28.7627C50.574 29.3172 50.2551 29.7888 49.8484 30.176C49.4418 30.5633 48.9613 30.8607 48.4085 31.0708C47.8528 31.2811 47.2526 31.3862 46.6093 31.3862C45.9492 31.3862 45.3475 31.2769 44.8072 31.0584C44.2641 30.8399 43.8017 30.5398 43.416 30.1581C43.0303 29.7736 42.7323 29.32 42.5206 28.7944C42.3075 28.2689 42.2031 27.6992 42.2031 27.0851C42.2031 26.4212 42.3145 25.8141 42.5401 25.2623C42.7643 24.7132 43.0748 24.2375 43.4717 23.8378C43.87 23.4381 44.3477 23.1284 44.9019 22.9112C45.4562 22.6927 46.0592 22.582 46.7109 22.582C47.3891 22.582 48.0005 22.6927 48.5463 22.9112C49.0936 23.1284 49.5587 23.4299 49.9445 23.8129C50.3288 24.1947 50.6254 24.651 50.833 25.1807C51.0405 25.7104 51.145 26.2829 51.145 26.8956C51.145 27.5857 51.0307 28.208 50.801 28.7627Z" fill="white"/>
<path d="M64.8166 24.6884C64.2276 24.192 63.3655 23.9457 62.232 23.9457C61.9354 23.9457 61.686 23.954 61.4827 23.9707C61.2794 23.9872 61.1053 24.0121 60.9619 24.0467V29.9852C61.097 30.0032 61.253 30.0129 61.4312 30.0171C61.6094 30.0226 61.7988 30.0254 62.0021 30.0254C62.6052 30.0254 63.1357 29.9507 63.5966 29.8027C64.0576 29.6575 64.4434 29.4445 64.7525 29.168C65.0617 28.89 65.297 28.5525 65.4572 28.1569C65.6188 27.7614 65.6995 27.3216 65.6995 26.8334C65.6995 25.9013 65.4042 25.1863 64.8166 24.6884ZM67.0572 28.6244C66.8122 29.179 66.4682 29.6548 66.0295 30.0503C65.5714 30.4693 64.9754 30.7874 64.2373 31.0018C63.502 31.2175 62.6678 31.3226 61.7361 31.3226C61.2279 31.3226 60.7864 31.3157 60.4091 31.2991C60.033 31.2812 59.6919 31.2521 59.3869 31.2106C59.3437 31.2106 59.3242 31.1857 59.3242 31.1345V22.9113C59.3242 22.8601 59.3437 22.8338 59.3869 22.8338C59.7838 22.7854 60.2155 22.7425 60.6834 22.7094C61.1471 22.6762 61.6345 22.6582 62.1428 22.6582C63.8877 22.6582 65.1912 23.0164 66.0546 23.7314C66.478 24.0827 66.8122 24.5142 67.0572 25.0245C67.3037 25.532 67.4249 26.1143 67.4249 26.7712C67.4249 27.4516 67.3037 28.0698 67.0572 28.6244Z" fill="white"/>
<path d="M68.8774 31.2356C68.8258 31.2356 68.8008 31.2107 68.8008 31.1595V22.798C68.8008 22.7551 68.8258 22.7344 68.8774 22.7344H70.3632C70.4134 22.7344 70.4398 22.7551 70.4398 22.798V31.1595C70.4398 31.2107 70.4134 31.2356 70.3632 31.2356H68.8774Z" fill="white"/>
<path d="M78.0458 31.2356C78.0291 31.2356 78.0081 31.2217 77.9831 31.1982L75.3803 27.3259C75.0837 26.8792 74.7954 26.4297 74.5156 25.9761C74.237 25.5225 73.9863 25.0716 73.7663 24.6277C73.7928 25.1393 73.8095 25.6497 73.8179 26.1586C73.8248 26.6676 73.8304 27.2166 73.8304 27.8044V31.1595C73.8304 31.2107 73.8053 31.2356 73.7524 31.2356H72.3709C72.318 31.2356 72.293 31.2107 72.293 31.1595V22.798C72.293 22.7551 72.318 22.7344 72.3709 22.7344H74.1354C74.1604 22.7509 74.1772 22.7634 74.1855 22.7717L76.8008 26.5445C77.0974 26.9733 77.362 27.3881 77.5959 27.792C77.83 28.1972 78.0458 28.5955 78.2491 28.991C78.2073 28.5111 78.1822 28.0381 78.1739 27.5707C78.1656 27.1046 78.16 26.5985 78.16 26.0521V22.798C78.16 22.7551 78.1864 22.7344 78.238 22.7344H79.6222C79.6723 22.7344 79.6974 22.7551 79.6974 22.798V31.1595C79.6974 31.2107 79.6723 31.2356 79.6222 31.2356H78.0458Z" fill="white"/>
<path d="M89.1203 30.9079C89.0349 30.9245 88.96 30.9328 88.8931 30.9328C88.8327 30.9411 88.7771 30.9452 88.7256 30.9452C88.6772 30.9452 88.6168 30.9577 88.5491 30.9825C88.2269 31.0752 87.8539 31.1554 87.431 31.2218C87.0089 31.2909 86.5546 31.3228 86.0729 31.3228C84.506 31.3228 83.2735 30.9161 82.377 30.0989C81.9798 29.7296 81.6697 29.2815 81.4498 28.7504C81.229 28.2207 81.1211 27.6523 81.1211 27.048C81.1211 26.4339 81.2347 25.86 81.4691 25.3261C81.7019 24.7923 82.0402 24.3262 82.4857 23.9265C82.9296 23.5255 83.4717 23.2143 84.1105 22.9875C84.7485 22.7593 85.4751 22.6445 86.2904 22.6445C86.8736 22.6445 87.3859 22.6971 87.8306 22.7981C88.2761 22.899 88.6071 22.9944 88.8287 23.0885C88.8786 23.105 88.8955 23.1327 88.8786 23.1756L88.5242 24.3359C88.5153 24.3857 88.4847 24.4037 88.4347 24.3857C88.1633 24.2778 87.858 24.1824 87.5132 24.1022C87.17 24.022 86.7495 23.9833 86.2501 23.9833C85.7249 23.9833 85.2528 24.0552 84.8331 24.1976C84.4158 24.3401 84.0582 24.5433 83.7609 24.8033C83.4645 25.0633 83.2365 25.3759 83.0746 25.741C82.9143 26.1075 82.8337 26.5127 82.8337 26.9609C82.8337 27.4048 82.9086 27.8141 83.0633 28.1834C83.2155 28.5526 83.4355 28.8721 83.7239 29.1418C84.0106 29.4115 84.3586 29.6203 84.7719 29.7725C85.1803 29.9232 85.6443 29.9979 86.1631 29.9979C86.4917 29.9979 86.7777 29.9785 87.0186 29.937C87.2611 29.8941 87.4471 29.8485 87.5841 29.796V27.8183H85.9069C85.857 27.8183 85.8304 27.792 85.8304 27.7408V26.5943C85.8304 26.5432 85.857 26.5183 85.9069 26.5183H89.109C89.1589 26.5183 89.1839 26.5432 89.1839 26.5943V30.8456L89.1203 30.9079Z" fill="white"/>
<path d="M96.2493 29.7597C96.1172 30.0709 95.915 30.3475 95.6395 30.5854C95.3648 30.826 95.0112 31.0196 94.5794 31.1662C94.1484 31.3128 93.6353 31.3861 93.0424 31.3861C92.7975 31.3861 92.5534 31.3695 92.3126 31.3363C92.0717 31.3031 91.8381 31.2575 91.6134 31.205C91.3878 31.1496 91.1832 31.0832 90.9979 31.0086C90.8118 30.9325 90.6499 30.8564 90.5162 30.7803C90.4719 30.7568 90.459 30.7264 90.4759 30.6932L90.8449 29.4817C90.8618 29.432 90.8964 29.4181 90.948 29.4444C91.217 29.6117 91.5457 29.7542 91.9307 29.8676C92.3166 29.981 92.7266 30.0377 93.1576 30.0377C93.6732 30.0377 94.0727 29.9312 94.3571 29.7224C94.6414 29.5122 94.7816 29.2383 94.7816 28.9023C94.7816 28.5911 94.6551 28.3325 94.4014 28.1264C94.1484 27.9204 93.7376 27.7295 93.1689 27.5539C92.7887 27.4349 92.4439 27.298 92.1362 27.1431C91.8268 26.9855 91.561 26.8071 91.3395 26.5996C91.1204 26.3949 90.9496 26.1626 90.8255 25.9068C90.7039 25.6495 90.6427 25.3577 90.6427 25.0285C90.6427 24.6759 90.7168 24.3523 90.8642 24.0536C91.0116 23.7548 91.2251 23.4948 91.4998 23.2776C91.7753 23.0578 92.1039 22.8891 92.4898 22.766C92.8749 22.6428 93.3082 22.582 93.7916 22.582C94.3079 22.582 94.751 22.6276 95.1183 22.7162C95.4881 22.8033 95.7942 22.9112 96.0391 23.037C96.081 23.0536 96.0947 23.084 96.0785 23.1256L95.6967 24.2859C95.6886 24.3108 95.6717 24.3288 95.6452 24.337C95.6218 24.344 95.5992 24.3412 95.5807 24.3232C95.4389 24.2485 95.2093 24.16 94.8903 24.0591C94.573 23.9581 94.1984 23.9069 93.7666 23.9069C93.4951 23.9069 93.2664 23.936 93.0803 23.994C92.895 24.0549 92.7444 24.1324 92.6316 24.2292C92.5156 24.326 92.4294 24.4352 92.377 24.5569C92.3198 24.6786 92.2932 24.7989 92.2932 24.9165C92.2932 25.2263 92.4286 25.478 92.6984 25.6661C92.9715 25.8556 93.4073 26.0423 94.0075 26.2276C94.8211 26.489 95.4309 26.814 95.8377 27.2053C96.2437 27.5968 96.4459 28.1291 96.4459 28.8013C96.4459 29.1277 96.3806 29.4486 96.2493 29.7597Z" fill="white"/>
<path d="M58.163 29.8609H54.208V22.798C54.208 22.7537 54.1829 22.7344 54.1328 22.7344H52.6468C52.5954 22.7344 52.5703 22.7537 52.5703 22.798V31.1581C52.5703 31.2107 52.5954 31.2356 52.6468 31.2356H58.163V29.8609Z" fill="white"/>
</g>
<defs>
<clipPath id="clip0">
<rect width="96.6667" height="32" rx="5" fill="white"/>
</clipPath>
</defs>
</svg>
