<svg width="27" height="27" viewBox="0 0 27 27" fill="none" xmlns="http://www.w3.org/2000/svg">
<path d="M24.0444 18.2533L20.3403 17.8303C19.4507 17.7283 18.5757 18.0345 17.9486 18.6616L15.2653 21.3449C11.1382 19.2449 7.75484 15.8762 5.65484 11.7345L8.35275 9.03659C8.97984 8.4095 9.28609 7.53451 9.184 6.64492L8.76109 2.96992C8.58609 1.49701 7.3465 0.388672 5.859 0.388672H3.33609C1.68817 0.388672 0.317336 1.75951 0.41942 3.40742C1.19234 15.8616 11.1528 25.8074 23.5923 26.5803C25.2403 26.6824 26.6111 25.3116 26.6111 23.6637V21.1408C26.6257 19.6678 25.5173 18.4283 24.0444 18.2533V18.2533Z" fill="#47CE3B"/>
</svg>
