<svg width="414" height="716" viewBox="0 0 414 716" fill="none" xmlns="http://www.w3.org/2000/svg">
<g filter="url(#filter0_d)">
<path d="M24 47C24 42.5817 27.5817 39 32 39H348.5C371.42 39 390 57.5802 390 80.5C390 103.42 371.42 122 348.5 122H32C27.5817 122 24 118.418 24 114V47Z" fill="#F9F9FB"/>
<path d="M25 47C25 43.134 28.134 40 32 40H348.5C370.868 40 389 58.1325 389 80.5C389 102.868 370.868 121 348.5 121H32C28.134 121 25 117.866 25 114V47Z" stroke="#341008" stroke-opacity="0.02" stroke-width="2"/>
</g>
<g filter="url(#filter1_d)">
<path d="M24 150C24 145.582 27.5817 142 32 142H348.5C371.42 142 390 160.58 390 183.5C390 206.42 371.42 225 348.5 225H32C27.5817 225 24 221.418 24 217V150Z" fill="#F9F9FB"/>
<path d="M25 150C25 146.134 28.134 143 32 143H348.5C370.868 143 389 161.132 389 183.5C389 205.868 370.868 224 348.5 224H32C28.134 224 25 220.866 25 217V150Z" stroke="#341008" stroke-opacity="0.02" stroke-width="2"/>
</g>
<g filter="url(#filter2_d)">
<path d="M24 254C24 249.582 27.5817 246 32 246H348.5C371.42 246 390 264.58 390 287.5C390 310.42 371.42 329 348.5 329H32C27.5817 329 24 325.418 24 321V254Z" fill="#F9F9FB"/>
<path d="M25 254C25 250.134 28.134 247 32 247H348.5C370.868 247 389 265.132 389 287.5C389 309.868 370.868 328 348.5 328H32C28.134 328 25 324.866 25 321V254Z" stroke="#341008" stroke-opacity="0.02" stroke-width="2"/>
</g>
<g filter="url(#filter3_d)">
<path d="M24 357C24 352.582 27.5817 349 32 349H348.5C371.42 349 390 367.58 390 390.5C390 413.42 371.42 432 348.5 432H32C27.5817 432 24 428.418 24 424V357Z" fill="#F9F9FB"/>
<path d="M25 357C25 353.134 28.134 350 32 350H348.5C370.868 350 389 368.132 389 390.5C389 412.868 370.868 431 348.5 431H32C28.134 431 25 427.866 25 424V357Z" stroke="#341008" stroke-opacity="0.02" stroke-width="2"/>
</g>
<g filter="url(#filter4_d)">
<path d="M24 461C24 456.582 27.5817 453 32 453H348.5C371.42 453 390 471.58 390 494.5C390 517.42 371.42 536 348.5 536H32C27.5817 536 24 532.418 24 528V461Z" fill="#F9F9FB"/>
<path d="M25 461C25 457.134 28.134 454 32 454H348.5C370.868 454 389 472.132 389 494.5C389 516.868 370.868 535 348.5 535H32C28.134 535 25 531.866 25 528V461Z" stroke="#341008" stroke-opacity="0.02" stroke-width="2"/>
</g>
<g filter="url(#filter5_d)">
<path d="M24 564C24 559.582 27.5817 556 32 556H348.5C371.42 556 390 574.58 390 597.5C390 620.42 371.42 639 348.5 639H32C27.5817 639 24 635.418 24 631V564Z" fill="#F9F9FB"/>
<path d="M25 564C25 560.134 28.134 557 32 557H348.5C370.868 557 389 575.132 389 597.5C389 619.868 370.868 638 348.5 638H32C28.134 638 25 634.866 25 631V564Z" stroke="#341008" stroke-opacity="0.02" stroke-width="2"/>
</g>
<g filter="url(#filter6_d)">
<circle cx="348.621" cy="80.3793" r="41.3793" fill="#D03A3B"/>
</g>
<g clip-path="url(#clip0)">
<path d="M365.338 82.7586C366.651 82.7586 367.716 81.6942 367.716 80.3813C367.716 79.0683 366.651 78.0039 365.338 78.0039C364.025 78.0039 362.961 79.0683 362.961 80.3813C362.961 81.6942 364.025 82.7586 365.338 82.7586Z" fill="white"/>
<path d="M340.366 97.0496C341.679 97.0496 342.743 95.9852 342.743 94.6723C342.743 93.3593 341.679 92.2949 340.366 92.2949C339.053 92.2949 337.988 93.3593 337.988 94.6723C337.988 95.9852 339.053 97.0496 340.366 97.0496Z" fill="white"/>
<path d="M356.87 97.0496C358.183 97.0496 359.247 95.9852 359.247 94.6723C359.247 93.3593 358.183 92.2949 356.87 92.2949C355.557 92.2949 354.492 93.3593 354.492 94.6723C354.492 95.9852 355.557 97.0496 356.87 97.0496Z" fill="white"/>
<path d="M356.87 68.4637C358.183 68.4637 359.247 67.3993 359.247 66.0863C359.247 64.7734 358.183 63.709 356.87 63.709C355.557 63.709 354.492 64.7734 354.492 66.0863C354.492 67.3993 355.557 68.4637 356.87 68.4637Z" fill="white"/>
<path d="M340.366 68.4637C341.679 68.4637 342.743 67.3993 342.743 66.0863C342.743 64.7734 341.679 63.709 340.366 63.709C339.053 63.709 337.988 64.7734 337.988 66.0863C337.988 67.3993 339.053 68.4637 340.366 68.4637Z" fill="white"/>
<path d="M348.615 83.8063C350.506 83.8063 352.039 82.2735 352.039 80.3826C352.039 78.4918 350.506 76.959 348.615 76.959C346.724 76.959 345.191 78.4918 345.191 80.3826C345.191 82.2735 346.724 83.8063 348.615 83.8063Z" fill="white"/>
<path d="M331.897 82.7566C333.21 82.7566 334.274 81.6923 334.274 80.3793C334.274 79.0663 333.21 78.002 331.897 78.002C330.584 78.002 329.52 79.0663 329.52 80.3793C329.52 81.6923 330.584 82.7566 331.897 82.7566Z" fill="white"/>
<path d="M352.359 76.1385L355.601 70.5238C354.864 70.3124 354.202 69.922 353.665 69.4023L350.422 75.0169C351.143 75.2604 351.8 75.6451 352.359 76.1385Z" fill="white"/>
<path d="M336.371 79.2617C336.461 79.6202 336.509 79.9949 336.509 80.3808C336.509 80.7666 336.461 81.1413 336.371 81.4998H343.061C342.989 81.1379 342.95 80.7638 342.95 80.3808C342.95 79.9977 342.989 79.6236 343.061 79.2617H336.371Z" fill="white"/>
<path d="M344.873 76.1366C345.432 75.6433 346.088 75.2588 346.81 75.0155L343.57 69.4023C343.033 69.9219 342.37 70.312 341.633 70.5232L344.873 76.1366Z" fill="white"/>
<path d="M358.141 90.2382C358.878 90.4495 359.54 90.8398 360.078 91.3594L363.887 84.7607C363.16 84.5191 362.514 84.1016 361.997 83.5586L358.141 90.2382Z" fill="white"/>
<path d="M352.359 84.623C351.8 85.1166 351.143 85.5012 350.422 85.7447L353.665 91.3592C354.202 90.8396 354.864 90.4492 355.601 90.2377L352.359 84.623Z" fill="white"/>
<path d="M339.098 70.5235C338.361 70.3122 337.698 69.9219 337.161 69.4023L333.352 76.001C334.078 76.2426 334.725 76.6601 335.242 77.2031L339.098 70.5235Z" fill="white"/>
<path d="M344.876 84.625L341.637 90.2384C342.374 90.4496 343.037 90.8398 343.574 91.3593L346.814 85.7461C346.092 85.5028 345.435 85.1184 344.876 84.625Z" fill="white"/>
<path d="M344.844 93.5566C344.933 93.9151 344.982 94.2898 344.982 94.6757C344.982 95.0615 344.933 95.4362 344.844 95.7947H352.394C352.304 95.4362 352.256 95.0615 352.256 94.6757C352.256 94.2898 352.304 93.9151 352.394 93.5566H344.844Z" fill="white"/>
<path d="M354.164 79.2617C354.237 79.6236 354.276 79.9977 354.276 80.3808C354.276 80.7638 354.237 81.1379 354.164 81.4998H360.86C360.77 81.1413 360.722 80.7666 360.722 80.3808C360.722 79.9949 360.77 79.6202 360.86 79.2617H354.164Z" fill="white"/>
<path d="M335.242 83.5586C334.725 84.1017 334.078 84.5192 333.352 84.7607L337.161 91.3594C337.698 90.8398 338.361 90.4495 339.098 90.2382L335.242 83.5586Z" fill="white"/>
<path d="M361.997 77.2031C362.514 76.66 363.16 76.2425 363.887 76.001L360.078 69.4023C359.54 69.9219 358.878 70.3122 358.141 70.5235L361.997 77.2031Z" fill="white"/>
<path d="M352.394 67.2068C352.304 66.8484 352.256 66.4736 352.256 66.0878C352.256 65.7019 352.304 65.3272 352.394 64.9688H344.844C344.933 65.3272 344.982 65.7019 344.982 66.0878C344.982 66.4736 344.933 66.8484 344.844 67.2068H352.394Z" fill="white"/>
</g>
<g filter="url(#filter7_d)">
<circle cx="348.5" cy="183.5" r="41.5" fill="#341008"/>
</g>
<g filter="url(#filter8_d)">
<circle cx="348.5" cy="287.5" r="41.5" fill="#341008"/>
</g>
<g filter="url(#filter9_d)">
<circle cx="348.5" cy="390.5" r="41.5" fill="#341008"/>
</g>
<g filter="url(#filter10_d)">
<circle cx="348.5" cy="494.5" r="41.5" fill="#D03A3B"/>
</g>
<g filter="url(#filter11_d)">
<circle cx="348.5" cy="597.5" r="41.5" fill="#851801"/>
</g>
<g clip-path="url(#clip1)">
<path d="M365.635 186.365C366.941 186.365 368 185.306 368 184C368 182.694 366.941 181.635 365.635 181.635C364.328 181.635 363.27 182.694 363.27 184C363.27 185.306 364.328 186.365 365.635 186.365Z" fill="white"/>
<path d="M340.791 200.584C342.097 200.584 343.156 199.525 343.156 198.219C343.156 196.912 342.097 195.854 340.791 195.854C339.485 195.854 338.426 196.912 338.426 198.219C338.426 199.525 339.485 200.584 340.791 200.584Z" fill="white"/>
<path d="M357.209 200.584C358.515 200.584 359.574 199.525 359.574 198.219C359.574 196.912 358.515 195.854 357.209 195.854C355.903 195.854 354.844 196.912 354.844 198.219C354.844 199.525 355.903 200.584 357.209 200.584Z" fill="white"/>
<path d="M357.209 172.144C358.515 172.144 359.574 171.085 359.574 169.779C359.574 168.473 358.515 167.414 357.209 167.414C355.903 167.414 354.844 168.473 354.844 169.779C354.844 171.085 355.903 172.144 357.209 172.144Z" fill="white"/>
<path d="M340.791 172.144C342.097 172.144 343.156 171.085 343.156 169.779C343.156 168.473 342.097 167.414 340.791 167.414C339.485 167.414 338.426 168.473 338.426 169.779C338.426 171.085 339.485 172.144 340.791 172.144Z" fill="white"/>
<path d="M348.996 187.408C350.877 187.408 352.402 185.883 352.402 184.002C352.402 182.121 350.877 180.596 348.996 180.596C347.115 180.596 345.59 182.121 345.59 184.002C345.59 185.883 347.115 187.408 348.996 187.408Z" fill="white"/>
<path d="M332.365 186.365C333.671 186.365 334.73 185.306 334.73 184C334.73 182.694 333.671 181.635 332.365 181.635C331.059 181.635 330 182.694 330 184C330 185.306 331.059 186.365 332.365 186.365Z" fill="white"/>
<path d="M352.72 179.78L355.946 174.194C355.212 173.984 354.553 173.595 354.019 173.078L350.793 178.664C351.511 178.906 352.164 179.289 352.72 179.78Z" fill="white"/>
<path d="M336.816 182.887C336.906 183.243 336.954 183.616 336.954 184C336.954 184.384 336.906 184.757 336.816 185.113H343.472C343.4 184.753 343.361 184.381 343.361 184C343.361 183.619 343.4 183.247 343.472 182.887H336.816Z" fill="white"/>
<path d="M345.274 179.778C345.83 179.287 346.483 178.905 347.201 178.662L343.978 173.078C343.443 173.595 342.785 173.983 342.051 174.193L345.274 179.778Z" fill="white"/>
<path d="M358.473 193.807C359.206 194.018 359.865 194.406 360.4 194.923L364.19 188.358C363.467 188.118 362.823 187.702 362.309 187.162L358.473 193.807Z" fill="white"/>
<path d="M352.72 188.221C352.164 188.712 351.511 189.094 350.793 189.337L354.019 194.922C354.553 194.405 355.212 194.017 355.946 193.807L352.72 188.221Z" fill="white"/>
<path d="M339.53 174.194C338.796 173.983 338.137 173.595 337.603 173.078L333.812 179.643C334.536 179.883 335.179 180.299 335.693 180.839L339.53 174.194Z" fill="white"/>
<path d="M345.278 188.223L342.055 193.807C342.788 194.017 343.447 194.406 343.982 194.922L347.205 189.338C346.487 189.096 345.834 188.714 345.278 188.223Z" fill="white"/>
<path d="M345.246 197.107C345.335 197.464 345.383 197.837 345.383 198.221C345.383 198.605 345.335 198.977 345.246 199.334H352.758C352.668 198.977 352.62 198.605 352.62 198.221C352.62 197.837 352.668 197.464 352.758 197.107H345.246Z" fill="white"/>
<path d="M354.52 182.887C354.592 183.247 354.63 183.619 354.63 184C354.63 184.381 354.592 184.753 354.52 185.113H361.181C361.092 184.757 361.044 184.384 361.044 184C361.044 183.616 361.092 183.243 361.181 182.887H354.52Z" fill="white"/>
<path d="M335.693 187.162C335.179 187.702 334.536 188.118 333.812 188.358L337.603 194.923C338.137 194.406 338.796 194.018 339.53 193.807L335.693 187.162Z" fill="white"/>
<path d="M362.309 180.839C362.823 180.298 363.467 179.883 364.19 179.643L360.4 173.078C359.865 173.595 359.206 173.983 358.473 174.194L362.309 180.839Z" fill="white"/>
<path d="M352.758 170.895C352.668 170.538 352.62 170.165 352.62 169.781C352.62 169.397 352.668 169.025 352.758 168.668H345.246C345.335 169.025 345.383 169.397 345.383 169.781C345.383 170.165 345.335 170.538 345.246 170.895H352.758Z" fill="white"/>
</g>
<g clip-path="url(#clip2)">
<path d="M365.635 289.365C366.941 289.365 368 288.306 368 287C368 285.694 366.941 284.635 365.635 284.635C364.328 284.635 363.27 285.694 363.27 287C363.27 288.306 364.328 289.365 365.635 289.365Z" fill="white"/>
<path d="M340.791 303.584C342.097 303.584 343.156 302.525 343.156 301.219C343.156 299.912 342.097 298.854 340.791 298.854C339.485 298.854 338.426 299.912 338.426 301.219C338.426 302.525 339.485 303.584 340.791 303.584Z" fill="white"/>
<path d="M357.209 303.584C358.515 303.584 359.574 302.525 359.574 301.219C359.574 299.912 358.515 298.854 357.209 298.854C355.903 298.854 354.844 299.912 354.844 301.219C354.844 302.525 355.903 303.584 357.209 303.584Z" fill="white"/>
<path d="M357.209 275.144C358.515 275.144 359.574 274.085 359.574 272.779C359.574 271.473 358.515 270.414 357.209 270.414C355.903 270.414 354.844 271.473 354.844 272.779C354.844 274.085 355.903 275.144 357.209 275.144Z" fill="white"/>
<path d="M340.791 275.144C342.097 275.144 343.156 274.085 343.156 272.779C343.156 271.473 342.097 270.414 340.791 270.414C339.485 270.414 338.426 271.473 338.426 272.779C338.426 274.085 339.485 275.144 340.791 275.144Z" fill="white"/>
<path d="M348.996 290.408C350.877 290.408 352.402 288.883 352.402 287.002C352.402 285.121 350.877 283.596 348.996 283.596C347.115 283.596 345.59 285.121 345.59 287.002C345.59 288.883 347.115 290.408 348.996 290.408Z" fill="white"/>
<path d="M332.365 289.365C333.671 289.365 334.73 288.306 334.73 287C334.73 285.694 333.671 284.635 332.365 284.635C331.059 284.635 330 285.694 330 287C330 288.306 331.059 289.365 332.365 289.365Z" fill="white"/>
<path d="M352.72 282.78L355.946 277.194C355.212 276.984 354.553 276.595 354.019 276.078L350.793 281.664C351.511 281.906 352.164 282.289 352.72 282.78Z" fill="white"/>
<path d="M336.816 285.887C336.906 286.243 336.954 286.616 336.954 287C336.954 287.384 336.906 287.757 336.816 288.113H343.472C343.4 287.753 343.361 287.381 343.361 287C343.361 286.619 343.4 286.247 343.472 285.887H336.816Z" fill="white"/>
<path d="M345.274 282.778C345.83 282.287 346.483 281.905 347.201 281.662L343.978 276.078C343.443 276.595 342.785 276.983 342.051 277.193L345.274 282.778Z" fill="white"/>
<path d="M358.473 296.807C359.206 297.018 359.865 297.406 360.4 297.923L364.19 291.358C363.467 291.118 362.823 290.702 362.309 290.162L358.473 296.807Z" fill="white"/>
<path d="M352.72 291.221C352.164 291.712 351.511 292.094 350.793 292.337L354.019 297.922C354.553 297.405 355.212 297.017 355.946 296.807L352.72 291.221Z" fill="white"/>
<path d="M339.53 277.194C338.796 276.983 338.137 276.595 337.603 276.078L333.812 282.643C334.536 282.883 335.179 283.299 335.693 283.839L339.53 277.194Z" fill="white"/>
<path d="M345.278 291.223L342.055 296.807C342.788 297.017 343.447 297.406 343.982 297.922L347.205 292.338C346.487 292.096 345.834 291.714 345.278 291.223Z" fill="white"/>
<path d="M345.246 300.107C345.335 300.464 345.383 300.837 345.383 301.221C345.383 301.605 345.335 301.977 345.246 302.334H352.758C352.668 301.977 352.62 301.605 352.62 301.221C352.62 300.837 352.668 300.464 352.758 300.107H345.246Z" fill="white"/>
<path d="M354.52 285.887C354.592 286.247 354.63 286.619 354.63 287C354.63 287.381 354.592 287.753 354.52 288.113H361.181C361.092 287.757 361.044 287.384 361.044 287C361.044 286.616 361.092 286.243 361.181 285.887H354.52Z" fill="white"/>
<path d="M335.693 290.162C335.179 290.702 334.536 291.118 333.812 291.358L337.603 297.923C338.137 297.406 338.796 297.018 339.53 296.807L335.693 290.162Z" fill="white"/>
<path d="M362.309 283.839C362.823 283.298 363.467 282.883 364.19 282.643L360.4 276.078C359.865 276.595 359.206 276.983 358.473 277.194L362.309 283.839Z" fill="white"/>
<path d="M352.758 273.895C352.668 273.538 352.62 273.165 352.62 272.781C352.62 272.397 352.668 272.025 352.758 271.668H345.246C345.335 272.025 345.383 272.397 345.383 272.781C345.383 273.165 345.335 273.538 345.246 273.895H352.758Z" fill="white"/>
</g>
<g clip-path="url(#clip3)">
<path d="M365.635 393.365C366.941 393.365 368 392.306 368 391C368 389.694 366.941 388.635 365.635 388.635C364.328 388.635 363.27 389.694 363.27 391C363.27 392.306 364.328 393.365 365.635 393.365Z" fill="white"/>
<path d="M340.791 407.584C342.097 407.584 343.156 406.525 343.156 405.219C343.156 403.912 342.097 402.854 340.791 402.854C339.485 402.854 338.426 403.912 338.426 405.219C338.426 406.525 339.485 407.584 340.791 407.584Z" fill="white"/>
<path d="M357.209 407.584C358.515 407.584 359.574 406.525 359.574 405.219C359.574 403.912 358.515 402.854 357.209 402.854C355.903 402.854 354.844 403.912 354.844 405.219C354.844 406.525 355.903 407.584 357.209 407.584Z" fill="white"/>
<path d="M357.209 379.144C358.515 379.144 359.574 378.085 359.574 376.779C359.574 375.473 358.515 374.414 357.209 374.414C355.903 374.414 354.844 375.473 354.844 376.779C354.844 378.085 355.903 379.144 357.209 379.144Z" fill="white"/>
<path d="M340.791 379.144C342.097 379.144 343.156 378.085 343.156 376.779C343.156 375.473 342.097 374.414 340.791 374.414C339.485 374.414 338.426 375.473 338.426 376.779C338.426 378.085 339.485 379.144 340.791 379.144Z" fill="white"/>
<path d="M348.996 394.408C350.877 394.408 352.402 392.883 352.402 391.002C352.402 389.121 350.877 387.596 348.996 387.596C347.115 387.596 345.59 389.121 345.59 391.002C345.59 392.883 347.115 394.408 348.996 394.408Z" fill="white"/>
<path d="M332.365 393.365C333.671 393.365 334.73 392.306 334.73 391C334.73 389.694 333.671 388.635 332.365 388.635C331.059 388.635 330 389.694 330 391C330 392.306 331.059 393.365 332.365 393.365Z" fill="white"/>
<path d="M352.72 386.78L355.946 381.194C355.212 380.984 354.553 380.595 354.019 380.078L350.793 385.664C351.511 385.906 352.164 386.289 352.72 386.78Z" fill="white"/>
<path d="M336.816 389.887C336.906 390.243 336.954 390.616 336.954 391C336.954 391.384 336.906 391.757 336.816 392.113H343.472C343.4 391.753 343.361 391.381 343.361 391C343.361 390.619 343.4 390.247 343.472 389.887H336.816Z" fill="white"/>
<path d="M345.274 386.778C345.83 386.287 346.483 385.905 347.201 385.662L343.978 380.078C343.443 380.595 342.785 380.983 342.051 381.193L345.274 386.778Z" fill="white"/>
<path d="M358.473 400.807C359.206 401.018 359.865 401.406 360.4 401.923L364.19 395.358C363.467 395.118 362.823 394.702 362.309 394.162L358.473 400.807Z" fill="white"/>
<path d="M352.72 395.221C352.164 395.712 351.511 396.094 350.793 396.337L354.019 401.922C354.553 401.405 355.212 401.017 355.946 400.807L352.72 395.221Z" fill="white"/>
<path d="M339.53 381.194C338.796 380.983 338.137 380.595 337.603 380.078L333.812 386.643C334.536 386.883 335.179 387.299 335.693 387.839L339.53 381.194Z" fill="white"/>
<path d="M345.278 395.223L342.055 400.807C342.788 401.017 343.447 401.406 343.982 401.922L347.205 396.338C346.487 396.096 345.834 395.714 345.278 395.223Z" fill="white"/>
<path d="M345.246 404.107C345.335 404.464 345.383 404.837 345.383 405.221C345.383 405.605 345.335 405.977 345.246 406.334H352.758C352.668 405.977 352.62 405.605 352.62 405.221C352.62 404.837 352.668 404.464 352.758 404.107H345.246Z" fill="white"/>
<path d="M354.52 389.887C354.592 390.247 354.63 390.619 354.63 391C354.63 391.381 354.592 391.753 354.52 392.113H361.181C361.092 391.757 361.044 391.384 361.044 391C361.044 390.616 361.092 390.243 361.181 389.887H354.52Z" fill="white"/>
<path d="M335.693 394.162C335.179 394.702 334.536 395.118 333.812 395.358L337.603 401.923C338.137 401.406 338.796 401.018 339.53 400.807L335.693 394.162Z" fill="white"/>
<path d="M362.309 387.839C362.823 387.298 363.467 386.883 364.19 386.643L360.4 380.078C359.865 380.595 359.206 380.983 358.473 381.194L362.309 387.839Z" fill="white"/>
<path d="M352.758 377.895C352.668 377.538 352.62 377.165 352.62 376.781C352.62 376.397 352.668 376.025 352.758 375.668H345.246C345.335 376.025 345.383 376.397 345.383 376.781C345.383 377.165 345.335 377.538 345.246 377.895H352.758Z" fill="white"/>
</g>
<g clip-path="url(#clip4)">
<path d="M365.635 496.365C366.941 496.365 368 495.306 368 494C368 492.694 366.941 491.635 365.635 491.635C364.328 491.635 363.27 492.694 363.27 494C363.27 495.306 364.328 496.365 365.635 496.365Z" fill="white"/>
<path d="M340.791 510.584C342.097 510.584 343.156 509.525 343.156 508.219C343.156 506.912 342.097 505.854 340.791 505.854C339.485 505.854 338.426 506.912 338.426 508.219C338.426 509.525 339.485 510.584 340.791 510.584Z" fill="white"/>
<path d="M357.209 510.584C358.515 510.584 359.574 509.525 359.574 508.219C359.574 506.912 358.515 505.854 357.209 505.854C355.903 505.854 354.844 506.912 354.844 508.219C354.844 509.525 355.903 510.584 357.209 510.584Z" fill="white"/>
<path d="M357.209 482.144C358.515 482.144 359.574 481.085 359.574 479.779C359.574 478.473 358.515 477.414 357.209 477.414C355.903 477.414 354.844 478.473 354.844 479.779C354.844 481.085 355.903 482.144 357.209 482.144Z" fill="white"/>
<path d="M340.791 482.144C342.097 482.144 343.156 481.085 343.156 479.779C343.156 478.473 342.097 477.414 340.791 477.414C339.485 477.414 338.426 478.473 338.426 479.779C338.426 481.085 339.485 482.144 340.791 482.144Z" fill="white"/>
<path d="M348.996 497.408C350.877 497.408 352.402 495.883 352.402 494.002C352.402 492.121 350.877 490.596 348.996 490.596C347.115 490.596 345.59 492.121 345.59 494.002C345.59 495.883 347.115 497.408 348.996 497.408Z" fill="white"/>
<path d="M332.365 496.365C333.671 496.365 334.73 495.306 334.73 494C334.73 492.694 333.671 491.635 332.365 491.635C331.059 491.635 330 492.694 330 494C330 495.306 331.059 496.365 332.365 496.365Z" fill="white"/>
<path d="M352.72 489.78L355.946 484.194C355.212 483.984 354.553 483.595 354.019 483.078L350.793 488.664C351.511 488.906 352.164 489.289 352.72 489.78Z" fill="white"/>
<path d="M336.816 492.887C336.906 493.243 336.954 493.616 336.954 494C336.954 494.384 336.906 494.757 336.816 495.113H343.472C343.4 494.753 343.361 494.381 343.361 494C343.361 493.619 343.4 493.247 343.472 492.887H336.816Z" fill="white"/>
<path d="M345.274 489.778C345.83 489.287 346.483 488.905 347.201 488.662L343.978 483.078C343.443 483.595 342.785 483.983 342.051 484.193L345.274 489.778Z" fill="white"/>
<path d="M358.473 503.807C359.206 504.018 359.865 504.406 360.4 504.923L364.19 498.358C363.467 498.118 362.823 497.702 362.309 497.162L358.473 503.807Z" fill="white"/>
<path d="M352.72 498.221C352.164 498.712 351.511 499.094 350.793 499.337L354.019 504.922C354.553 504.405 355.212 504.017 355.946 503.807L352.72 498.221Z" fill="white"/>
<path d="M339.53 484.194C338.796 483.983 338.137 483.595 337.603 483.078L333.812 489.643C334.536 489.883 335.179 490.299 335.693 490.839L339.53 484.194Z" fill="white"/>
<path d="M345.278 498.223L342.055 503.807C342.788 504.017 343.447 504.406 343.982 504.922L347.205 499.338C346.487 499.096 345.834 498.714 345.278 498.223Z" fill="white"/>
<path d="M345.246 507.107C345.335 507.464 345.383 507.837 345.383 508.221C345.383 508.605 345.335 508.977 345.246 509.334H352.758C352.668 508.977 352.62 508.605 352.62 508.221C352.62 507.837 352.668 507.464 352.758 507.107H345.246Z" fill="white"/>
<path d="M354.52 492.887C354.592 493.247 354.63 493.619 354.63 494C354.63 494.381 354.592 494.753 354.52 495.113H361.181C361.092 494.757 361.044 494.384 361.044 494C361.044 493.616 361.092 493.243 361.181 492.887H354.52Z" fill="white"/>
<path d="M335.693 497.162C335.179 497.702 334.536 498.118 333.812 498.358L337.603 504.923C338.137 504.406 338.796 504.018 339.53 503.807L335.693 497.162Z" fill="white"/>
<path d="M362.309 490.839C362.823 490.298 363.467 489.883 364.19 489.643L360.4 483.078C359.865 483.595 359.206 483.983 358.473 484.194L362.309 490.839Z" fill="white"/>
<path d="M352.758 480.895C352.668 480.538 352.62 480.165 352.62 479.781C352.62 479.397 352.668 479.025 352.758 478.668H345.246C345.335 479.025 345.383 479.397 345.383 479.781C345.383 480.165 345.335 480.538 345.246 480.895H352.758Z" fill="white"/>
</g>
<g clip-path="url(#clip5)">
<path d="M365.635 600.365C366.941 600.365 368 599.306 368 598C368 596.694 366.941 595.635 365.635 595.635C364.328 595.635 363.27 596.694 363.27 598C363.27 599.306 364.328 600.365 365.635 600.365Z" fill="white"/>
<path d="M340.791 614.584C342.097 614.584 343.156 613.525 343.156 612.219C343.156 610.912 342.097 609.854 340.791 609.854C339.485 609.854 338.426 610.912 338.426 612.219C338.426 613.525 339.485 614.584 340.791 614.584Z" fill="white"/>
<path d="M357.209 614.584C358.515 614.584 359.574 613.525 359.574 612.219C359.574 610.912 358.515 609.854 357.209 609.854C355.903 609.854 354.844 610.912 354.844 612.219C354.844 613.525 355.903 614.584 357.209 614.584Z" fill="white"/>
<path d="M357.209 586.144C358.515 586.144 359.574 585.085 359.574 583.779C359.574 582.473 358.515 581.414 357.209 581.414C355.903 581.414 354.844 582.473 354.844 583.779C354.844 585.085 355.903 586.144 357.209 586.144Z" fill="white"/>
<path d="M340.791 586.144C342.097 586.144 343.156 585.085 343.156 583.779C343.156 582.473 342.097 581.414 340.791 581.414C339.485 581.414 338.426 582.473 338.426 583.779C338.426 585.085 339.485 586.144 340.791 586.144Z" fill="white"/>
<path d="M348.996 601.408C350.877 601.408 352.402 599.883 352.402 598.002C352.402 596.121 350.877 594.596 348.996 594.596C347.115 594.596 345.59 596.121 345.59 598.002C345.59 599.883 347.115 601.408 348.996 601.408Z" fill="white"/>
<path d="M332.365 600.365C333.671 600.365 334.73 599.306 334.73 598C334.73 596.694 333.671 595.635 332.365 595.635C331.059 595.635 330 596.694 330 598C330 599.306 331.059 600.365 332.365 600.365Z" fill="white"/>
<path d="M352.72 593.78L355.946 588.194C355.212 587.984 354.553 587.595 354.019 587.078L350.793 592.664C351.511 592.906 352.164 593.289 352.72 593.78Z" fill="white"/>
<path d="M336.816 596.887C336.906 597.243 336.954 597.616 336.954 598C336.954 598.384 336.906 598.757 336.816 599.113H343.472C343.4 598.753 343.361 598.381 343.361 598C343.361 597.619 343.4 597.247 343.472 596.887H336.816Z" fill="white"/>
<path d="M345.274 593.778C345.83 593.287 346.483 592.905 347.201 592.662L343.978 587.078C343.443 587.595 342.785 587.983 342.051 588.193L345.274 593.778Z" fill="white"/>
<path d="M358.473 607.807C359.206 608.018 359.865 608.406 360.4 608.923L364.19 602.358C363.467 602.118 362.823 601.702 362.309 601.162L358.473 607.807Z" fill="white"/>
<path d="M352.72 602.221C352.164 602.712 351.511 603.094 350.793 603.337L354.019 608.922C354.553 608.405 355.212 608.017 355.946 607.807L352.72 602.221Z" fill="white"/>
<path d="M339.53 588.194C338.796 587.983 338.137 587.595 337.603 587.078L333.812 593.643C334.536 593.883 335.179 594.299 335.693 594.839L339.53 588.194Z" fill="white"/>
<path d="M345.278 602.223L342.055 607.807C342.788 608.017 343.447 608.406 343.982 608.922L347.205 603.338C346.487 603.096 345.834 602.714 345.278 602.223Z" fill="white"/>
<path d="M345.246 611.107C345.335 611.464 345.383 611.837 345.383 612.221C345.383 612.605 345.335 612.977 345.246 613.334H352.758C352.668 612.977 352.62 612.605 352.62 612.221C352.62 611.837 352.668 611.464 352.758 611.107H345.246Z" fill="white"/>
<path d="M354.52 596.887C354.592 597.247 354.63 597.619 354.63 598C354.63 598.381 354.592 598.753 354.52 599.113H361.181C361.092 598.757 361.044 598.384 361.044 598C361.044 597.616 361.092 597.243 361.181 596.887H354.52Z" fill="white"/>
<path d="M335.693 601.162C335.179 601.702 334.536 602.118 333.812 602.358L337.603 608.923C338.137 608.406 338.796 608.018 339.53 607.807L335.693 601.162Z" fill="white"/>
<path d="M362.309 594.839C362.823 594.298 363.467 593.883 364.19 593.643L360.4 587.078C359.865 587.595 359.206 587.983 358.473 588.194L362.309 594.839Z" fill="white"/>
<path d="M352.758 584.895C352.668 584.538 352.62 584.165 352.62 583.781C352.62 583.397 352.668 583.025 352.758 582.668H345.246C345.335 583.025 345.383 583.397 345.383 583.781C345.383 584.165 345.335 584.538 345.246 584.895H352.758Z" fill="white"/>
</g>
<path d="M65.78 80.82H55.54V79.44H65.2V77.44H55.54V76.1H65.6V74.02H52.92V82.9H65.78V80.82ZM67.52 84.22H50.84V86.36H57.84V91.74H60.48V86.36H67.52V84.22ZM76.0184 77.24H79.6784V75.06H69.5584V77.24H73.3784V78.26C73.3784 81.3 71.8784 84.76 68.8584 86.16L70.3384 88.26C72.4384 87.26 73.9184 85.24 74.7384 82.84C75.5584 85.02 76.9984 86.86 79.0384 87.8L80.4984 85.72C77.4784 84.32 76.0184 81.06 76.0184 78.26V77.24ZM86.3584 80.32H83.6784V73.3H81.0384V91.72H83.6784V82.5H86.3584V80.32ZM95.9569 76.02C98.3569 76.02 99.8969 76.74 99.8969 78.04C99.8969 79.36 98.3569 80.06 95.9569 80.06C93.5369 80.06 91.9969 79.36 91.9969 78.04C91.9969 76.74 93.5369 76.02 95.9569 76.02ZM95.9569 82.16C99.8769 82.16 102.617 80.56 102.617 78.04C102.617 75.54 99.8769 73.92 95.9569 73.92C92.0169 73.92 89.2969 75.54 89.2969 78.04C89.2969 80.56 92.0169 82.16 95.9569 82.16ZM104.337 83.54H87.6569V85.68H91.4369V91.7H94.0969V85.68H97.7969V91.7H100.477V85.68H104.337V83.54ZM113.235 78.4H116.995V76.3H113.235V73.74H110.595V76.3H106.755V78.4H110.595V79.04C110.595 81.84 109.155 84.96 106.135 86.32L107.555 88.34C109.655 87.4 111.135 85.52 111.955 83.3C112.775 85.4 114.235 87.16 116.315 88.02L117.715 86C114.695 84.7 113.235 81.7 113.235 79.04V78.4ZM118.695 73.3V91.72H121.335V73.3H118.695Z" fill="#575467"/>
<path d="M132.805 94.04L134.645 93.26C132.965 90.34 132.205 86.98 132.205 83.68C132.205 80.42 132.965 77.04 134.645 74.12L132.805 73.34C130.925 76.42 129.825 79.7 129.825 83.68C129.825 87.7 130.925 90.94 132.805 94.04ZM152.244 73.3H149.744V87H152.244V73.3ZM138.964 79.28C138.964 77.76 139.744 76.9 140.824 76.9C141.904 76.9 142.684 77.76 142.684 79.28C142.684 80.78 141.904 81.66 140.824 81.66C139.744 81.66 138.964 80.78 138.964 79.28ZM146.084 80.4V86.46H148.544V73.62H146.084V78.28H144.944C144.564 76.12 142.944 74.64 140.824 74.64C138.384 74.64 136.604 76.56 136.604 79.28C136.604 82.02 138.384 83.94 140.824 83.94C142.904 83.94 144.504 82.52 144.924 80.4H146.084ZM142.484 89.3V85.26H139.844V91.4H152.704V89.3H142.484ZM170.642 73.32H168.142V82.88H170.642V73.32ZM162.642 77.22V79.32H164.522V82.74H166.982V73.66H164.522V77.22H162.642ZM163.982 80.78C161.702 79.98 160.742 78.26 160.742 76.48V76.44H163.422V74.36H155.282V76.44H158.182V76.48C158.182 78.3 157.162 80.2 154.742 81.06L156.002 83.04C157.702 82.42 158.822 81.3 159.482 79.92C160.122 81.2 161.182 82.22 162.782 82.76L163.982 80.78ZM160.762 89.5V88.42H170.642V83.54H158.122V85.56H168.042V86.56H158.162V91.5H171.222V89.5H160.762ZM175.34 94.04C177.24 90.94 178.34 87.7 178.34 83.68C178.34 79.7 177.24 76.42 175.34 73.34L173.52 74.12C175.2 77.04 175.96 80.42 175.96 83.68C175.96 86.98 175.2 90.34 173.52 93.26L175.34 94.04Z" fill="#8A8A8A"/>
<path d="M65.78 183.82H55.54V182.44H65.2V180.44H55.54V179.1H65.6V177.02H52.92V185.9H65.78V183.82ZM67.52 187.22H50.84V189.36H57.84V194.74H60.48V189.36H67.52V187.22ZM76.0184 180.24H79.6784V178.06H69.5584V180.24H73.3784V181.26C73.3784 184.3 71.8784 187.76 68.8584 189.16L70.3384 191.26C72.4384 190.26 73.9184 188.24 74.7384 185.84C75.5584 188.02 76.9984 189.86 79.0384 190.8L80.4984 188.72C77.4784 187.32 76.0184 184.06 76.0184 181.26V180.24ZM86.3584 183.32H83.6784V176.3H81.0384V194.72H83.6784V185.5H86.3584V183.32ZM95.9569 179.02C98.3569 179.02 99.8969 179.74 99.8969 181.04C99.8969 182.36 98.3569 183.06 95.9569 183.06C93.5369 183.06 91.9969 182.36 91.9969 181.04C91.9969 179.74 93.5369 179.02 95.9569 179.02ZM95.9569 185.16C99.8769 185.16 102.617 183.56 102.617 181.04C102.617 178.54 99.8769 176.92 95.9569 176.92C92.0169 176.92 89.2969 178.54 89.2969 181.04C89.2969 183.56 92.0169 185.16 95.9569 185.16ZM104.337 186.54H87.6569V188.68H91.4369V194.7H94.0969V188.68H97.7969V194.7H100.477V188.68H104.337V186.54ZM113.235 181.4H116.995V179.3H113.235V176.74H110.595V179.3H106.755V181.4H110.595V182.04C110.595 184.84 109.155 187.96 106.135 189.32L107.555 191.34C109.655 190.4 111.135 188.52 111.955 186.3C112.775 188.4 114.235 190.16 116.315 191.02L117.715 189C114.695 187.7 113.235 184.7 113.235 182.04V181.4ZM118.695 176.3V194.72H121.335V176.3H118.695Z" fill="#575467"/>
<path d="M132.805 197.04L134.645 196.26C132.965 193.34 132.205 189.98 132.205 186.68C132.205 183.42 132.965 180.04 134.645 177.12L132.805 176.34C130.925 179.42 129.825 182.7 129.825 186.68C129.825 190.7 130.925 193.94 132.805 197.04ZM137.564 178.2V180.3H143.704C143.324 184.38 141.284 187.26 136.584 189.52L137.964 191.6C144.504 188.44 146.404 183.84 146.404 178.2H137.564ZM149.224 176.28V194.7H151.884V176.28H149.224ZM164.782 184.2C165.202 181.88 165.202 180.06 165.202 178.78V177.64H155.742V179.74H162.602C162.582 180.84 162.502 182.18 162.202 183.9L164.782 184.2ZM166.002 184.94C164.282 185.18 162.442 185.32 160.622 185.4V181.92H158.042V185.5C156.842 185.52 155.702 185.52 154.682 185.52L154.922 187.62C158.082 187.6 162.362 187.52 166.162 186.82L166.002 184.94ZM160.002 188.86H157.362V194.4H170.222V192.3H160.002V188.86ZM169.642 181.9V176.28H167.002V190.08H169.642V184.08H171.842V181.9H169.642ZM175.34 197.04C177.24 193.94 178.34 190.7 178.34 186.68C178.34 182.7 177.24 179.42 175.34 176.34L173.52 177.12C175.2 180.04 175.96 183.42 175.96 186.68C175.96 189.98 175.2 193.34 173.52 196.26L175.34 197.04Z" fill="#8A8A8A"/>
<path d="M51.82 297H54.78V282.18H51.82V297ZM58.4216 297H61.3816V291.74H63.3616C66.5416 291.74 69.0816 290.22 69.0816 286.84C69.0816 283.34 66.5616 282.18 63.2816 282.18H58.4216V297ZM61.3816 289.4V284.54H63.0616C65.1016 284.54 66.1816 285.12 66.1816 286.84C66.1816 288.54 65.2016 289.4 63.1616 289.4H61.3816ZM77.6414 297.28C81.5614 297.28 84.2614 294.34 84.2614 289.54C84.2614 284.74 81.5614 281.92 77.6414 281.92C73.7214 281.92 71.0214 284.72 71.0214 289.54C71.0214 294.34 73.7214 297.28 77.6414 297.28ZM77.6414 294.72C75.4414 294.72 74.0414 292.7 74.0414 289.54C74.0414 286.36 75.4414 284.46 77.6414 284.46C79.8414 284.46 81.2414 286.36 81.2414 289.54C81.2414 292.7 79.8414 294.72 77.6414 294.72Z" fill="#8A8A8A"/>
<path d="M92.4833 289.42C95.7033 288.98 97.9633 287.6 99.0633 285.72C100.163 287.6 102.423 288.98 105.643 289.42L106.583 287.36C102.843 286.9 100.903 285.1 100.643 283.34H105.863V281.24H92.2033V283.34H97.5033C97.2433 285.1 95.2833 286.9 91.5233 287.36L92.4833 289.42ZM107.383 290.48H90.7433V292.58H97.6833V298.76H100.323V292.58H107.383V290.48ZM118.962 288.2C119.382 285.88 119.382 284.06 119.382 282.78V281.64H109.922V283.74H116.782C116.762 284.84 116.682 286.18 116.382 287.9L118.962 288.2ZM120.182 288.94C118.462 289.18 116.622 289.32 114.802 289.4V285.92H112.222V289.5C111.022 289.52 109.882 289.52 108.862 289.52L109.102 291.62C112.262 291.6 116.542 291.52 120.342 290.82L120.182 288.94ZM114.182 292.86H111.542V298.4H124.402V296.3H114.182V292.86ZM123.822 285.9V280.28H121.182V294.08H123.822V288.08H126.022V285.9H123.822ZM134.3 281.72H131.64V284.4C131.64 287.82 130.24 291.34 127.14 292.8L128.72 294.94C130.8 293.92 132.18 291.98 132.98 289.64C133.74 291.84 135.04 293.62 136.96 294.6L138.56 292.52C135.6 291.06 134.3 287.72 134.3 284.4V281.72ZM144.62 287.38H141.94V280.3H139.3V298.72H141.94V289.58H144.62V287.38ZM163.21 293.9H165.85V280.3H163.21V284.22H159.83V286.36H163.21V293.9ZM161.45 289.18C158.57 288.16 157.33 285.82 157.33 283.42V281.42H154.65V283.4C154.65 286.02 153.37 288.58 150.33 289.6L151.71 291.66C153.85 290.88 155.27 289.38 156.05 287.48C156.81 289.18 158.13 290.52 160.05 291.22L161.45 289.18ZM156.33 296.3V292.54H153.69V298.4H166.25V296.3H156.33ZM178.848 284.74V286.88H181.608V291.26H184.248V280.3H181.608V284.74H178.848ZM179.948 288.7C177.148 287.78 175.868 285.62 175.788 283.52H179.368V281.4H169.468V283.52H173.088C173.008 285.82 171.668 288.16 168.748 289.18L170.088 291.26C172.228 290.54 173.688 289.04 174.488 287.18C175.288 288.8 176.668 290.1 178.668 290.76L179.948 288.7ZM178.028 296.74C175.608 296.74 174.348 296.24 174.348 295.2C174.348 294.16 175.608 293.66 178.028 293.66C180.428 293.66 181.688 294.16 181.688 295.2C181.688 296.24 180.428 296.74 178.028 296.74ZM178.028 291.66C174.108 291.66 171.708 292.96 171.708 295.2C171.708 297.44 174.108 298.74 178.028 298.74C181.928 298.74 184.328 297.44 184.328 295.2C184.328 292.96 181.928 291.66 178.028 291.66Z" fill="#575467"/>
<path d="M66.14 383.32H63.5V392.54H66.14V383.32ZM62.04 389.3C59.86 389.74 57.88 389.86 54.54 389.88V386.34H60.58V384.3H51.9V391.92H53.48C57.56 391.92 59.86 391.82 62.3 391.3L62.04 389.3ZM56.5 399.58V398.32H66.14V393.3H53.88V395.32H63.54V396.46H53.9V401.62H66.62V399.58H56.5ZM72.4984 391.76H78.1584V384.86H69.8584V386.96H75.5384V389.7H69.8984V397.5H71.4184C74.4784 397.5 76.9184 397.4 79.6584 396.96L79.4184 394.82C77.0984 395.2 74.9984 395.32 72.4984 395.34V391.76ZM82.0184 383.28V389.92H79.1384V392.06H82.0184V401.76H84.6784V383.28H82.0184ZM97.4969 391.2C97.9169 388.88 97.9169 387.06 97.9169 385.78V384.64H88.4569V386.74H95.3169C95.2969 387.84 95.2169 389.18 94.9169 390.9L97.4969 391.2ZM98.7169 391.94C96.9969 392.18 95.1569 392.32 93.3369 392.4V388.92H90.7569V392.5C89.5569 392.52 88.4169 392.52 87.3969 392.52L87.6369 394.62C90.7969 394.6 95.0769 394.52 98.8769 393.82L98.7169 391.94ZM92.7169 395.86H90.0769V401.4H102.937V399.3H92.7169V395.86ZM102.357 388.9V383.28H99.7169V397.08H102.357V391.08H104.557V388.9H102.357ZM109.735 391.98H115.715V384.86H107.015V386.96H113.015V389.9H107.035V397.48H108.695C112.035 397.48 114.735 397.36 117.735 396.84L117.455 394.7C114.855 395.14 112.535 395.28 109.735 395.3V391.98ZM118.735 383.28V401.76H121.375V383.28H118.735Z" fill="#575467"/>
<path d="M61.96 495.7C59.12 494.74 57.84 492.52 57.8 490.42H61.38V488.32H51.48V490.42H55.1C55.06 492.7 53.72 495.04 50.76 496.04L52.1 498.12C54.24 497.42 55.68 495.94 56.5 494.14C57.28 495.78 58.66 497.1 60.68 497.76L61.96 495.7ZM53.7 501.18H63.62V505.74H66.26V499.08H53.7V501.18ZM63.62 487.32V491.7H60.9V493.82H63.62V498.26H66.26V487.32H63.62ZM71.0184 501.12H81.3784V505.74H84.0184V499.04H71.0184V501.12ZM83.6184 494.8C83.9784 492.5 83.9784 490.74 83.9784 489.38V488.1H71.2984V490.2H81.3784C81.3584 491.42 81.2984 492.92 80.9984 494.8H69.2584V496.9H85.9384V494.8H83.6184ZM98.7569 495.7C95.9169 494.74 94.6369 492.52 94.5969 490.42H98.1769V488.32H88.2769V490.42H91.8969C91.8569 492.7 90.5169 495.04 87.5569 496.04L88.8969 498.12C91.0369 497.42 92.4769 495.94 93.2969 494.14C94.0769 495.78 95.4569 497.1 97.4769 497.76L98.7569 495.7ZM90.4969 501.18H100.417V505.74H103.057V499.08H90.4969V501.18ZM100.417 487.32V491.7H97.6969V493.82H100.417V498.26H103.057V487.32H100.417ZM126.367 488.62H120.227V487.14H117.587V488.62H111.387V490.6H126.367V488.62ZM118.867 503.84C116.307 503.84 115.167 503.54 115.167 502.88C115.167 502.2 116.307 501.92 118.867 501.92C121.427 501.92 122.567 502.2 122.567 502.88C122.567 503.54 121.427 503.84 118.867 503.84ZM118.867 500.02C114.827 500.02 112.487 501 112.487 502.88C112.487 504.76 114.827 505.72 118.867 505.72C122.927 505.72 125.267 504.76 125.267 502.88C125.267 501 122.927 500.02 118.867 500.02ZM115.567 493.72C115.567 493.12 116.627 492.88 118.907 492.88C121.207 492.88 122.247 493.12 122.247 493.72C122.247 494.32 121.207 494.58 118.907 494.58C116.627 494.58 115.567 494.32 115.567 493.72ZM120.227 497.26V496.32C123.347 496.12 125.087 495.26 125.087 493.72C125.087 491.98 122.867 491.1 118.907 491.1C114.967 491.1 112.747 491.98 112.747 493.72C112.747 495.26 114.487 496.12 117.587 496.32V497.26H110.567V499.3H127.247V497.26H120.227ZM133.365 493.38H141.245V495.96H133.365V493.38ZM138.625 501.44V498.06H143.845V488.44H141.245V491.3H133.365V488.44H130.745V498.06H135.985V501.44H128.985V503.58H145.665V501.44H138.625Z" fill="#575467"/>
<path d="M60.74 595.06V597.2H63.62V603.74H66.26V590.3H63.62V595.06H60.74ZM61.96 599.3C59.06 598.32 57.8 596.06 57.8 593.88V593.64H61.38V591.54H51.48V593.64H55.1V593.9C55.1 596.22 53.78 598.64 50.76 599.62L52.1 601.72C54.24 601 55.68 599.54 56.5 597.72C57.3 599.38 58.66 600.7 60.68 601.36L61.96 599.3ZM56.76 606.3V602.62H54.12V608.4H66.68V606.3H56.76ZM81.1984 595.86H73.8984V593.14H81.1984V595.86ZM83.7984 591.08H71.2984V597.94H83.7984V591.08ZM73.8184 603.06H71.1784V608.4H84.0784V606.3H73.8184V603.06ZM69.2384 599.4V601.48H76.4984V604.62H79.1384V601.48H85.9184V599.4H69.2384ZM102.957 590.32H100.297V603.54H102.957V590.32ZM90.4969 596.16C90.4969 594.64 91.5769 593.76 92.9369 593.76C94.3169 593.76 95.3569 594.64 95.3569 596.16C95.3569 597.64 94.3169 598.54 92.9369 598.54C91.5769 598.54 90.4969 597.64 90.4969 596.16ZM97.9369 596.16C97.9369 593.44 95.7569 591.48 92.9369 591.48C90.1169 591.48 87.9169 593.44 87.9169 596.16C87.9169 598.84 90.1169 600.82 92.9369 600.82C95.7569 600.82 97.9369 598.84 97.9369 596.16ZM93.3369 606.3V602.24H90.6969V608.4H103.417V606.3H93.3369ZM115.455 598.64C113.635 598.98 112.015 599.06 109.375 599.08V597.16H114.795V591.34H106.735V593.46H112.195V595.2H106.755V601.2H108.175C111.675 601.2 113.575 601.14 115.715 600.74L115.455 598.64ZM108.855 604.58H118.815V608.74H121.455V602.48H108.855V604.58ZM118.815 590.32V592.84H115.855V594.96H118.815V596.78H115.855V598.88H118.815V601.66H121.455V590.3L118.815 590.32ZM143.905 597.82H133.665V596.44H143.325V594.44H133.665V593.1H143.725V591.02H131.045V599.9H143.905V597.82ZM145.645 601.22H128.965V603.36H135.965V608.74H138.605V603.36H145.645V601.22ZM160.023 590.3V600.2H162.683V590.3H160.023ZM150.443 601V608.5H162.683V601H160.063V602.72H153.063V601H150.443ZM153.063 604.74H160.063V606.4H153.063V604.74ZM152.663 591.06C149.803 591.06 147.643 592.88 147.643 595.4C147.643 597.94 149.803 599.76 152.663 599.76C155.523 599.76 157.663 597.94 157.663 595.4C157.663 592.88 155.523 591.06 152.663 591.06ZM152.663 593.24C154.063 593.24 155.083 594.06 155.083 595.4C155.083 596.78 154.063 597.58 152.663 597.58C151.263 597.58 150.223 596.78 150.223 595.4C150.223 594.06 151.263 593.24 152.663 593.24Z" fill="#575467"/>
<defs>
<filter id="filter0_d" x="-34" y="0" width="482" height="199" filterUnits="userSpaceOnUse" color-interpolation-filters="sRGB">
<feFlood flood-opacity="0" result="BackgroundImageFix"/>
<feColorMatrix in="SourceAlpha" type="matrix" values="0 0 0 0 0 0 0 0 0 0 0 0 0 0 0 0 0 0 127 0" result="hardAlpha"/>
<feOffset dy="19"/>
<feGaussianBlur stdDeviation="29"/>
<feColorMatrix type="matrix" values="0 0 0 0 0.521569 0 0 0 0 0.0941176 0 0 0 0 0.00392157 0 0 0 0.2 0"/>
<feBlend mode="normal" in2="BackgroundImageFix" result="effect1_dropShadow"/>
<feBlend mode="normal" in="SourceGraphic" in2="effect1_dropShadow" result="shape"/>
</filter>
<filter id="filter1_d" x="-34" y="103" width="482" height="199" filterUnits="userSpaceOnUse" color-interpolation-filters="sRGB">
<feFlood flood-opacity="0" result="BackgroundImageFix"/>
<feColorMatrix in="SourceAlpha" type="matrix" values="0 0 0 0 0 0 0 0 0 0 0 0 0 0 0 0 0 0 127 0" result="hardAlpha"/>
<feOffset dy="19"/>
<feGaussianBlur stdDeviation="29"/>
<feColorMatrix type="matrix" values="0 0 0 0 0.521569 0 0 0 0 0.0941176 0 0 0 0 0.00392157 0 0 0 0.2 0"/>
<feBlend mode="normal" in2="BackgroundImageFix" result="effect1_dropShadow"/>
<feBlend mode="normal" in="SourceGraphic" in2="effect1_dropShadow" result="shape"/>
</filter>
<filter id="filter2_d" x="-34" y="207" width="482" height="199" filterUnits="userSpaceOnUse" color-interpolation-filters="sRGB">
<feFlood flood-opacity="0" result="BackgroundImageFix"/>
<feColorMatrix in="SourceAlpha" type="matrix" values="0 0 0 0 0 0 0 0 0 0 0 0 0 0 0 0 0 0 127 0" result="hardAlpha"/>
<feOffset dy="19"/>
<feGaussianBlur stdDeviation="29"/>
<feColorMatrix type="matrix" values="0 0 0 0 0.521569 0 0 0 0 0.0941176 0 0 0 0 0.00392157 0 0 0 0.2 0"/>
<feBlend mode="normal" in2="BackgroundImageFix" result="effect1_dropShadow"/>
<feBlend mode="normal" in="SourceGraphic" in2="effect1_dropShadow" result="shape"/>
</filter>
<filter id="filter3_d" x="-34" y="310" width="482" height="199" filterUnits="userSpaceOnUse" color-interpolation-filters="sRGB">
<feFlood flood-opacity="0" result="BackgroundImageFix"/>
<feColorMatrix in="SourceAlpha" type="matrix" values="0 0 0 0 0 0 0 0 0 0 0 0 0 0 0 0 0 0 127 0" result="hardAlpha"/>
<feOffset dy="19"/>
<feGaussianBlur stdDeviation="29"/>
<feColorMatrix type="matrix" values="0 0 0 0 0.521569 0 0 0 0 0.0941176 0 0 0 0 0.00392157 0 0 0 0.2 0"/>
<feBlend mode="normal" in2="BackgroundImageFix" result="effect1_dropShadow"/>
<feBlend mode="normal" in="SourceGraphic" in2="effect1_dropShadow" result="shape"/>
</filter>
<filter id="filter4_d" x="-34" y="414" width="482" height="199" filterUnits="userSpaceOnUse" color-interpolation-filters="sRGB">
<feFlood flood-opacity="0" result="BackgroundImageFix"/>
<feColorMatrix in="SourceAlpha" type="matrix" values="0 0 0 0 0 0 0 0 0 0 0 0 0 0 0 0 0 0 127 0" result="hardAlpha"/>
<feOffset dy="19"/>
<feGaussianBlur stdDeviation="29"/>
<feColorMatrix type="matrix" values="0 0 0 0 0.521569 0 0 0 0 0.0941176 0 0 0 0 0.00392157 0 0 0 0.2 0"/>
<feBlend mode="normal" in2="BackgroundImageFix" result="effect1_dropShadow"/>
<feBlend mode="normal" in="SourceGraphic" in2="effect1_dropShadow" result="shape"/>
</filter>
<filter id="filter5_d" x="-34" y="517" width="482" height="199" filterUnits="userSpaceOnUse" color-interpolation-filters="sRGB">
<feFlood flood-opacity="0" result="BackgroundImageFix"/>
<feColorMatrix in="SourceAlpha" type="matrix" values="0 0 0 0 0 0 0 0 0 0 0 0 0 0 0 0 0 0 127 0" result="hardAlpha"/>
<feOffset dy="19"/>
<feGaussianBlur stdDeviation="29"/>
<feColorMatrix type="matrix" values="0 0 0 0 0.521569 0 0 0 0 0.0941176 0 0 0 0 0.00392157 0 0 0 0.2 0"/>
<feBlend mode="normal" in2="BackgroundImageFix" result="effect1_dropShadow"/>
<feBlend mode="normal" in="SourceGraphic" in2="effect1_dropShadow" result="shape"/>
</filter>
<filter id="filter6_d" x="285.242" y="21" width="126.759" height="126.759" filterUnits="userSpaceOnUse" color-interpolation-filters="sRGB">
<feFlood flood-opacity="0" result="BackgroundImageFix"/>
<feColorMatrix in="SourceAlpha" type="matrix" values="0 0 0 0 0 0 0 0 0 0 0 0 0 0 0 0 0 0 127 0" result="hardAlpha"/>
<feOffset dy="4"/>
<feGaussianBlur stdDeviation="11"/>
<feColorMatrix type="matrix" values="0 0 0 0 0.754444 0 0 0 0 0.754444 0 0 0 0 0.808333 0 0 0 0.4 0"/>
<feBlend mode="normal" in2="BackgroundImageFix" result="effect1_dropShadow"/>
<feBlend mode="normal" in="SourceGraphic" in2="effect1_dropShadow" result="shape"/>
</filter>
<filter id="filter7_d" x="285" y="124" width="127" height="127" filterUnits="userSpaceOnUse" color-interpolation-filters="sRGB">
<feFlood flood-opacity="0" result="BackgroundImageFix"/>
<feColorMatrix in="SourceAlpha" type="matrix" values="0 0 0 0 0 0 0 0 0 0 0 0 0 0 0 0 0 0 127 0" result="hardAlpha"/>
<feOffset dy="4"/>
<feGaussianBlur stdDeviation="11"/>
<feColorMatrix type="matrix" values="0 0 0 0 0.754444 0 0 0 0 0.754444 0 0 0 0 0.808333 0 0 0 0.4 0"/>
<feBlend mode="normal" in2="BackgroundImageFix" result="effect1_dropShadow"/>
<feBlend mode="normal" in="SourceGraphic" in2="effect1_dropShadow" result="shape"/>
</filter>
<filter id="filter8_d" x="285" y="228" width="127" height="127" filterUnits="userSpaceOnUse" color-interpolation-filters="sRGB">
<feFlood flood-opacity="0" result="BackgroundImageFix"/>
<feColorMatrix in="SourceAlpha" type="matrix" values="0 0 0 0 0 0 0 0 0 0 0 0 0 0 0 0 0 0 127 0" result="hardAlpha"/>
<feOffset dy="4"/>
<feGaussianBlur stdDeviation="11"/>
<feColorMatrix type="matrix" values="0 0 0 0 0.754444 0 0 0 0 0.754444 0 0 0 0 0.808333 0 0 0 0.4 0"/>
<feBlend mode="normal" in2="BackgroundImageFix" result="effect1_dropShadow"/>
<feBlend mode="normal" in="SourceGraphic" in2="effect1_dropShadow" result="shape"/>
</filter>
<filter id="filter9_d" x="285" y="331" width="127" height="127" filterUnits="userSpaceOnUse" color-interpolation-filters="sRGB">
<feFlood flood-opacity="0" result="BackgroundImageFix"/>
<feColorMatrix in="SourceAlpha" type="matrix" values="0 0 0 0 0 0 0 0 0 0 0 0 0 0 0 0 0 0 127 0" result="hardAlpha"/>
<feOffset dy="4"/>
<feGaussianBlur stdDeviation="11"/>
<feColorMatrix type="matrix" values="0 0 0 0 0.754444 0 0 0 0 0.754444 0 0 0 0 0.808333 0 0 0 0.4 0"/>
<feBlend mode="normal" in2="BackgroundImageFix" result="effect1_dropShadow"/>
<feBlend mode="normal" in="SourceGraphic" in2="effect1_dropShadow" result="shape"/>
</filter>
<filter id="filter10_d" x="285" y="435" width="127" height="127" filterUnits="userSpaceOnUse" color-interpolation-filters="sRGB">
<feFlood flood-opacity="0" result="BackgroundImageFix"/>
<feColorMatrix in="SourceAlpha" type="matrix" values="0 0 0 0 0 0 0 0 0 0 0 0 0 0 0 0 0 0 127 0" result="hardAlpha"/>
<feOffset dy="4"/>
<feGaussianBlur stdDeviation="11"/>
<feColorMatrix type="matrix" values="0 0 0 0 0.754444 0 0 0 0 0.754444 0 0 0 0 0.808333 0 0 0 0.4 0"/>
<feBlend mode="normal" in2="BackgroundImageFix" result="effect1_dropShadow"/>
<feBlend mode="normal" in="SourceGraphic" in2="effect1_dropShadow" result="shape"/>
</filter>
<filter id="filter11_d" x="285" y="538" width="127" height="127" filterUnits="userSpaceOnUse" color-interpolation-filters="sRGB">
<feFlood flood-opacity="0" result="BackgroundImageFix"/>
<feColorMatrix in="SourceAlpha" type="matrix" values="0 0 0 0 0 0 0 0 0 0 0 0 0 0 0 0 0 0 127 0" result="hardAlpha"/>
<feOffset dy="4"/>
<feGaussianBlur stdDeviation="11"/>
<feColorMatrix type="matrix" values="0 0 0 0 0.754444 0 0 0 0 0.754444 0 0 0 0 0.808333 0 0 0 0.4 0"/>
<feBlend mode="normal" in2="BackgroundImageFix" result="effect1_dropShadow"/>
<feBlend mode="normal" in="SourceGraphic" in2="effect1_dropShadow" result="shape"/>
</filter>
<clipPath id="clip0">
<rect width="38.1963" height="38.1963" fill="white" transform="translate(329.52 61.2812)"/>
</clipPath>
<clipPath id="clip1">
<rect width="38" height="38" fill="white" transform="translate(330 165)"/>
</clipPath>
<clipPath id="clip2">
<rect width="38" height="38" fill="white" transform="translate(330 268)"/>
</clipPath>
<clipPath id="clip3">
<rect width="38" height="38" fill="white" transform="translate(330 372)"/>
</clipPath>
<clipPath id="clip4">
<rect width="38" height="38" fill="white" transform="translate(330 475)"/>
</clipPath>
<clipPath id="clip5">
<rect width="38" height="38" fill="white" transform="translate(330 579)"/>
</clipPath>
</defs>
</svg>
