<svg width="1093" height="602" viewBox="0 0 1093 602" fill="none" xmlns="http://www.w3.org/2000/svg">
<path d="M655.449 407.378C637.146 423.288 615.121 434.318 591.417 439.443C567.713 444.568 543.099 443.622 519.858 436.694L532.198 395.3C548.466 400.15 565.696 400.812 582.289 397.224C598.882 393.637 614.3 385.916 627.112 374.779L655.449 407.378Z" fill="#341008"/>
<path d="M512.953 434.444C490.091 426.353 469.643 412.618 453.507 394.513C437.371 376.409 426.07 354.522 420.651 330.883L462.753 321.233C466.546 337.78 474.457 353.101 485.752 365.774C497.048 378.447 511.361 388.062 527.364 393.726L512.953 434.444Z" fill="#341008"/>
<path d="M419.657 326.188C415.03 302.382 416.49 277.792 423.904 254.702C431.318 231.611 444.444 210.767 462.064 194.104L491.742 225.487C479.408 237.151 470.22 251.742 465.03 267.906C459.841 284.069 458.818 301.282 462.057 317.946L419.657 326.188Z" fill="#341008"/>
<path d="M467.14 189.527C485.532 173.719 507.619 162.813 531.351 157.82C555.083 152.828 579.692 153.911 602.894 160.969L590.323 202.293C574.082 197.352 556.855 196.594 540.243 200.089C523.63 203.584 508.17 211.218 495.295 222.284L467.14 189.527Z" fill="#D03A3B"/>
<path d="M607.866 162.581C630.796 170.476 651.361 184.036 667.651 202.002C683.941 219.967 695.43 241.757 701.05 265.348L659.032 275.358C655.098 258.844 647.056 243.592 635.653 231.016C624.25 218.44 609.854 208.948 593.803 203.421L607.866 162.581Z" fill="#D03A3B"/>
<path d="M702.324 271.243C706.952 295.049 705.491 319.638 698.077 342.729C690.664 365.82 677.537 386.664 659.917 403.327L630.239 371.943C642.573 360.279 651.762 345.688 656.951 329.525C662.141 313.361 663.163 296.149 659.924 279.485L702.324 271.243Z" fill="#851801"/>
<path d="M669.441 187.458V91.1602H695.619" stroke="#838291" stroke-width="3" stroke-linecap="square" stroke-linejoin="round" stroke-dasharray="6 10"/>
<path d="M734.421 462.327H621.762V452.51" stroke="#838291" stroke-width="3" stroke-linecap="square" stroke-linejoin="round" stroke-dasharray="6 10"/>
<path d="M405.795 258.514L360.918 258.514" stroke="#838291" stroke-width="3" stroke-linecap="square" stroke-linejoin="round" stroke-dasharray="6 10"/>
<path d="M742.836 283.756V341.254H714.32" stroke="#838291" stroke-width="3" stroke-linecap="square" stroke-linejoin="round" stroke-dasharray="6 10"/>
<path d="M452.54 415.58L452.54 474.948L387.562 474.948" stroke="#838291" stroke-width="3" stroke-linecap="square" stroke-linejoin="round" stroke-dasharray="6 10"/>
<g filter="url(#filter0_d)">
<path d="M58 217.896C58 213.478 61.5817 209.896 66 209.896H306.691C331.476 209.896 351.567 229.988 351.567 254.773C351.567 279.558 331.476 299.65 306.691 299.65H66C61.5817 299.65 58 296.068 58 291.65V217.896Z" fill="#F9F9FB"/>
<path d="M59 217.896C59 214.03 62.134 210.896 66 210.896H306.691C330.923 210.896 350.567 230.541 350.567 254.773C350.567 279.005 330.923 298.65 306.691 298.65H66C62.134 298.65 59 295.516 59 291.65V217.896Z" stroke="#341008" stroke-opacity="0.02" stroke-width="2"/>
</g>
<g filter="url(#filter1_d)">
<circle cx="302.952" cy="254.773" r="48.6163" fill="#341008"/>
</g>
<g filter="url(#filter2_d)">
<path d="M107.551 442.279C107.551 437.861 111.133 434.279 115.551 434.279H330.064C354.848 434.279 374.94 454.371 374.94 479.156C374.94 503.94 354.848 524.032 330.064 524.032H115.551C111.133 524.032 107.551 520.451 107.551 516.032V442.279Z" fill="#F9F9FB"/>
<path d="M108.551 442.279C108.551 438.413 111.685 435.279 115.551 435.279H330.064C354.296 435.279 373.94 454.923 373.94 479.156C373.94 503.388 354.296 523.032 330.064 523.032H115.551C111.685 523.032 108.551 519.898 108.551 516.032V442.279Z" stroke="#341008" stroke-opacity="0.02" stroke-width="2"/>
</g>
<g filter="url(#filter3_d)">
<circle cx="326.323" cy="479.155" r="48.6163" fill="#341008"/>
</g>
<g filter="url(#filter4_d)">
<path d="M1035 128.037C1035 132.455 1031.42 136.037 1027 136.037L751.717 136.037C726.932 136.037 706.84 115.945 706.84 91.1606C706.84 66.3759 726.932 46.284 751.717 46.284L1027 46.284C1031.42 46.284 1035 49.8657 1035 54.284V128.037Z" fill="#F9F9FB"/>
<path d="M1034 128.037C1034 131.903 1030.87 135.037 1027 135.037L751.717 135.037C727.484 135.037 707.84 115.393 707.84 91.1606C707.84 66.9282 727.484 47.284 751.717 47.284L1027 47.284C1030.87 47.284 1034 50.418 1034 54.284V128.037Z" stroke="#341008" stroke-opacity="0.02" stroke-width="2"/>
</g>
<g filter="url(#filter5_d)">
<circle cx="754.523" cy="91.1612" r="48.6163" fill="#D03A3B"/>
</g>
<g filter="url(#filter6_d)">
<path d="M1008.36 313.152C1008.36 317.571 1004.77 321.152 1000.36 321.152H797.062C772.277 321.152 752.185 301.06 752.185 276.276C752.185 251.491 772.277 231.399 797.062 231.399L1000.36 231.399C1004.77 231.399 1008.36 234.981 1008.36 239.399V313.152Z" fill="#F9F9FB"/>
<path d="M1007.36 313.152C1007.36 317.018 1004.22 320.152 1000.36 320.152H797.062C772.829 320.152 753.185 300.508 753.185 276.276C753.185 252.043 772.829 232.399 797.062 232.399L1000.36 232.399C1004.22 232.399 1007.36 235.533 1007.36 239.399V313.152Z" stroke="#341008" stroke-opacity="0.02" stroke-width="2"/>
</g>
<g filter="url(#filter7_d)">
<circle cx="800.8" cy="276.276" r="48.6163" fill="#851801"/>
</g>
<g filter="url(#filter8_d)">
<path d="M1026.12 501.074C1026.12 505.493 1022.54 509.074 1018.12 509.074L788.645 509.074C763.861 509.074 743.769 488.982 743.769 464.198C743.769 439.413 763.861 419.321 788.645 419.321H1018.12C1022.54 419.321 1026.12 422.903 1026.12 427.321V501.074Z" fill="#F9F9FB"/>
<path d="M1025.12 501.074C1025.12 504.94 1021.98 508.074 1018.12 508.074L788.645 508.074C764.413 508.074 744.769 488.43 744.769 464.198C744.769 439.965 764.413 420.321 788.645 420.321H1018.12C1021.98 420.321 1025.12 423.455 1025.12 427.321V501.074Z" stroke="#341008" stroke-opacity="0.02" stroke-width="2"/>
</g>
<g filter="url(#filter9_d)">
<circle cx="792.386" cy="464.196" r="48.6163" fill="#341008"/>
</g>
<path d="M521.256 136.038V84.6172H396.91" stroke="#838291" stroke-width="3" stroke-linecap="square" stroke-linejoin="round" stroke-dasharray="6 10"/>
<g filter="url(#filter10_d)">
<path d="M58 47.7402C58 43.3219 61.5817 39.7402 66 39.7402H342.218C367.003 39.7402 387.095 59.8321 387.095 84.6168C387.095 109.401 367.003 129.493 342.218 129.493H66C61.5817 129.493 58 125.912 58 121.493V47.7402Z" fill="#F9F9FB"/>
<path d="M59 47.7402C59 43.8742 62.134 40.7402 66 40.7402H342.218C366.451 40.7402 386.095 60.3844 386.095 84.6168C386.095 108.849 366.451 128.493 342.218 128.493H66C62.134 128.493 59 125.359 59 121.493V47.7402Z" stroke="#341008" stroke-opacity="0.02" stroke-width="2"/>
</g>
<path d="M117.139 84.6422H104.851V82.9862H116.443V80.5862H104.851V78.9782H116.923V76.4822H101.707V87.1382H117.139V84.6422ZM119.227 88.7222H99.2111V91.2902H107.611V97.7462H110.779V91.2902H119.227V88.7222ZM129.425 80.3462H133.817V77.7302H121.673V80.3462H126.257V81.5702C126.257 85.2182 124.457 89.3702 120.833 91.0502L122.609 93.5702C125.129 92.3702 126.905 89.9462 127.889 87.0662C128.873 89.6822 130.601 91.8902 133.049 93.0182L134.801 90.5222C131.177 88.8422 129.425 84.9302 129.425 81.5702V80.3462ZM141.833 84.0422H138.617V75.6182H135.449V97.7222H138.617V86.6582H141.833V84.0422ZM153.351 78.8822C156.231 78.8822 158.079 79.7462 158.079 81.3062C158.079 82.8902 156.231 83.7302 153.351 83.7302C150.447 83.7302 148.599 82.8902 148.599 81.3062C148.599 79.7462 150.447 78.8822 153.351 78.8822ZM153.351 86.2502C158.055 86.2502 161.343 84.3302 161.343 81.3062C161.343 78.3062 158.055 76.3622 153.351 76.3622C148.623 76.3622 145.359 78.3062 145.359 81.3062C145.359 84.3302 148.623 86.2502 153.351 86.2502ZM163.407 87.9062H143.391V90.4742H147.927V97.6982H151.119V90.4742H155.559V97.6982H158.775V90.4742H163.407V87.9062ZM174.086 81.7382H178.598V79.2182H174.086V76.1462H170.918V79.2182H166.31V81.7382H170.918V82.5062C170.918 85.8662 169.19 89.6102 165.566 91.2422L167.27 93.6662C169.79 92.5382 171.566 90.2822 172.55 87.6182C173.534 90.1382 175.286 92.2502 177.782 93.2822L179.462 90.8582C175.838 89.2982 174.086 85.6982 174.086 82.5062V81.7382ZM180.638 75.6182V97.7222H183.806V75.6182H180.638Z" fill="#575467"/>
<path d="M197.569 100.506L199.777 99.5702C197.761 96.0662 196.849 92.0342 196.849 88.0742C196.849 84.1622 197.761 80.1062 199.777 76.6022L197.569 75.6662C195.313 79.3622 193.993 83.2982 193.993 88.0742C193.993 92.8982 195.313 96.7862 197.569 100.506ZM220.895 75.6182H217.895V92.0582H220.895V75.6182ZM204.959 82.7942C204.959 80.9702 205.895 79.9382 207.191 79.9382C208.487 79.9382 209.423 80.9702 209.423 82.7942C209.423 84.5942 208.487 85.6502 207.191 85.6502C205.895 85.6502 204.959 84.5942 204.959 82.7942ZM213.503 84.1382V91.4102H216.455V76.0022H213.503V81.5942H212.135C211.679 79.0022 209.735 77.2262 207.191 77.2262C204.263 77.2262 202.127 79.5302 202.127 82.7942C202.127 86.0822 204.263 88.3862 207.191 88.3862C209.687 88.3862 211.607 86.6822 212.111 84.1382H213.503ZM209.183 94.8182V89.9702H206.015V97.3382H221.447V94.8182H209.183ZM242.974 75.6422H239.974V87.1142H242.974V75.6422ZM233.374 80.3222V82.8422H235.63V86.9462H238.582V76.0502H235.63V80.3222H233.374ZM234.982 84.5942C232.246 83.6342 231.094 81.5702 231.094 79.4342V79.3862H234.31V76.8902H224.542V79.3862H228.022V79.4342C228.022 81.6182 226.798 83.8982 223.894 84.9302L225.406 87.3062C227.446 86.5622 228.79 85.2182 229.582 83.5622C230.35 85.0982 231.622 86.3222 233.542 86.9702L234.982 84.5942ZM231.118 95.0582V93.7622H242.974V87.9062H227.95V90.3302H239.854V91.5302H227.998V97.4582H243.67V95.0582H231.118ZM248.612 100.506C250.892 96.7862 252.212 92.8982 252.212 88.0742C252.212 83.2982 250.892 79.3622 248.612 75.6662L246.428 76.6022C248.444 80.1062 249.356 84.1622 249.356 88.0742C249.356 92.0342 248.444 96.0662 246.428 99.5702L248.612 100.506Z" fill="#8A8A8A"/>
<path d="M77.0121 265.814H80.5641V248.03H77.0121V265.814ZM84.934 265.814H88.486V259.502H90.862C94.678 259.502 97.726 257.678 97.726 253.622C97.726 249.422 94.702 248.03 90.766 248.03H84.934V265.814ZM88.486 256.694V250.862H90.502C92.95 250.862 94.246 251.558 94.246 253.622C94.246 255.662 93.07 256.694 90.622 256.694H88.486ZM107.998 266.15C112.702 266.15 115.942 262.622 115.942 256.862C115.942 251.102 112.702 247.718 107.998 247.718C103.294 247.718 100.054 251.078 100.054 256.862C100.054 262.622 103.294 266.15 107.998 266.15ZM107.998 263.078C105.358 263.078 103.678 260.654 103.678 256.862C103.678 253.046 105.358 250.766 107.998 250.766C110.638 250.766 112.318 253.046 112.318 256.862C112.318 260.654 110.638 263.078 107.998 263.078Z" fill="#8A8A8A"/>
<path d="M125.808 256.718C129.672 256.19 132.384 254.534 133.704 252.278C135.024 254.534 137.736 256.19 141.6 256.718L142.728 254.246C138.24 253.694 135.912 251.534 135.6 249.422H141.864V246.902H125.472V249.422H131.832C131.52 251.534 129.168 253.694 124.656 254.246L125.808 256.718ZM143.688 257.99H123.72V260.51H132.048V267.926H135.216V260.51H143.688V257.99ZM157.582 255.254C158.086 252.47 158.086 250.286 158.086 248.75V247.382H146.734V249.902H154.966C154.942 251.222 154.846 252.83 154.486 254.894L157.582 255.254ZM159.046 256.142C156.982 256.43 154.774 256.598 152.59 256.694V252.518H149.494V256.814C148.054 256.838 146.686 256.838 145.462 256.838L145.75 259.358C149.542 259.334 154.678 259.238 159.238 258.398L159.046 256.142ZM151.846 260.846H148.678V267.494H164.11V264.974H151.846V260.846ZM163.414 252.494V245.75H160.246V262.31H163.414V255.11H166.054V252.494H163.414ZM175.988 247.478H172.796V250.694C172.796 254.798 171.116 259.022 167.396 260.774L169.292 263.342C171.788 262.118 173.444 259.79 174.404 256.982C175.316 259.622 176.876 261.758 179.18 262.934L181.1 260.438C177.548 258.686 175.988 254.678 175.988 250.694V247.478ZM188.372 254.27H185.156V245.774H181.988V267.878H185.156V256.91H188.372V254.27ZM210.68 262.094H213.848V245.774H210.68V250.478H206.624V253.046H210.68V262.094ZM208.568 256.43C205.112 255.206 203.624 252.398 203.624 249.518V247.118H200.408V249.494C200.408 252.638 198.872 255.71 195.224 256.934L196.88 259.406C199.448 258.47 201.152 256.67 202.088 254.39C203 256.43 204.584 258.038 206.888 258.878L208.568 256.43ZM202.424 264.974V260.462H199.256V267.494H214.328V264.974H202.424ZM229.446 251.102V253.67H232.758V258.926H235.926V245.774H232.758V251.102H229.446ZM230.766 255.854C227.406 254.75 225.87 252.158 225.774 249.638H230.07V247.094H218.19V249.638H222.534C222.438 252.398 220.83 255.206 217.326 256.43L218.934 258.926C221.502 258.062 223.254 256.262 224.214 254.03C225.174 255.974 226.83 257.534 229.23 258.326L230.766 255.854ZM228.462 265.502C225.558 265.502 224.046 264.902 224.046 263.654C224.046 262.406 225.558 261.806 228.462 261.806C231.342 261.806 232.854 262.406 232.854 263.654C232.854 264.902 231.342 265.502 228.462 265.502ZM228.462 259.406C223.758 259.406 220.878 260.966 220.878 263.654C220.878 266.342 223.758 267.902 228.462 267.902C233.142 267.902 236.022 266.342 236.022 263.654C236.022 260.966 233.142 259.406 228.462 259.406Z" fill="#575467"/>
<path d="M150.887 480.237C147.479 479.085 145.943 476.421 145.895 473.901H150.191V471.381H138.311V473.901H142.655C142.607 476.637 140.999 479.445 137.447 480.645L139.055 483.141C141.623 482.301 143.351 480.525 144.335 478.365C145.271 480.333 146.927 481.917 149.351 482.709L150.887 480.237ZM140.975 486.813H152.879V492.285H156.047V484.293H140.975V486.813ZM152.879 470.181V475.437H149.615V477.981H152.879V483.309H156.047V470.181H152.879ZM161.757 486.741H174.189V492.285H177.357V484.245H161.757V486.741ZM176.877 479.157C177.309 476.397 177.309 474.285 177.309 472.653V471.117H162.093V473.637H174.189C174.165 475.101 174.093 476.901 173.733 479.157H159.645V481.677H179.661V479.157H176.877ZM195.043 480.237C191.635 479.085 190.099 476.421 190.051 473.901H194.347V471.381H182.467V473.901H186.811C186.763 476.637 185.155 479.445 181.603 480.645L183.211 483.141C185.779 482.301 187.507 480.525 188.491 478.365C189.427 480.333 191.083 481.917 193.507 482.709L195.043 480.237ZM185.131 486.813H197.035V492.285H200.203V484.293H185.131V486.813ZM197.035 470.181V475.437H193.771V477.981H197.035V483.309H200.203V470.181H197.035ZM228.175 471.741H220.807V469.965H217.639V471.741H210.199V474.117H228.175V471.741ZM219.175 490.005C216.103 490.005 214.735 489.645 214.735 488.853C214.735 488.037 216.103 487.701 219.175 487.701C222.247 487.701 223.615 488.037 223.615 488.853C223.615 489.645 222.247 490.005 219.175 490.005ZM219.175 485.421C214.327 485.421 211.519 486.597 211.519 488.853C211.519 491.109 214.327 492.261 219.175 492.261C224.047 492.261 226.855 491.109 226.855 488.853C226.855 486.597 224.047 485.421 219.175 485.421ZM215.215 477.861C215.215 477.141 216.487 476.853 219.223 476.853C221.983 476.853 223.231 477.141 223.231 477.861C223.231 478.581 221.983 478.893 219.223 478.893C216.487 478.893 215.215 478.581 215.215 477.861ZM220.807 482.109V480.981C224.551 480.741 226.639 479.709 226.639 477.861C226.639 475.773 223.975 474.717 219.223 474.717C214.495 474.717 211.831 475.773 211.831 477.861C211.831 479.709 213.919 480.741 217.639 480.981V482.109H209.215V484.557H229.231V482.109H220.807ZM236.573 477.453H246.029V480.549H236.573V477.453ZM242.885 487.125V483.069H249.149V471.525H246.029V474.957H236.573V471.525H233.429V483.069H239.717V487.125H231.317V489.693H251.333V487.125H242.885Z" fill="#575467"/>
<path d="M855.733 91.1852H843.445V89.5292H855.037V87.1292H843.445V85.5212H855.517V83.0252H840.301V93.6812H855.733V91.1852ZM857.821 95.2652H837.805V97.8332H846.205V104.289H849.373V97.8332H857.821V95.2652ZM868.019 86.8892H872.411V84.2732H860.267V86.8892H864.851V88.1132C864.851 91.7612 863.051 95.9132 859.427 97.5932L861.203 100.113C863.723 98.9132 865.499 96.4892 866.483 93.6092C867.467 96.2252 869.195 98.4332 871.643 99.5612L873.395 97.0652C869.771 95.3852 868.019 91.4732 868.019 88.1132V86.8892ZM880.427 90.5852H877.211V82.1612H874.043V104.265H877.211V93.2012H880.427V90.5852ZM891.945 85.4252C894.825 85.4252 896.673 86.2892 896.673 87.8492C896.673 89.4332 894.825 90.2732 891.945 90.2732C889.041 90.2732 887.193 89.4332 887.193 87.8492C887.193 86.2892 889.041 85.4252 891.945 85.4252ZM891.945 92.7932C896.649 92.7932 899.937 90.8732 899.937 87.8492C899.937 84.8492 896.649 82.9052 891.945 82.9052C887.217 82.9052 883.953 84.8492 883.953 87.8492C883.953 90.8732 887.217 92.7932 891.945 92.7932ZM902.001 94.4492H881.985V97.0172H886.521V104.241H889.713V97.0172H894.153V104.241H897.369V97.0172H902.001V94.4492ZM912.679 88.2812H917.191V85.7612H912.679V82.6892H909.511V85.7612H904.903V88.2812H909.511V89.0492C909.511 92.4092 907.783 96.1532 904.159 97.7852L905.863 100.209C908.383 99.0812 910.159 96.8252 911.143 94.1612C912.127 96.6812 913.879 98.7932 916.375 99.8252L918.055 97.4012C914.431 95.8412 912.679 92.2412 912.679 89.0492V88.2812ZM919.231 82.1612V104.265H922.399V82.1612H919.231Z" fill="#575467"/>
<path d="M936.163 107.049L938.371 106.113C936.355 102.609 935.443 98.5772 935.443 94.6172C935.443 90.7052 936.355 86.6492 938.371 83.1452L936.163 82.2092C933.907 85.9052 932.587 89.8412 932.587 94.6172C932.587 99.4412 933.907 103.329 936.163 107.049ZM941.873 84.4412V86.9612H949.241C948.785 91.8572 946.337 95.3132 940.697 98.0252L942.353 100.521C950.201 96.7292 952.481 91.2092 952.481 84.4412H941.873ZM955.865 82.1372V104.241H959.057V82.1372H955.865ZM974.535 91.6412C975.039 88.8572 975.039 86.6732 975.039 85.1372V83.7692H963.687V86.2892H971.919C971.895 87.6092 971.799 89.2172 971.439 91.2812L974.535 91.6412ZM975.999 92.5292C973.935 92.8172 971.727 92.9852 969.543 93.0812V88.9052H966.447V93.2012C965.007 93.2252 963.639 93.2252 962.415 93.2252L962.703 95.7452C966.495 95.7212 971.631 95.6252 976.191 94.7852L975.999 92.5292ZM968.799 97.2332H965.631V103.881H981.063V101.361H968.799V97.2332ZM980.367 88.8812V82.1372H977.199V98.6972H980.367V91.4972H983.007V88.8812H980.367ZM987.205 107.049C989.485 103.329 990.805 99.4412 990.805 94.6172C990.805 89.8412 989.485 85.9052 987.205 82.2092L985.021 83.1452C987.037 86.6492 987.949 90.7052 987.949 94.6172C987.949 98.5772 987.037 102.609 985.021 106.113L987.205 107.049Z" fill="#8A8A8A"/>
<path d="M900.106 267.302H896.938V278.366H900.106V267.302ZM895.186 274.478C892.57 275.006 890.194 275.15 886.186 275.174V270.926H893.434V268.478H883.018V277.622H884.914C889.81 277.622 892.57 277.502 895.498 276.878L895.186 274.478ZM888.538 286.814V285.302H900.106V279.278H885.394V281.702H896.986V283.07H885.418V289.262H900.682V286.814H888.538ZM907.736 277.43H914.528V269.15H904.568V271.67H911.384V274.958H904.616V284.318H906.44C910.112 284.318 913.04 284.198 916.328 283.67L916.04 281.102C913.256 281.558 910.736 281.702 907.736 281.726V277.43ZM919.16 267.254V275.222H915.704V277.79H919.16V289.43H922.352V267.254H919.16ZM937.735 276.758C938.239 273.974 938.239 271.79 938.239 270.254V268.886H926.887V271.406H935.119C935.095 272.726 934.999 274.334 934.639 276.398L937.735 276.758ZM939.199 277.646C937.135 277.934 934.927 278.102 932.743 278.198V274.022H929.647V278.318C928.207 278.342 926.839 278.342 925.615 278.342L925.903 280.862C929.695 280.838 934.831 280.742 939.391 279.902L939.199 277.646ZM931.999 282.35H928.831V288.998H944.263V286.478H931.999V282.35ZM943.567 273.998V267.254H940.399V283.814H943.567V276.614H946.207V273.998H943.567ZM952.421 277.694H959.597V269.15H949.157V271.67H956.357V275.198H949.181V284.294H951.173C955.181 284.294 958.421 284.15 962.021 283.526L961.685 280.958C958.565 281.486 955.781 281.654 952.421 281.678V277.694ZM963.221 267.254V289.43H966.389V267.254H963.221Z" fill="#575467"/>
<path d="M874.927 461.846V464.414H878.383V472.262H881.551V456.134H878.383V461.846H874.927ZM876.391 466.934C872.911 465.758 871.399 463.046 871.399 460.43V460.142H875.695V457.622H863.815V460.142H868.159V460.454C868.159 463.238 866.575 466.142 862.951 467.318L864.559 469.838C867.127 468.974 868.855 467.222 869.839 465.038C870.799 467.03 872.431 468.614 874.855 469.406L876.391 466.934ZM870.151 475.334V470.918H866.983V477.854H882.055V475.334H870.151ZM899.477 462.806H890.717V459.542H899.477V462.806ZM902.597 457.07H887.597V465.302H902.597V457.07ZM890.621 471.446H887.453V477.854H902.933V475.334H890.621V471.446ZM885.125 467.054V469.55H893.837V473.318H897.005V469.55H905.141V467.054H885.125ZM925.587 456.158H922.395V472.022H925.587V456.158ZM910.635 463.166C910.635 461.342 911.931 460.286 913.563 460.286C915.219 460.286 916.467 461.342 916.467 463.166C916.467 464.942 915.219 466.022 913.563 466.022C911.931 466.022 910.635 464.942 910.635 463.166ZM919.563 463.166C919.563 459.902 916.947 457.55 913.563 457.55C910.179 457.55 907.539 459.902 907.539 463.166C907.539 466.382 910.179 468.758 913.563 468.758C916.947 468.758 919.563 466.382 919.563 463.166ZM914.043 475.334V470.462H910.875V477.854H926.139V475.334H914.043ZM940.585 466.142C938.401 466.55 936.457 466.646 933.289 466.67V464.366H939.793V457.382H930.121V459.926H936.673V462.014H930.145V469.214H931.849C936.049 469.214 938.329 469.142 940.897 468.662L940.585 466.142ZM932.665 473.27H944.617V478.262H947.785V470.75H932.665V473.27ZM944.617 456.158V459.182H941.065V461.726H944.617V463.91H941.065V466.43H944.617V469.766H947.785V456.134L944.617 456.158ZM974.725 465.158H962.437V463.502H974.029V461.102H962.437V459.494H974.509V456.998H959.293V467.654H974.725V465.158ZM976.813 469.238H956.797V471.806H965.197V478.262H968.365V471.806H976.813V469.238ZM994.067 456.134V468.014H997.259V456.134H994.067ZM982.571 468.974V477.974H997.259V468.974H994.115V471.038H985.715V468.974H982.571ZM985.715 473.462H994.115V475.454H985.715V473.462ZM985.235 457.046C981.803 457.046 979.211 459.23 979.211 462.254C979.211 465.302 981.803 467.486 985.235 467.486C988.667 467.486 991.235 465.302 991.235 462.254C991.235 459.23 988.667 457.046 985.235 457.046ZM985.235 459.662C986.915 459.662 988.139 460.646 988.139 462.254C988.139 463.91 986.915 464.87 985.235 464.87C983.555 464.87 982.307 463.91 982.307 462.254C982.307 460.646 983.555 459.662 985.235 459.662Z" fill="#575467"/>
<g filter="url(#filter11_d)">
<circle cx="338.48" cy="84.6163" r="48.6163" fill="#D03A3B"/>
</g>
<g clip-path="url(#clip0)">
<path d="M358.121 87.4105C359.664 87.4105 360.914 86.1599 360.914 84.6173C360.914 83.0747 359.664 81.8242 358.121 81.8242C356.579 81.8242 355.328 83.0747 355.328 84.6173C355.328 86.1599 356.579 87.4105 358.121 87.4105Z" fill="white"/>
<path d="M328.781 104.201C330.324 104.201 331.575 102.951 331.575 101.408C331.575 99.8658 330.324 98.6152 328.781 98.6152C327.239 98.6152 325.988 99.8658 325.988 101.408C325.988 102.951 327.239 104.201 328.781 104.201Z" fill="white"/>
<path d="M348.172 104.201C349.715 104.201 350.965 102.951 350.965 101.408C350.965 99.8658 349.715 98.6152 348.172 98.6152C346.629 98.6152 345.379 99.8658 345.379 101.408C345.379 102.951 346.629 104.201 348.172 104.201Z" fill="white"/>
<path d="M348.172 70.6156C349.715 70.6156 350.965 69.365 350.965 67.8224C350.965 66.2798 349.715 65.0293 348.172 65.0293C346.629 65.0293 345.379 66.2798 345.379 67.8224C345.379 69.365 346.629 70.6156 348.172 70.6156Z" fill="white"/>
<path d="M328.781 70.6156C330.324 70.6156 331.575 69.365 331.575 67.8224C331.575 66.2798 330.324 65.0293 328.781 65.0293C327.239 65.0293 325.988 66.2798 325.988 67.8224C325.988 69.365 327.239 70.6156 328.781 70.6156Z" fill="white"/>
<path d="M338.476 88.6405C340.697 88.6405 342.498 86.8396 342.498 84.6181C342.498 82.3966 340.697 80.5957 338.476 80.5957C336.254 80.5957 334.453 82.3966 334.453 84.6181C334.453 86.8396 336.254 88.6405 338.476 88.6405Z" fill="white"/>
<path d="M318.832 87.4105C320.375 87.4105 321.625 86.1599 321.625 84.6173C321.625 83.0747 320.375 81.8242 318.832 81.8242C317.29 81.8242 316.039 83.0747 316.039 84.6173C316.039 86.1599 317.29 87.4105 318.832 87.4105Z" fill="white"/>
<path d="M342.873 79.6311L346.683 73.0344C345.816 72.786 345.038 72.3274 344.407 71.7168L340.598 78.3133C341.445 78.5994 342.217 79.0513 342.873 79.6311Z" fill="white"/>
<path d="M324.094 83.3027C324.199 83.7239 324.256 84.1642 324.256 84.6175C324.256 85.0708 324.199 85.5111 324.094 85.9322H331.954C331.869 85.507 331.823 85.0675 331.823 84.6175C331.823 84.1675 331.869 83.7279 331.954 83.3027H324.094Z" fill="white"/>
<path d="M334.08 79.6308C334.737 79.0512 335.508 78.5995 336.356 78.3136L332.549 71.7188C331.918 72.3291 331.14 72.7875 330.273 73.0357L334.08 79.6308Z" fill="white"/>
<path d="M349.664 96.1974C350.531 96.4457 351.309 96.9042 351.94 97.5147L356.416 89.762C355.562 89.4781 354.802 88.9876 354.195 88.3496L349.664 96.1974Z" fill="white"/>
<path d="M342.873 89.6016C342.216 90.1815 341.445 90.6333 340.598 90.9194L344.407 97.5159C345.038 96.9053 345.816 96.4467 346.683 96.1982L342.873 89.6016Z" fill="white"/>
<path d="M327.291 73.0341C326.424 72.7858 325.646 72.3273 325.015 71.7168L320.539 79.4695C321.393 79.7534 322.153 80.2439 322.76 80.8819L327.291 73.0341Z" fill="white"/>
<path d="M334.08 89.6016L330.273 96.1967C331.14 96.4449 331.918 96.9033 332.549 97.5136L336.356 90.9188C335.508 90.6329 334.737 90.1813 334.08 89.6016Z" fill="white"/>
<path d="M334.043 100.098C334.148 100.519 334.205 100.959 334.205 101.412C334.205 101.866 334.148 102.306 334.043 102.727H342.914C342.808 102.306 342.752 101.866 342.752 101.412C342.752 100.959 342.808 100.519 342.914 100.098H334.043Z" fill="white"/>
<path d="M344.996 83.3027C345.082 83.7279 345.127 84.1675 345.127 84.6175C345.127 85.0675 345.082 85.507 344.996 85.9322H352.863C352.758 85.5111 352.701 85.0708 352.701 84.6175C352.701 84.1642 352.758 83.7239 352.863 83.3027H344.996Z" fill="white"/>
<path d="M322.76 88.3516C322.153 88.9897 321.393 89.4801 320.539 89.7639L325.015 97.5166C325.646 96.9062 326.424 96.4477 327.291 96.1994L322.76 88.3516Z" fill="white"/>
<path d="M354.195 80.8819C354.802 80.2438 355.562 79.7533 356.416 79.4695L351.94 71.7168C351.309 72.3273 350.531 72.7858 349.664 73.0341L354.195 80.8819Z" fill="white"/>
<path d="M342.914 69.1373C342.809 68.7161 342.752 68.2759 342.752 67.8226C342.752 67.3692 342.809 66.929 342.914 66.5078H334.043C334.148 66.929 334.205 67.3692 334.205 67.8226C334.205 68.2759 334.148 68.7161 334.043 69.1373H342.914Z" fill="white"/>
</g>
<g clip-path="url(#clip1)">
<path d="M322.594 257.567C324.137 257.567 325.387 256.316 325.387 254.774C325.387 253.231 324.137 251.98 322.594 251.98C321.051 251.98 319.801 253.231 319.801 254.774C319.801 256.316 321.051 257.567 322.594 257.567Z" fill="white"/>
<path d="M293.254 274.358C294.797 274.358 296.047 273.107 296.047 271.565C296.047 270.022 294.797 268.771 293.254 268.771C291.711 268.771 290.461 270.022 290.461 271.565C290.461 273.107 291.711 274.358 293.254 274.358Z" fill="white"/>
<path d="M312.645 274.358C314.187 274.358 315.438 273.107 315.438 271.565C315.438 270.022 314.187 268.771 312.645 268.771C311.102 268.771 309.852 270.022 309.852 271.565C309.852 273.107 311.102 274.358 312.645 274.358Z" fill="white"/>
<path d="M312.645 240.772C314.187 240.772 315.438 239.521 315.438 237.979C315.438 236.436 314.187 235.186 312.645 235.186C311.102 235.186 309.852 236.436 309.852 237.979C309.852 239.521 311.102 240.772 312.645 240.772Z" fill="white"/>
<path d="M293.254 240.772C294.797 240.772 296.047 239.521 296.047 237.979C296.047 236.436 294.797 235.186 293.254 235.186C291.711 235.186 290.461 236.436 290.461 237.979C290.461 239.521 291.711 240.772 293.254 240.772Z" fill="white"/>
<path d="M302.948 258.797C305.17 258.797 306.971 256.996 306.971 254.774C306.971 252.553 305.17 250.752 302.948 250.752C300.727 250.752 298.926 252.553 298.926 254.774C298.926 256.996 300.727 258.797 302.948 258.797Z" fill="white"/>
<path d="M283.305 257.567C284.847 257.567 286.098 256.316 286.098 254.774C286.098 253.231 284.847 251.98 283.305 251.98C281.762 251.98 280.512 253.231 280.512 254.774C280.512 256.316 281.762 257.567 283.305 257.567Z" fill="white"/>
<path d="M307.346 249.787L311.156 243.191C310.289 242.942 309.511 242.484 308.88 241.873L305.07 248.47C305.918 248.756 306.689 249.208 307.346 249.787Z" fill="white"/>
<path d="M288.566 253.459C288.672 253.88 288.728 254.32 288.728 254.774C288.728 255.227 288.672 255.667 288.566 256.088H296.427C296.341 255.663 296.296 255.224 296.296 254.774C296.296 254.324 296.341 253.884 296.427 253.459H288.566Z" fill="white"/>
<path d="M298.552 249.787C299.209 249.207 299.981 248.756 300.828 248.47L297.022 241.875C296.391 242.485 295.613 242.944 294.746 243.192L298.552 249.787Z" fill="white"/>
<path d="M314.137 266.354C315.003 266.602 315.781 267.06 316.412 267.671L320.888 259.918C320.034 259.634 319.275 259.144 318.668 258.506L314.137 266.354Z" fill="white"/>
<path d="M307.346 259.758C306.689 260.338 305.918 260.79 305.07 261.076L308.88 267.672C309.511 267.062 310.289 266.603 311.156 266.354L307.346 259.758Z" fill="white"/>
<path d="M291.763 243.19C290.897 242.942 290.119 242.484 289.488 241.873L285.012 249.626C285.866 249.91 286.626 250.4 287.232 251.038L291.763 243.19Z" fill="white"/>
<path d="M298.552 259.758L294.746 266.353C295.613 266.601 296.391 267.06 297.022 267.67L300.828 261.075C299.981 260.789 299.209 260.338 298.552 259.758Z" fill="white"/>
<path d="M298.516 270.254C298.621 270.675 298.678 271.115 298.678 271.569C298.678 272.022 298.621 272.462 298.516 272.883H307.386C307.281 272.462 307.224 272.022 307.224 271.569C307.224 271.115 307.281 270.675 307.386 270.254H298.516Z" fill="white"/>
<path d="M309.469 253.459C309.554 253.884 309.6 254.324 309.6 254.774C309.6 255.224 309.554 255.663 309.469 256.088H317.336C317.23 255.667 317.174 255.227 317.174 254.774C317.174 254.32 317.23 253.88 317.336 253.459H309.469Z" fill="white"/>
<path d="M287.232 258.508C286.626 259.146 285.866 259.636 285.012 259.92L289.488 267.673C290.119 267.062 290.897 266.604 291.763 266.356L287.232 258.508Z" fill="white"/>
<path d="M318.668 251.038C319.275 250.4 320.034 249.91 320.888 249.626L316.412 241.873C315.781 242.484 315.003 242.942 314.137 243.19L318.668 251.038Z" fill="white"/>
<path d="M307.386 239.294C307.281 238.872 307.224 238.432 307.224 237.979C307.224 237.525 307.281 237.085 307.386 236.664H298.516C298.621 237.085 298.678 237.525 298.678 237.979C298.678 238.432 298.621 238.872 298.516 239.294H307.386Z" fill="white"/>
</g>
<g clip-path="url(#clip2)">
<path d="M345.969 481.95C347.512 481.95 348.762 480.699 348.762 479.156C348.762 477.614 347.512 476.363 345.969 476.363C344.426 476.363 343.176 477.614 343.176 479.156C343.176 480.699 344.426 481.95 345.969 481.95Z" fill="white"/>
<path d="M316.629 498.741C318.172 498.741 319.422 497.49 319.422 495.947C319.422 494.405 318.172 493.154 316.629 493.154C315.086 493.154 313.836 494.405 313.836 495.947C313.836 497.49 315.086 498.741 316.629 498.741Z" fill="white"/>
<path d="M336.02 498.741C337.562 498.741 338.813 497.49 338.813 495.947C338.813 494.405 337.562 493.154 336.02 493.154C334.477 493.154 333.227 494.405 333.227 495.947C333.227 497.49 334.477 498.741 336.02 498.741Z" fill="white"/>
<path d="M336.02 465.155C337.562 465.155 338.813 463.904 338.813 462.361C338.813 460.819 337.562 459.568 336.02 459.568C334.477 459.568 333.227 460.819 333.227 462.361C333.227 463.904 334.477 465.155 336.02 465.155Z" fill="white"/>
<path d="M316.629 465.155C318.172 465.155 319.422 463.904 319.422 462.361C319.422 460.819 318.172 459.568 316.629 459.568C315.086 459.568 313.836 460.819 313.836 462.361C313.836 463.904 315.086 465.155 316.629 465.155Z" fill="white"/>
<path d="M326.323 483.18C328.545 483.18 330.346 481.379 330.346 479.157C330.346 476.936 328.545 475.135 326.323 475.135C324.102 475.135 322.301 476.936 322.301 479.157C322.301 481.379 324.102 483.18 326.323 483.18Z" fill="white"/>
<path d="M306.68 481.95C308.222 481.95 309.473 480.699 309.473 479.156C309.473 477.614 308.222 476.363 306.68 476.363C305.137 476.363 303.887 477.614 303.887 479.156C303.887 480.699 305.137 481.95 306.68 481.95Z" fill="white"/>
<path d="M330.721 474.17L334.531 467.573C333.664 467.325 332.886 466.866 332.255 466.256L328.445 472.852C329.293 473.138 330.064 473.59 330.721 474.17Z" fill="white"/>
<path d="M311.941 477.842C312.047 478.263 312.103 478.703 312.103 479.157C312.103 479.61 312.047 480.05 311.941 480.471H319.802C319.716 480.046 319.671 479.607 319.671 479.157C319.671 478.707 319.716 478.267 319.802 477.842H311.941Z" fill="white"/>
<path d="M321.927 474.17C322.584 473.59 323.356 473.139 324.203 472.853L320.397 466.258C319.766 466.868 318.988 467.327 318.121 467.575L321.927 474.17Z" fill="white"/>
<path d="M337.512 490.736C338.378 490.985 339.156 491.443 339.787 492.054L344.263 484.301C343.409 484.017 342.65 483.527 342.043 482.889L337.512 490.736Z" fill="white"/>
<path d="M330.721 484.141C330.064 484.721 329.293 485.172 328.445 485.458L332.255 492.055C332.886 491.444 333.664 490.986 334.531 490.737L330.721 484.141Z" fill="white"/>
<path d="M315.138 467.573C314.272 467.325 313.494 466.866 312.863 466.256L308.387 474.009C309.241 474.292 310.001 474.783 310.607 475.421L315.138 467.573Z" fill="white"/>
<path d="M321.927 484.141L318.121 490.736C318.988 490.984 319.766 491.442 320.397 492.053L324.203 485.458C323.356 485.172 322.584 484.72 321.927 484.141Z" fill="white"/>
<path d="M321.891 494.637C321.996 495.058 322.053 495.498 322.053 495.951C322.053 496.405 321.996 496.845 321.891 497.266H330.761C330.656 496.845 330.599 496.405 330.599 495.951C330.599 495.498 330.656 495.058 330.761 494.637H321.891Z" fill="white"/>
<path d="M332.844 477.842C332.929 478.267 332.975 478.707 332.975 479.157C332.975 479.607 332.929 480.046 332.844 480.471H340.711C340.605 480.05 340.549 479.61 340.549 479.157C340.549 478.703 340.605 478.263 340.711 477.842H332.844Z" fill="white"/>
<path d="M310.607 482.891C310.001 483.529 309.241 484.019 308.387 484.303L312.863 492.056C313.494 491.445 314.272 490.987 315.138 490.738L310.607 482.891Z" fill="white"/>
<path d="M342.043 475.421C342.65 474.783 343.409 474.292 344.263 474.009L339.787 466.256C339.156 466.866 338.378 467.325 337.512 467.573L342.043 475.421Z" fill="white"/>
<path d="M330.761 463.676C330.656 463.255 330.599 462.815 330.599 462.362C330.599 461.908 330.656 461.468 330.761 461.047H321.891C321.996 461.468 322.053 461.908 322.053 462.362C322.053 462.815 321.996 463.255 321.891 463.676H330.761Z" fill="white"/>
</g>
<g clip-path="url(#clip3)">
<path d="M812.031 466.993C813.574 466.993 814.825 465.742 814.825 464.199C814.825 462.657 813.574 461.406 812.031 461.406C810.489 461.406 809.238 462.657 809.238 464.199C809.238 465.742 810.489 466.993 812.031 466.993Z" fill="white"/>
<path d="M782.692 483.784C784.234 483.784 785.485 482.533 785.485 480.99C785.485 479.448 784.234 478.197 782.692 478.197C781.149 478.197 779.898 479.448 779.898 480.99C779.898 482.533 781.149 483.784 782.692 483.784Z" fill="white"/>
<path d="M802.082 483.784C803.625 483.784 804.875 482.533 804.875 480.99C804.875 479.448 803.625 478.197 802.082 478.197C800.54 478.197 799.289 479.448 799.289 480.99C799.289 482.533 800.54 483.784 802.082 483.784Z" fill="white"/>
<path d="M802.082 450.198C803.625 450.198 804.875 448.947 804.875 447.404C804.875 445.862 803.625 444.611 802.082 444.611C800.54 444.611 799.289 445.862 799.289 447.404C799.289 448.947 800.54 450.198 802.082 450.198Z" fill="white"/>
<path d="M782.692 450.198C784.234 450.198 785.485 448.947 785.485 447.404C785.485 445.862 784.234 444.611 782.692 444.611C781.149 444.611 779.898 445.862 779.898 447.404C779.898 448.947 781.149 450.198 782.692 450.198Z" fill="white"/>
<path d="M792.386 468.223C794.607 468.223 796.408 466.422 796.408 464.2C796.408 461.979 794.607 460.178 792.386 460.178C790.164 460.178 788.363 461.979 788.363 464.2C788.363 466.422 790.164 468.223 792.386 468.223Z" fill="white"/>
<path d="M772.742 466.993C774.285 466.993 775.535 465.742 775.535 464.199C775.535 462.657 774.285 461.406 772.742 461.406C771.2 461.406 769.949 462.657 769.949 464.199C769.949 465.742 771.2 466.993 772.742 466.993Z" fill="white"/>
<path d="M796.783 459.213L800.593 452.616C799.727 452.368 798.949 451.909 798.318 451.299L794.508 457.895C795.355 458.181 796.127 458.633 796.783 459.213Z" fill="white"/>
<path d="M778.004 462.885C778.109 463.306 778.166 463.746 778.166 464.2C778.166 464.653 778.109 465.093 778.004 465.514H785.864C785.779 465.089 785.733 464.65 785.733 464.2C785.733 463.75 785.779 463.31 785.864 462.885H778.004Z" fill="white"/>
<path d="M787.99 459.213C788.647 458.633 789.418 458.182 790.266 457.896L786.459 451.301C785.828 451.911 785.05 452.37 784.184 452.618L787.99 459.213Z" fill="white"/>
<path d="M803.574 475.779C804.441 476.028 805.219 476.486 805.85 477.097L810.326 469.344C809.472 469.06 808.712 468.57 808.105 467.932L803.574 475.779Z" fill="white"/>
<path d="M796.783 469.184C796.127 469.763 795.355 470.215 794.508 470.501L798.318 477.098C798.949 476.487 799.727 476.029 800.593 475.78L796.783 469.184Z" fill="white"/>
<path d="M781.201 452.616C780.334 452.368 779.556 451.909 778.925 451.299L774.449 459.052C775.303 459.335 776.063 459.826 776.67 460.464L781.201 452.616Z" fill="white"/>
<path d="M787.99 469.184L784.184 475.779C785.05 476.027 785.828 476.485 786.46 477.096L790.266 470.501C789.418 470.215 788.647 469.763 787.99 469.184Z" fill="white"/>
<path d="M787.953 479.68C788.058 480.101 788.115 480.541 788.115 480.994C788.115 481.448 788.058 481.888 787.953 482.309H796.824C796.719 481.888 796.662 481.448 796.662 480.994C796.662 480.541 796.719 480.101 796.824 479.68H787.953Z" fill="white"/>
<path d="M798.906 462.885C798.992 463.31 799.037 463.75 799.037 464.2C799.037 464.65 798.992 465.089 798.906 465.514H806.773C806.668 465.093 806.611 464.653 806.611 464.2C806.611 463.746 806.668 463.306 806.773 462.885H798.906Z" fill="white"/>
<path d="M776.67 467.934C776.063 468.572 775.303 469.062 774.449 469.346L778.925 477.099C779.556 476.488 780.334 476.03 781.201 475.781L776.67 467.934Z" fill="white"/>
<path d="M808.105 460.464C808.712 459.826 809.472 459.335 810.326 459.052L805.85 451.299C805.219 451.909 804.441 452.368 803.574 452.616L808.105 460.464Z" fill="white"/>
<path d="M796.824 448.719C796.719 448.298 796.662 447.858 796.662 447.405C796.662 446.951 796.719 446.511 796.824 446.09H787.953C788.058 446.511 788.115 446.951 788.115 447.405C788.115 447.858 788.058 448.298 787.953 448.719H796.824Z" fill="white"/>
</g>
<g clip-path="url(#clip4)">
<path d="M820.445 279.071C821.988 279.071 823.239 277.82 823.239 276.278C823.239 274.735 821.988 273.484 820.445 273.484C818.903 273.484 817.652 274.735 817.652 276.278C817.652 277.82 818.903 279.071 820.445 279.071Z" fill="white"/>
<path d="M791.106 295.862C792.648 295.862 793.899 294.611 793.899 293.069C793.899 291.526 792.648 290.275 791.106 290.275C789.563 290.275 788.312 291.526 788.312 293.069C788.312 294.611 789.563 295.862 791.106 295.862Z" fill="white"/>
<path d="M810.496 295.862C812.039 295.862 813.289 294.611 813.289 293.069C813.289 291.526 812.039 290.275 810.496 290.275C808.954 290.275 807.703 291.526 807.703 293.069C807.703 294.611 808.954 295.862 810.496 295.862Z" fill="white"/>
<path d="M810.496 262.276C812.039 262.276 813.289 261.025 813.289 259.483C813.289 257.94 812.039 256.689 810.496 256.689C808.954 256.689 807.703 257.94 807.703 259.483C807.703 261.025 808.954 262.276 810.496 262.276Z" fill="white"/>
<path d="M791.106 262.276C792.648 262.276 793.899 261.025 793.899 259.483C793.899 257.94 792.648 256.689 791.106 256.689C789.563 256.689 788.312 257.94 788.312 259.483C788.312 261.025 789.563 262.276 791.106 262.276Z" fill="white"/>
<path d="M800.8 280.301C803.021 280.301 804.822 278.5 804.822 276.278C804.822 274.057 803.021 272.256 800.8 272.256C798.578 272.256 796.777 274.057 796.777 276.278C796.777 278.5 798.578 280.301 800.8 280.301Z" fill="white"/>
<path d="M781.156 279.071C782.699 279.071 783.95 277.82 783.95 276.278C783.95 274.735 782.699 273.484 781.156 273.484C779.614 273.484 778.363 274.735 778.363 276.278C778.363 277.82 779.614 279.071 781.156 279.071Z" fill="white"/>
<path d="M805.197 271.291L809.007 264.695C808.141 264.446 807.363 263.988 806.732 263.377L802.922 269.973C803.769 270.26 804.541 270.711 805.197 271.291Z" fill="white"/>
<path d="M786.418 274.963C786.523 275.384 786.58 275.824 786.58 276.278C786.58 276.731 786.523 277.171 786.418 277.592H794.278C794.193 277.167 794.147 276.728 794.147 276.278C794.147 275.828 794.193 275.388 794.278 274.963H786.418Z" fill="white"/>
<path d="M796.404 271.291C797.061 270.711 797.832 270.26 798.68 269.974L794.873 263.379C794.242 263.989 793.464 264.448 792.598 264.696L796.404 271.291Z" fill="white"/>
<path d="M811.988 287.858C812.855 288.106 813.633 288.564 814.264 289.175L818.74 281.422C817.886 281.138 817.126 280.648 816.519 280.01L811.988 287.858Z" fill="white"/>
<path d="M805.197 281.262C804.541 281.842 803.769 282.293 802.922 282.58L806.732 289.176C807.363 288.565 808.141 288.107 809.007 287.858L805.197 281.262Z" fill="white"/>
<path d="M789.615 264.694C788.748 264.446 787.97 263.987 787.339 263.377L782.863 271.13C783.717 271.414 784.477 271.904 785.084 272.542L789.615 264.694Z" fill="white"/>
<path d="M796.404 281.262L792.598 287.857C793.464 288.105 794.242 288.563 794.874 289.174L798.68 282.579C797.832 282.293 797.061 281.841 796.404 281.262Z" fill="white"/>
<path d="M796.367 291.758C796.472 292.179 796.529 292.619 796.529 293.073C796.529 293.526 796.473 293.966 796.367 294.387H805.238C805.133 293.966 805.076 293.526 805.076 293.073C805.076 292.619 805.133 292.179 805.238 291.758H796.367Z" fill="white"/>
<path d="M807.32 274.963C807.406 275.388 807.451 275.828 807.451 276.278C807.451 276.728 807.406 277.167 807.32 277.592H815.187C815.082 277.171 815.025 276.731 815.025 276.278C815.025 275.824 815.082 275.384 815.187 274.963H807.32Z" fill="white"/>
<path d="M785.084 280.012C784.477 280.65 783.717 281.14 782.863 281.424L787.339 289.177C787.97 288.566 788.748 288.108 789.615 287.86L785.084 280.012Z" fill="white"/>
<path d="M816.519 272.542C817.126 271.904 817.886 271.413 818.74 271.13L814.264 263.377C813.633 263.987 812.855 264.446 811.988 264.694L816.519 272.542Z" fill="white"/>
<path d="M805.238 260.797C805.133 260.376 805.076 259.936 805.076 259.483C805.076 259.029 805.133 258.589 805.238 258.168H796.367C796.472 258.589 796.529 259.029 796.529 259.483C796.529 259.936 796.473 260.376 796.367 260.797H805.238Z" fill="white"/>
</g>
<g clip-path="url(#clip5)">
<path d="M774.164 93.9554C775.707 93.9554 776.957 92.7049 776.957 91.1623C776.957 89.6197 775.707 88.3691 774.164 88.3691C772.622 88.3691 771.371 89.6197 771.371 91.1623C771.371 92.7049 772.622 93.9554 774.164 93.9554Z" fill="white"/>
<path d="M744.824 110.746C746.367 110.746 747.618 109.496 747.618 107.953C747.618 106.411 746.367 105.16 744.824 105.16C743.282 105.16 742.031 106.411 742.031 107.953C742.031 109.496 743.282 110.746 744.824 110.746Z" fill="white"/>
<path d="M764.215 110.746C765.758 110.746 767.008 109.496 767.008 107.953C767.008 106.411 765.758 105.16 764.215 105.16C762.672 105.16 761.422 106.411 761.422 107.953C761.422 109.496 762.672 110.746 764.215 110.746Z" fill="white"/>
<path d="M764.215 77.1605C765.758 77.1605 767.008 75.9099 767.008 74.3673C767.008 72.8247 765.758 71.5742 764.215 71.5742C762.672 71.5742 761.422 72.8247 761.422 74.3673C761.422 75.9099 762.672 77.1605 764.215 77.1605Z" fill="white"/>
<path d="M744.824 77.1605C746.367 77.1605 747.618 75.9099 747.618 74.3673C747.618 72.8247 746.367 71.5742 744.824 71.5742C743.282 71.5742 742.031 72.8247 742.031 74.3673C742.031 75.9099 743.282 77.1605 744.824 77.1605Z" fill="white"/>
<path d="M754.519 95.1854C756.74 95.1854 758.541 93.3846 758.541 91.163C758.541 88.9415 756.74 87.1406 754.519 87.1406C752.297 87.1406 750.496 88.9415 750.496 91.163C750.496 93.3846 752.297 95.1854 754.519 95.1854Z" fill="white"/>
<path d="M734.875 93.9554C736.418 93.9554 737.668 92.7049 737.668 91.1623C737.668 89.6197 736.418 88.3691 734.875 88.3691C733.333 88.3691 732.082 89.6197 732.082 91.1623C732.082 92.7049 733.333 93.9554 734.875 93.9554Z" fill="white"/>
<path d="M758.916 86.176L762.726 79.5794C761.859 79.331 761.081 78.8723 760.45 78.2617L756.641 84.8582C757.488 85.1443 758.26 85.5962 758.916 86.176Z" fill="white"/>
<path d="M740.137 89.8477C740.242 90.2688 740.299 90.7091 740.299 91.1624C740.299 91.6157 740.242 92.056 740.137 92.4771H747.997C747.911 92.052 747.866 91.6124 747.866 91.1624C747.866 90.7124 747.912 90.2728 747.997 89.8477H740.137Z" fill="white"/>
<path d="M750.123 86.1757C750.78 85.5961 751.551 85.1444 752.398 84.8585L748.592 78.2637C747.961 78.8741 747.183 79.3325 746.316 79.5806L750.123 86.1757Z" fill="white"/>
<path d="M765.707 102.742C766.574 102.991 767.352 103.449 767.983 104.06L772.459 96.3069C771.605 96.023 770.845 95.5325 770.238 94.8945L765.707 102.742Z" fill="white"/>
<path d="M758.916 96.1465C758.259 96.7264 757.488 97.1782 756.641 97.4643L760.45 104.061C761.081 103.45 761.859 102.992 762.726 102.743L758.916 96.1465Z" fill="white"/>
<path d="M743.334 79.579C742.467 79.3307 741.689 78.8722 741.058 78.2617L736.582 86.0144C737.436 86.2983 738.196 86.7888 738.803 87.4268L743.334 79.579Z" fill="white"/>
<path d="M750.123 96.1465L746.316 102.742C747.183 102.99 747.961 103.448 748.592 104.059L752.399 97.4637C751.551 97.1779 750.78 96.7262 750.123 96.1465Z" fill="white"/>
<path d="M750.086 106.643C750.191 107.064 750.248 107.504 750.248 107.957C750.248 108.411 750.191 108.851 750.086 109.272H758.957C758.851 108.851 758.795 108.411 758.795 107.957C758.795 107.504 758.851 107.064 758.957 106.643H750.086Z" fill="white"/>
<path d="M761.039 89.8477C761.125 90.2728 761.17 90.7124 761.17 91.1624C761.17 91.6124 761.125 92.052 761.039 92.4771H768.906C768.801 92.056 768.744 91.6157 768.744 91.1624C768.744 90.7091 768.801 90.2688 768.906 89.8477H761.039Z" fill="white"/>
<path d="M738.803 94.8965C738.196 95.5346 737.436 96.0251 736.582 96.3089L741.058 104.062C741.689 103.451 742.467 102.993 743.334 102.744L738.803 94.8965Z" fill="white"/>
<path d="M770.238 87.4268C770.845 86.7887 771.605 86.2982 772.459 86.0144L767.983 78.2617C767.352 78.8722 766.574 79.3307 765.707 79.579L770.238 87.4268Z" fill="white"/>
<path d="M758.957 75.6822C758.852 75.2611 758.795 74.8208 758.795 74.3675C758.795 73.9142 758.852 73.4739 758.957 73.0527H750.086C750.191 73.4739 750.248 73.9142 750.248 74.3675C750.248 74.8208 750.191 75.2611 750.086 75.6822H758.957Z" fill="white"/>
</g>
<defs>
<filter id="filter0_d" x="0" y="170.896" width="409.567" height="205.753" filterUnits="userSpaceOnUse" color-interpolation-filters="sRGB">
<feFlood flood-opacity="0" result="BackgroundImageFix"/>
<feColorMatrix in="SourceAlpha" type="matrix" values="0 0 0 0 0 0 0 0 0 0 0 0 0 0 0 0 0 0 127 0" result="hardAlpha"/>
<feOffset dy="19"/>
<feGaussianBlur stdDeviation="29"/>
<feColorMatrix type="matrix" values="0 0 0 0 0.521569 0 0 0 0 0.0941176 0 0 0 0 0.00392157 0 0 0 0.2 0"/>
<feBlend mode="normal" in2="BackgroundImageFix" result="effect1_dropShadow"/>
<feBlend mode="normal" in="SourceGraphic" in2="effect1_dropShadow" result="shape"/>
</filter>
<filter id="filter1_d" x="232.336" y="188.156" width="141.233" height="141.233" filterUnits="userSpaceOnUse" color-interpolation-filters="sRGB">
<feFlood flood-opacity="0" result="BackgroundImageFix"/>
<feColorMatrix in="SourceAlpha" type="matrix" values="0 0 0 0 0 0 0 0 0 0 0 0 0 0 0 0 0 0 127 0" result="hardAlpha"/>
<feOffset dy="4"/>
<feGaussianBlur stdDeviation="11"/>
<feColorMatrix type="matrix" values="0 0 0 0 0.754444 0 0 0 0 0.754444 0 0 0 0 0.808333 0 0 0 0.4 0"/>
<feBlend mode="normal" in2="BackgroundImageFix" result="effect1_dropShadow"/>
<feBlend mode="normal" in="SourceGraphic" in2="effect1_dropShadow" result="shape"/>
</filter>
<filter id="filter2_d" x="49.5508" y="395.279" width="383.389" height="205.753" filterUnits="userSpaceOnUse" color-interpolation-filters="sRGB">
<feFlood flood-opacity="0" result="BackgroundImageFix"/>
<feColorMatrix in="SourceAlpha" type="matrix" values="0 0 0 0 0 0 0 0 0 0 0 0 0 0 0 0 0 0 127 0" result="hardAlpha"/>
<feOffset dy="19"/>
<feGaussianBlur stdDeviation="29"/>
<feColorMatrix type="matrix" values="0 0 0 0 0.521569 0 0 0 0 0.0941176 0 0 0 0 0.00392157 0 0 0 0.2 0"/>
<feBlend mode="normal" in2="BackgroundImageFix" result="effect1_dropShadow"/>
<feBlend mode="normal" in="SourceGraphic" in2="effect1_dropShadow" result="shape"/>
</filter>
<filter id="filter3_d" x="255.707" y="412.539" width="141.233" height="141.233" filterUnits="userSpaceOnUse" color-interpolation-filters="sRGB">
<feFlood flood-opacity="0" result="BackgroundImageFix"/>
<feColorMatrix in="SourceAlpha" type="matrix" values="0 0 0 0 0 0 0 0 0 0 0 0 0 0 0 0 0 0 127 0" result="hardAlpha"/>
<feOffset dy="4"/>
<feGaussianBlur stdDeviation="11"/>
<feColorMatrix type="matrix" values="0 0 0 0 0.754444 0 0 0 0 0.754444 0 0 0 0 0.808333 0 0 0 0.4 0"/>
<feBlend mode="normal" in2="BackgroundImageFix" result="effect1_dropShadow"/>
<feBlend mode="normal" in="SourceGraphic" in2="effect1_dropShadow" result="shape"/>
</filter>
<filter id="filter4_d" x="648.84" y="7.2832" width="444.16" height="205.753" filterUnits="userSpaceOnUse" color-interpolation-filters="sRGB">
<feFlood flood-opacity="0" result="BackgroundImageFix"/>
<feColorMatrix in="SourceAlpha" type="matrix" values="0 0 0 0 0 0 0 0 0 0 0 0 0 0 0 0 0 0 127 0" result="hardAlpha"/>
<feOffset dy="19"/>
<feGaussianBlur stdDeviation="29"/>
<feColorMatrix type="matrix" values="0 0 0 0 0.521569 0 0 0 0 0.0941176 0 0 0 0 0.00392157 0 0 0 0.2 0"/>
<feBlend mode="normal" in2="BackgroundImageFix" result="effect1_dropShadow"/>
<feBlend mode="normal" in="SourceGraphic" in2="effect1_dropShadow" result="shape"/>
</filter>
<filter id="filter5_d" x="683.906" y="24.5449" width="141.233" height="141.233" filterUnits="userSpaceOnUse" color-interpolation-filters="sRGB">
<feFlood flood-opacity="0" result="BackgroundImageFix"/>
<feColorMatrix in="SourceAlpha" type="matrix" values="0 0 0 0 0 0 0 0 0 0 0 0 0 0 0 0 0 0 127 0" result="hardAlpha"/>
<feOffset dy="4"/>
<feGaussianBlur stdDeviation="11"/>
<feColorMatrix type="matrix" values="0 0 0 0 0.754444 0 0 0 0 0.754444 0 0 0 0 0.808333 0 0 0 0.4 0"/>
<feBlend mode="normal" in2="BackgroundImageFix" result="effect1_dropShadow"/>
<feBlend mode="normal" in="SourceGraphic" in2="effect1_dropShadow" result="shape"/>
</filter>
<filter id="filter6_d" x="694.184" y="192.398" width="372.17" height="205.753" filterUnits="userSpaceOnUse" color-interpolation-filters="sRGB">
<feFlood flood-opacity="0" result="BackgroundImageFix"/>
<feColorMatrix in="SourceAlpha" type="matrix" values="0 0 0 0 0 0 0 0 0 0 0 0 0 0 0 0 0 0 127 0" result="hardAlpha"/>
<feOffset dy="19"/>
<feGaussianBlur stdDeviation="29"/>
<feColorMatrix type="matrix" values="0 0 0 0 0.521569 0 0 0 0 0.0941176 0 0 0 0 0.00392157 0 0 0 0.2 0"/>
<feBlend mode="normal" in2="BackgroundImageFix" result="effect1_dropShadow"/>
<feBlend mode="normal" in="SourceGraphic" in2="effect1_dropShadow" result="shape"/>
</filter>
<filter id="filter7_d" x="730.184" y="209.66" width="141.233" height="141.233" filterUnits="userSpaceOnUse" color-interpolation-filters="sRGB">
<feFlood flood-opacity="0" result="BackgroundImageFix"/>
<feColorMatrix in="SourceAlpha" type="matrix" values="0 0 0 0 0 0 0 0 0 0 0 0 0 0 0 0 0 0 127 0" result="hardAlpha"/>
<feOffset dy="4"/>
<feGaussianBlur stdDeviation="11"/>
<feColorMatrix type="matrix" values="0 0 0 0 0.754444 0 0 0 0 0.754444 0 0 0 0 0.808333 0 0 0 0.4 0"/>
<feBlend mode="normal" in2="BackgroundImageFix" result="effect1_dropShadow"/>
<feBlend mode="normal" in="SourceGraphic" in2="effect1_dropShadow" result="shape"/>
</filter>
<filter id="filter8_d" x="685.77" y="380.32" width="398.348" height="205.753" filterUnits="userSpaceOnUse" color-interpolation-filters="sRGB">
<feFlood flood-opacity="0" result="BackgroundImageFix"/>
<feColorMatrix in="SourceAlpha" type="matrix" values="0 0 0 0 0 0 0 0 0 0 0 0 0 0 0 0 0 0 127 0" result="hardAlpha"/>
<feOffset dy="19"/>
<feGaussianBlur stdDeviation="29"/>
<feColorMatrix type="matrix" values="0 0 0 0 0.521569 0 0 0 0 0.0941176 0 0 0 0 0.00392157 0 0 0 0.2 0"/>
<feBlend mode="normal" in2="BackgroundImageFix" result="effect1_dropShadow"/>
<feBlend mode="normal" in="SourceGraphic" in2="effect1_dropShadow" result="shape"/>
</filter>
<filter id="filter9_d" x="721.77" y="397.58" width="141.233" height="141.233" filterUnits="userSpaceOnUse" color-interpolation-filters="sRGB">
<feFlood flood-opacity="0" result="BackgroundImageFix"/>
<feColorMatrix in="SourceAlpha" type="matrix" values="0 0 0 0 0 0 0 0 0 0 0 0 0 0 0 0 0 0 127 0" result="hardAlpha"/>
<feOffset dy="4"/>
<feGaussianBlur stdDeviation="11"/>
<feColorMatrix type="matrix" values="0 0 0 0 0.754444 0 0 0 0 0.754444 0 0 0 0 0.808333 0 0 0 0.4 0"/>
<feBlend mode="normal" in2="BackgroundImageFix" result="effect1_dropShadow"/>
<feBlend mode="normal" in="SourceGraphic" in2="effect1_dropShadow" result="shape"/>
</filter>
<filter id="filter10_d" x="0" y="0.740234" width="445.095" height="205.753" filterUnits="userSpaceOnUse" color-interpolation-filters="sRGB">
<feFlood flood-opacity="0" result="BackgroundImageFix"/>
<feColorMatrix in="SourceAlpha" type="matrix" values="0 0 0 0 0 0 0 0 0 0 0 0 0 0 0 0 0 0 127 0" result="hardAlpha"/>
<feOffset dy="19"/>
<feGaussianBlur stdDeviation="29"/>
<feColorMatrix type="matrix" values="0 0 0 0 0.521569 0 0 0 0 0.0941176 0 0 0 0 0.00392157 0 0 0 0.2 0"/>
<feBlend mode="normal" in2="BackgroundImageFix" result="effect1_dropShadow"/>
<feBlend mode="normal" in="SourceGraphic" in2="effect1_dropShadow" result="shape"/>
</filter>
<filter id="filter11_d" x="267.863" y="18" width="141.233" height="141.233" filterUnits="userSpaceOnUse" color-interpolation-filters="sRGB">
<feFlood flood-opacity="0" result="BackgroundImageFix"/>
<feColorMatrix in="SourceAlpha" type="matrix" values="0 0 0 0 0 0 0 0 0 0 0 0 0 0 0 0 0 0 127 0" result="hardAlpha"/>
<feOffset dy="4"/>
<feGaussianBlur stdDeviation="11"/>
<feColorMatrix type="matrix" values="0 0 0 0 0.754444 0 0 0 0 0.754444 0 0 0 0 0.808333 0 0 0 0.4 0"/>
<feBlend mode="normal" in2="BackgroundImageFix" result="effect1_dropShadow"/>
<feBlend mode="normal" in="SourceGraphic" in2="effect1_dropShadow" result="shape"/>
</filter>
<clipPath id="clip0">
<rect width="44.8766" height="44.8766" fill="white" transform="translate(316.039 62.1777)"/>
</clipPath>
<clipPath id="clip1">
<rect width="44.8766" height="44.8766" fill="white" transform="translate(280.512 232.334)"/>
</clipPath>
<clipPath id="clip2">
<rect width="44.8766" height="44.8766" fill="white" transform="translate(303.887 456.717)"/>
</clipPath>
<clipPath id="clip3">
<rect width="44.8766" height="44.8766" fill="white" transform="translate(769.949 441.76)"/>
</clipPath>
<clipPath id="clip4">
<rect width="44.8766" height="44.8766" fill="white" transform="translate(778.363 253.838)"/>
</clipPath>
<clipPath id="clip5">
<rect width="44.8766" height="44.8766" fill="white" transform="translate(732.082 68.7227)"/>
</clipPath>
</defs>
</svg>
