<svg width="482" height="1193" viewBox="0 0 482 1193" fill="none" xmlns="http://www.w3.org/2000/svg">
<path d="M361.059 321.112C337.795 341.334 309.801 355.353 279.672 361.867C249.544 368.381 218.259 367.179 188.719 358.373L204.403 305.761C225.081 311.925 246.981 312.767 268.071 308.207C289.16 303.647 308.757 293.834 325.041 279.678L361.059 321.112Z" fill="#341008"/>
<path d="M179.943 355.514C150.885 345.23 124.896 327.772 104.386 304.761C83.8771 281.75 69.5126 253.931 62.6258 223.886L116.138 211.62C120.959 232.652 131.014 252.125 145.371 268.233C159.727 284.34 177.92 296.561 198.26 303.76L179.943 355.514Z" fill="#341008"/>
<path d="M61.3622 217.918C55.4807 187.66 57.3375 156.407 66.7603 127.058C76.1832 97.709 92.8668 71.2159 115.263 50.0369L152.984 89.9258C137.307 104.751 125.628 123.296 119.032 143.84C112.436 164.385 111.136 186.262 115.254 207.443L61.3622 217.918Z" fill="#341008"/>
<path d="M121.714 44.2198C145.09 24.1274 173.163 10.2653 203.327 3.91969C233.491 -2.42589 264.77 -1.04931 294.26 7.92171L278.282 60.4452C257.639 54.1655 235.744 53.2019 214.629 57.6438C193.514 62.0857 173.863 71.7892 157.5 85.8539L121.714 44.2198Z" fill="#D03A3B"/>
<path d="M300.579 9.9701C329.724 20.0055 355.862 37.2403 376.567 60.0751C397.273 82.91 411.875 110.605 419.018 140.59L365.613 153.313C360.612 132.323 350.391 112.937 335.897 96.9526C321.403 80.9682 303.107 68.9039 282.705 61.8791L300.579 9.9701Z" fill="#D03A3B"/>
<path d="M420.638 148.082C426.519 178.34 424.663 209.594 415.24 238.942C405.817 268.291 389.133 294.784 366.737 315.963L329.016 276.074C344.693 261.249 356.372 242.704 362.968 222.16C369.564 201.615 370.864 179.738 366.746 158.557L420.638 148.082Z" fill="#851801"/>
<g filter="url(#filter0_d)">
<path d="M58 428C58 423.582 61.5817 420 66 420H376C402.51 420 424 441.49 424 468C424 494.51 402.51 516 376 516H66C61.5817 516 58 512.418 58 508V428Z" fill="#F9F9FB"/>
<path d="M59 428C59 424.134 62.134 421 66 421H376C401.957 421 423 442.043 423 468C423 493.957 401.957 515 376 515H66C62.134 515 59 511.866 59 508V428Z" stroke="#341008" stroke-opacity="0.02" stroke-width="2"/>
</g>
<g filter="url(#filter1_d)">
<path d="M58 548C58 543.582 61.5817 540 66 540H376C402.51 540 424 561.49 424 588C424 614.51 402.51 636 376 636H66C61.5817 636 58 632.418 58 628V548Z" fill="#F9F9FB"/>
<path d="M59 548C59 544.134 62.134 541 66 541H376C401.957 541 423 562.043 423 588C423 613.957 401.957 635 376 635H66C62.134 635 59 631.866 59 628V548Z" stroke="#341008" stroke-opacity="0.02" stroke-width="2"/>
</g>
<g filter="url(#filter2_d)">
<path d="M58 668C58 663.582 61.5817 660 66 660H376C402.51 660 424 681.49 424 708C424 734.51 402.51 756 376 756H66C61.5817 756 58 752.418 58 748V668Z" fill="#F9F9FB"/>
<path d="M59 668C59 664.134 62.134 661 66 661H376C401.957 661 423 682.043 423 708C423 733.957 401.957 755 376 755H66C62.134 755 59 751.866 59 748V668Z" stroke="#341008" stroke-opacity="0.02" stroke-width="2"/>
</g>
<g filter="url(#filter3_d)">
<path d="M58 788C58 783.582 61.5817 780 66 780H376C402.51 780 424 801.49 424 828C424 854.51 402.51 876 376 876H66C61.5817 876 58 872.418 58 868V788Z" fill="#F9F9FB"/>
<path d="M59 788C59 784.134 62.134 781 66 781H376C401.957 781 423 802.043 423 828C423 853.957 401.957 875 376 875H66C62.134 875 59 871.866 59 868V788Z" stroke="#341008" stroke-opacity="0.02" stroke-width="2"/>
</g>
<g filter="url(#filter4_d)">
<path d="M58 908C58 903.582 61.5817 900 66 900H376C402.51 900 424 921.49 424 948C424 974.51 402.51 996 376 996H66C61.5817 996 58 992.418 58 988V908Z" fill="#F9F9FB"/>
<path d="M59 908C59 904.134 62.134 901 66 901H376C401.957 901 423 922.043 423 948C423 973.957 401.957 995 376 995H66C62.134 995 59 991.866 59 988V908Z" stroke="#341008" stroke-opacity="0.02" stroke-width="2"/>
</g>
<g filter="url(#filter5_d)">
<path d="M58 1028C58 1023.58 61.5817 1020 66 1020H376C402.51 1020 424 1041.49 424 1068C424 1094.51 402.51 1116 376 1116H66C61.5817 1116 58 1112.42 58 1108V1028Z" fill="#F9F9FB"/>
<path d="M59 1028C59 1024.13 62.134 1021 66 1021H376C401.957 1021 423 1042.04 423 1068C423 1093.96 401.957 1115 376 1115H66C62.134 1115 59 1111.87 59 1108V1028Z" stroke="#341008" stroke-opacity="0.02" stroke-width="2"/>
</g>
<g filter="url(#filter6_d)">
<circle cx="376" cy="468" r="48" fill="#D03A3B"/>
</g>
<g clip-path="url(#clip0)">
<path d="M395.391 470.758C396.914 470.758 398.148 469.523 398.148 468C398.148 466.477 396.914 465.242 395.391 465.242C393.867 465.242 392.633 466.477 392.633 468C392.633 469.523 393.867 470.758 395.391 470.758Z" fill="white"/>
<path d="M366.422 487.336C367.945 487.336 369.18 486.101 369.18 484.578C369.18 483.055 367.945 481.82 366.422 481.82C364.899 481.82 363.664 483.055 363.664 484.578C363.664 486.101 364.899 487.336 366.422 487.336Z" fill="white"/>
<path d="M385.566 487.336C387.089 487.336 388.324 486.101 388.324 484.578C388.324 483.055 387.089 481.82 385.566 481.82C384.043 481.82 382.809 483.055 382.809 484.578C382.809 486.101 384.043 487.336 385.566 487.336Z" fill="white"/>
<path d="M385.566 454.176C387.089 454.176 388.324 452.941 388.324 451.418C388.324 449.895 387.089 448.66 385.566 448.66C384.043 448.66 382.809 449.895 382.809 451.418C382.809 452.941 384.043 454.176 385.566 454.176Z" fill="white"/>
<path d="M366.422 454.176C367.945 454.176 369.18 452.941 369.18 451.418C369.18 449.895 367.945 448.66 366.422 448.66C364.899 448.66 363.664 449.895 363.664 451.418C363.664 452.941 364.899 454.176 366.422 454.176Z" fill="white"/>
<path d="M375.991 471.972C378.184 471.972 379.962 470.194 379.962 468.001C379.962 465.807 378.184 464.029 375.991 464.029C373.798 464.029 372.02 465.807 372.02 468.001C372.02 470.194 373.798 471.972 375.991 471.972Z" fill="white"/>
<path d="M356.598 470.758C358.121 470.758 359.355 469.523 359.355 468C359.355 466.477 358.121 465.242 356.598 465.242C355.075 465.242 353.84 466.477 353.84 468C353.84 469.523 355.075 470.758 356.598 470.758Z" fill="white"/>
<path d="M380.333 463.078L384.094 456.565C383.239 456.319 382.47 455.866 381.847 455.264L378.086 461.777C378.923 462.059 379.684 462.505 380.333 463.078Z" fill="white"/>
<path d="M361.789 466.701C361.893 467.117 361.949 467.552 361.949 467.999C361.949 468.447 361.893 468.882 361.789 469.297H369.55C369.465 468.878 369.42 468.444 369.42 467.999C369.42 467.555 369.465 467.121 369.55 466.701H361.789Z" fill="white"/>
<path d="M371.649 463.075C372.297 462.503 373.059 462.057 373.896 461.775L370.138 455.264C369.515 455.866 368.746 456.319 367.891 456.564L371.649 463.075Z" fill="white"/>
<path d="M387.039 479.434C387.895 479.679 388.663 480.132 389.286 480.734L393.705 473.08C392.862 472.8 392.112 472.315 391.513 471.686L387.039 479.434Z" fill="white"/>
<path d="M380.332 472.92C379.684 473.492 378.923 473.939 378.086 474.221L381.847 480.734C382.47 480.131 383.239 479.678 384.094 479.433L380.332 472.92Z" fill="white"/>
<path d="M364.951 456.564C364.096 456.319 363.327 455.866 362.704 455.264L358.285 462.918C359.128 463.198 359.879 463.683 360.478 464.313L364.951 456.564Z" fill="white"/>
<path d="M371.653 472.922L367.895 479.433C368.75 479.678 369.518 480.131 370.142 480.734L373.9 474.222C373.063 473.94 372.301 473.494 371.653 472.922Z" fill="white"/>
<path d="M371.617 483.283C371.721 483.699 371.777 484.134 371.777 484.581C371.777 485.029 371.721 485.464 371.617 485.879H380.375C380.272 485.464 380.216 485.029 380.216 484.581C380.216 484.134 380.272 483.699 380.375 483.283H371.617Z" fill="white"/>
<path d="M382.43 466.701C382.514 467.121 382.559 467.555 382.559 467.999C382.559 468.444 382.514 468.878 382.43 469.297H390.197C390.093 468.882 390.037 468.447 390.037 467.999C390.037 467.552 390.093 467.117 390.197 466.701H382.43Z" fill="white"/>
<path d="M360.478 471.686C359.879 472.316 359.128 472.8 358.285 473.08L362.704 480.734C363.327 480.132 364.096 479.679 364.951 479.434L360.478 471.686Z" fill="white"/>
<path d="M391.513 464.313C392.112 463.683 392.862 463.198 393.705 462.918L389.286 455.264C388.663 455.866 387.895 456.319 387.039 456.564L391.513 464.313Z" fill="white"/>
<path d="M380.376 452.717C380.272 452.301 380.216 451.867 380.216 451.419C380.216 450.972 380.272 450.537 380.376 450.121H371.617C371.721 450.537 371.777 450.972 371.777 451.419C371.777 451.867 371.721 452.301 371.617 452.717H380.376Z" fill="white"/>
</g>
<g filter="url(#filter7_d)">
<circle cx="376" cy="588" r="48" fill="#341008"/>
</g>
<g filter="url(#filter8_d)">
<circle cx="376" cy="708" r="48" fill="#341008"/>
</g>
<g filter="url(#filter9_d)">
<circle cx="376" cy="828" r="48" fill="#341008"/>
</g>
<g filter="url(#filter10_d)">
<circle cx="376" cy="948" r="48" fill="#D03A3B"/>
</g>
<g filter="url(#filter11_d)">
<circle cx="376" cy="1068" r="48" fill="#851801"/>
</g>
<g clip-path="url(#clip1)">
<path d="M395.391 590.758C396.914 590.758 398.148 589.523 398.148 588C398.148 586.477 396.914 585.242 395.391 585.242C393.867 585.242 392.633 586.477 392.633 588C392.633 589.523 393.867 590.758 395.391 590.758Z" fill="white"/>
<path d="M366.422 607.336C367.945 607.336 369.18 606.101 369.18 604.578C369.18 603.055 367.945 601.82 366.422 601.82C364.899 601.82 363.664 603.055 363.664 604.578C363.664 606.101 364.899 607.336 366.422 607.336Z" fill="white"/>
<path d="M385.566 607.336C387.089 607.336 388.324 606.101 388.324 604.578C388.324 603.055 387.089 601.82 385.566 601.82C384.043 601.82 382.809 603.055 382.809 604.578C382.809 606.101 384.043 607.336 385.566 607.336Z" fill="white"/>
<path d="M385.566 574.176C387.089 574.176 388.324 572.941 388.324 571.418C388.324 569.895 387.089 568.66 385.566 568.66C384.043 568.66 382.809 569.895 382.809 571.418C382.809 572.941 384.043 574.176 385.566 574.176Z" fill="white"/>
<path d="M366.422 574.176C367.945 574.176 369.18 572.941 369.18 571.418C369.18 569.895 367.945 568.66 366.422 568.66C364.899 568.66 363.664 569.895 363.664 571.418C363.664 572.941 364.899 574.176 366.422 574.176Z" fill="white"/>
<path d="M375.991 591.972C378.184 591.972 379.962 590.194 379.962 588.001C379.962 585.807 378.184 584.029 375.991 584.029C373.798 584.029 372.02 585.807 372.02 588.001C372.02 590.194 373.798 591.972 375.991 591.972Z" fill="white"/>
<path d="M356.598 590.758C358.121 590.758 359.355 589.523 359.355 588C359.355 586.477 358.121 585.242 356.598 585.242C355.075 585.242 353.84 586.477 353.84 588C353.84 589.523 355.075 590.758 356.598 590.758Z" fill="white"/>
<path d="M380.333 583.078L384.094 576.565C383.239 576.319 382.47 575.866 381.847 575.264L378.086 581.777C378.923 582.059 379.684 582.505 380.333 583.078Z" fill="white"/>
<path d="M361.789 586.701C361.893 587.117 361.949 587.552 361.949 587.999C361.949 588.447 361.893 588.882 361.789 589.297H369.55C369.465 588.878 369.42 588.444 369.42 587.999C369.42 587.555 369.465 587.121 369.55 586.701H361.789Z" fill="white"/>
<path d="M371.649 583.075C372.297 582.503 373.059 582.057 373.896 581.775L370.138 575.264C369.515 575.866 368.746 576.319 367.891 576.564L371.649 583.075Z" fill="white"/>
<path d="M387.039 599.434C387.895 599.679 388.663 600.132 389.286 600.734L393.705 593.08C392.862 592.8 392.112 592.315 391.513 591.686L387.039 599.434Z" fill="white"/>
<path d="M380.332 592.92C379.684 593.492 378.923 593.939 378.086 594.221L381.847 600.734C382.47 600.131 383.239 599.678 384.094 599.433L380.332 592.92Z" fill="white"/>
<path d="M364.951 576.564C364.096 576.319 363.327 575.866 362.704 575.264L358.285 582.918C359.128 583.198 359.879 583.683 360.478 584.313L364.951 576.564Z" fill="white"/>
<path d="M371.653 592.922L367.895 599.433C368.75 599.678 369.518 600.131 370.142 600.734L373.9 594.222C373.063 593.94 372.301 593.494 371.653 592.922Z" fill="white"/>
<path d="M371.617 603.283C371.721 603.699 371.777 604.134 371.777 604.581C371.777 605.029 371.721 605.464 371.617 605.879H380.375C380.272 605.464 380.216 605.029 380.216 604.581C380.216 604.134 380.272 603.699 380.375 603.283H371.617Z" fill="white"/>
<path d="M382.43 586.701C382.514 587.121 382.559 587.555 382.559 587.999C382.559 588.444 382.514 588.878 382.43 589.297H390.197C390.093 588.882 390.037 588.447 390.037 587.999C390.037 587.552 390.093 587.117 390.197 586.701H382.43Z" fill="white"/>
<path d="M360.478 591.686C359.879 592.316 359.128 592.8 358.285 593.08L362.704 600.734C363.327 600.132 364.096 599.679 364.951 599.434L360.478 591.686Z" fill="white"/>
<path d="M391.513 584.313C392.112 583.683 392.862 583.198 393.705 582.918L389.286 575.264C388.663 575.866 387.895 576.319 387.039 576.564L391.513 584.313Z" fill="white"/>
<path d="M380.376 572.717C380.272 572.301 380.216 571.867 380.216 571.419C380.216 570.972 380.272 570.537 380.376 570.121H371.617C371.721 570.537 371.777 570.972 371.777 571.419C371.777 571.867 371.721 572.301 371.617 572.717H380.376Z" fill="white"/>
</g>
<g clip-path="url(#clip2)">
<path d="M395.391 710.758C396.914 710.758 398.148 709.523 398.148 708C398.148 706.477 396.914 705.242 395.391 705.242C393.867 705.242 392.633 706.477 392.633 708C392.633 709.523 393.867 710.758 395.391 710.758Z" fill="white"/>
<path d="M366.422 727.336C367.945 727.336 369.18 726.101 369.18 724.578C369.18 723.055 367.945 721.82 366.422 721.82C364.899 721.82 363.664 723.055 363.664 724.578C363.664 726.101 364.899 727.336 366.422 727.336Z" fill="white"/>
<path d="M385.566 727.336C387.089 727.336 388.324 726.101 388.324 724.578C388.324 723.055 387.089 721.82 385.566 721.82C384.043 721.82 382.809 723.055 382.809 724.578C382.809 726.101 384.043 727.336 385.566 727.336Z" fill="white"/>
<path d="M385.566 694.176C387.089 694.176 388.324 692.941 388.324 691.418C388.324 689.895 387.089 688.66 385.566 688.66C384.043 688.66 382.809 689.895 382.809 691.418C382.809 692.941 384.043 694.176 385.566 694.176Z" fill="white"/>
<path d="M366.422 694.176C367.945 694.176 369.18 692.941 369.18 691.418C369.18 689.895 367.945 688.66 366.422 688.66C364.899 688.66 363.664 689.895 363.664 691.418C363.664 692.941 364.899 694.176 366.422 694.176Z" fill="white"/>
<path d="M375.991 711.972C378.184 711.972 379.962 710.194 379.962 708.001C379.962 705.807 378.184 704.029 375.991 704.029C373.798 704.029 372.02 705.807 372.02 708.001C372.02 710.194 373.798 711.972 375.991 711.972Z" fill="white"/>
<path d="M356.598 710.758C358.121 710.758 359.355 709.523 359.355 708C359.355 706.477 358.121 705.242 356.598 705.242C355.075 705.242 353.84 706.477 353.84 708C353.84 709.523 355.075 710.758 356.598 710.758Z" fill="white"/>
<path d="M380.333 703.078L384.094 696.565C383.239 696.319 382.47 695.866 381.847 695.264L378.086 701.777C378.923 702.059 379.684 702.505 380.333 703.078Z" fill="white"/>
<path d="M361.789 706.701C361.893 707.117 361.949 707.552 361.949 707.999C361.949 708.447 361.893 708.882 361.789 709.297H369.55C369.465 708.878 369.42 708.444 369.42 707.999C369.42 707.555 369.465 707.121 369.55 706.701H361.789Z" fill="white"/>
<path d="M371.649 703.075C372.297 702.503 373.059 702.057 373.896 701.775L370.138 695.264C369.515 695.866 368.746 696.319 367.891 696.564L371.649 703.075Z" fill="white"/>
<path d="M387.039 719.434C387.895 719.679 388.663 720.132 389.286 720.734L393.705 713.08C392.862 712.8 392.112 712.315 391.513 711.686L387.039 719.434Z" fill="white"/>
<path d="M380.332 712.92C379.684 713.492 378.923 713.939 378.086 714.221L381.847 720.734C382.47 720.131 383.239 719.678 384.094 719.433L380.332 712.92Z" fill="white"/>
<path d="M364.951 696.564C364.096 696.319 363.327 695.866 362.704 695.264L358.285 702.918C359.128 703.198 359.879 703.683 360.478 704.313L364.951 696.564Z" fill="white"/>
<path d="M371.653 712.922L367.895 719.433C368.75 719.678 369.518 720.131 370.142 720.734L373.9 714.222C373.063 713.94 372.301 713.494 371.653 712.922Z" fill="white"/>
<path d="M371.617 723.283C371.721 723.699 371.777 724.134 371.777 724.581C371.777 725.029 371.721 725.464 371.617 725.879H380.375C380.272 725.464 380.216 725.029 380.216 724.581C380.216 724.134 380.272 723.699 380.375 723.283H371.617Z" fill="white"/>
<path d="M382.43 706.701C382.514 707.121 382.559 707.555 382.559 707.999C382.559 708.444 382.514 708.878 382.43 709.297H390.197C390.093 708.882 390.037 708.447 390.037 707.999C390.037 707.552 390.093 707.117 390.197 706.701H382.43Z" fill="white"/>
<path d="M360.478 711.686C359.879 712.316 359.128 712.8 358.285 713.08L362.704 720.734C363.327 720.132 364.096 719.679 364.951 719.434L360.478 711.686Z" fill="white"/>
<path d="M391.513 704.313C392.112 703.683 392.862 703.198 393.705 702.918L389.286 695.264C388.663 695.866 387.895 696.319 387.039 696.564L391.513 704.313Z" fill="white"/>
<path d="M380.376 692.717C380.272 692.301 380.216 691.867 380.216 691.419C380.216 690.972 380.272 690.537 380.376 690.121H371.617C371.721 690.537 371.777 690.972 371.777 691.419C371.777 691.867 371.721 692.301 371.617 692.717H380.376Z" fill="white"/>
</g>
<g clip-path="url(#clip3)">
<path d="M395.391 830.758C396.914 830.758 398.148 829.523 398.148 828C398.148 826.477 396.914 825.242 395.391 825.242C393.867 825.242 392.633 826.477 392.633 828C392.633 829.523 393.867 830.758 395.391 830.758Z" fill="white"/>
<path d="M366.422 847.336C367.945 847.336 369.18 846.101 369.18 844.578C369.18 843.055 367.945 841.82 366.422 841.82C364.899 841.82 363.664 843.055 363.664 844.578C363.664 846.101 364.899 847.336 366.422 847.336Z" fill="white"/>
<path d="M385.566 847.336C387.089 847.336 388.324 846.101 388.324 844.578C388.324 843.055 387.089 841.82 385.566 841.82C384.043 841.82 382.809 843.055 382.809 844.578C382.809 846.101 384.043 847.336 385.566 847.336Z" fill="white"/>
<path d="M385.566 814.176C387.089 814.176 388.324 812.941 388.324 811.418C388.324 809.895 387.089 808.66 385.566 808.66C384.043 808.66 382.809 809.895 382.809 811.418C382.809 812.941 384.043 814.176 385.566 814.176Z" fill="white"/>
<path d="M366.422 814.176C367.945 814.176 369.18 812.941 369.18 811.418C369.18 809.895 367.945 808.66 366.422 808.66C364.899 808.66 363.664 809.895 363.664 811.418C363.664 812.941 364.899 814.176 366.422 814.176Z" fill="white"/>
<path d="M375.991 831.972C378.184 831.972 379.962 830.194 379.962 828.001C379.962 825.807 378.184 824.029 375.991 824.029C373.798 824.029 372.02 825.807 372.02 828.001C372.02 830.194 373.798 831.972 375.991 831.972Z" fill="white"/>
<path d="M356.598 830.758C358.121 830.758 359.355 829.523 359.355 828C359.355 826.477 358.121 825.242 356.598 825.242C355.075 825.242 353.84 826.477 353.84 828C353.84 829.523 355.075 830.758 356.598 830.758Z" fill="white"/>
<path d="M380.333 823.078L384.094 816.565C383.239 816.319 382.47 815.866 381.847 815.264L378.086 821.777C378.923 822.059 379.684 822.505 380.333 823.078Z" fill="white"/>
<path d="M361.789 826.701C361.893 827.117 361.949 827.552 361.949 827.999C361.949 828.447 361.893 828.882 361.789 829.297H369.55C369.465 828.878 369.42 828.444 369.42 827.999C369.42 827.555 369.465 827.121 369.55 826.701H361.789Z" fill="white"/>
<path d="M371.649 823.075C372.297 822.503 373.059 822.057 373.896 821.775L370.138 815.264C369.515 815.866 368.746 816.319 367.891 816.564L371.649 823.075Z" fill="white"/>
<path d="M387.039 839.434C387.895 839.679 388.663 840.132 389.286 840.734L393.705 833.08C392.862 832.8 392.112 832.315 391.513 831.686L387.039 839.434Z" fill="white"/>
<path d="M380.332 832.92C379.684 833.492 378.923 833.939 378.086 834.221L381.847 840.734C382.47 840.131 383.239 839.678 384.094 839.433L380.332 832.92Z" fill="white"/>
<path d="M364.951 816.564C364.096 816.319 363.327 815.866 362.704 815.264L358.285 822.918C359.128 823.198 359.879 823.683 360.478 824.313L364.951 816.564Z" fill="white"/>
<path d="M371.653 832.922L367.895 839.433C368.75 839.678 369.518 840.131 370.142 840.734L373.9 834.222C373.063 833.94 372.301 833.494 371.653 832.922Z" fill="white"/>
<path d="M371.617 843.283C371.721 843.699 371.777 844.134 371.777 844.581C371.777 845.029 371.721 845.464 371.617 845.879H380.375C380.272 845.464 380.216 845.029 380.216 844.581C380.216 844.134 380.272 843.699 380.375 843.283H371.617Z" fill="white"/>
<path d="M382.43 826.701C382.514 827.121 382.559 827.555 382.559 827.999C382.559 828.444 382.514 828.878 382.43 829.297H390.197C390.093 828.882 390.037 828.447 390.037 827.999C390.037 827.552 390.093 827.117 390.197 826.701H382.43Z" fill="white"/>
<path d="M360.478 831.686C359.879 832.316 359.128 832.8 358.285 833.08L362.704 840.734C363.327 840.132 364.096 839.679 364.951 839.434L360.478 831.686Z" fill="white"/>
<path d="M391.513 824.313C392.112 823.683 392.862 823.198 393.705 822.918L389.286 815.264C388.663 815.866 387.895 816.319 387.039 816.564L391.513 824.313Z" fill="white"/>
<path d="M380.376 812.717C380.272 812.301 380.216 811.867 380.216 811.419C380.216 810.972 380.272 810.537 380.376 810.121H371.617C371.721 810.537 371.777 810.972 371.777 811.419C371.777 811.867 371.721 812.301 371.617 812.717H380.376Z" fill="white"/>
</g>
<g clip-path="url(#clip4)">
<path d="M395.391 950.758C396.914 950.758 398.148 949.523 398.148 948C398.148 946.477 396.914 945.242 395.391 945.242C393.867 945.242 392.633 946.477 392.633 948C392.633 949.523 393.867 950.758 395.391 950.758Z" fill="white"/>
<path d="M366.422 967.336C367.945 967.336 369.18 966.101 369.18 964.578C369.18 963.055 367.945 961.82 366.422 961.82C364.899 961.82 363.664 963.055 363.664 964.578C363.664 966.101 364.899 967.336 366.422 967.336Z" fill="white"/>
<path d="M385.566 967.336C387.089 967.336 388.324 966.101 388.324 964.578C388.324 963.055 387.089 961.82 385.566 961.82C384.043 961.82 382.809 963.055 382.809 964.578C382.809 966.101 384.043 967.336 385.566 967.336Z" fill="white"/>
<path d="M385.566 934.176C387.089 934.176 388.324 932.941 388.324 931.418C388.324 929.895 387.089 928.66 385.566 928.66C384.043 928.66 382.809 929.895 382.809 931.418C382.809 932.941 384.043 934.176 385.566 934.176Z" fill="white"/>
<path d="M366.422 934.176C367.945 934.176 369.18 932.941 369.18 931.418C369.18 929.895 367.945 928.66 366.422 928.66C364.899 928.66 363.664 929.895 363.664 931.418C363.664 932.941 364.899 934.176 366.422 934.176Z" fill="white"/>
<path d="M375.991 951.972C378.184 951.972 379.962 950.194 379.962 948.001C379.962 945.807 378.184 944.029 375.991 944.029C373.798 944.029 372.02 945.807 372.02 948.001C372.02 950.194 373.798 951.972 375.991 951.972Z" fill="white"/>
<path d="M356.598 950.758C358.121 950.758 359.355 949.523 359.355 948C359.355 946.477 358.121 945.242 356.598 945.242C355.075 945.242 353.84 946.477 353.84 948C353.84 949.523 355.075 950.758 356.598 950.758Z" fill="white"/>
<path d="M380.333 943.078L384.094 936.565C383.239 936.319 382.47 935.866 381.847 935.264L378.086 941.777C378.923 942.059 379.684 942.505 380.333 943.078Z" fill="white"/>
<path d="M361.789 946.701C361.893 947.117 361.949 947.552 361.949 947.999C361.949 948.447 361.893 948.882 361.789 949.297H369.55C369.465 948.878 369.42 948.444 369.42 947.999C369.42 947.555 369.465 947.121 369.55 946.701H361.789Z" fill="white"/>
<path d="M371.649 943.075C372.297 942.503 373.059 942.057 373.896 941.775L370.138 935.264C369.515 935.866 368.746 936.319 367.891 936.564L371.649 943.075Z" fill="white"/>
<path d="M387.039 959.434C387.895 959.679 388.663 960.132 389.286 960.734L393.705 953.08C392.862 952.8 392.112 952.315 391.513 951.686L387.039 959.434Z" fill="white"/>
<path d="M380.332 952.92C379.684 953.492 378.923 953.939 378.086 954.221L381.847 960.734C382.47 960.131 383.239 959.678 384.094 959.433L380.332 952.92Z" fill="white"/>
<path d="M364.951 936.564C364.096 936.319 363.327 935.866 362.704 935.264L358.285 942.918C359.128 943.198 359.879 943.683 360.478 944.313L364.951 936.564Z" fill="white"/>
<path d="M371.653 952.922L367.895 959.433C368.75 959.678 369.518 960.131 370.142 960.734L373.9 954.222C373.063 953.94 372.301 953.494 371.653 952.922Z" fill="white"/>
<path d="M371.617 963.283C371.721 963.699 371.777 964.134 371.777 964.581C371.777 965.029 371.721 965.464 371.617 965.879H380.375C380.272 965.464 380.216 965.029 380.216 964.581C380.216 964.134 380.272 963.699 380.375 963.283H371.617Z" fill="white"/>
<path d="M382.43 946.701C382.514 947.121 382.559 947.555 382.559 947.999C382.559 948.444 382.514 948.878 382.43 949.297H390.197C390.093 948.882 390.037 948.447 390.037 947.999C390.037 947.552 390.093 947.117 390.197 946.701H382.43Z" fill="white"/>
<path d="M360.478 951.686C359.879 952.316 359.128 952.8 358.285 953.08L362.704 960.734C363.327 960.132 364.096 959.679 364.951 959.434L360.478 951.686Z" fill="white"/>
<path d="M391.513 944.313C392.112 943.683 392.862 943.198 393.705 942.918L389.286 935.264C388.663 935.866 387.895 936.319 387.039 936.564L391.513 944.313Z" fill="white"/>
<path d="M380.376 932.717C380.272 932.301 380.216 931.867 380.216 931.419C380.216 930.972 380.272 930.537 380.376 930.121H371.617C371.721 930.537 371.777 930.972 371.777 931.419C371.777 931.867 371.721 932.301 371.617 932.717H380.376Z" fill="white"/>
</g>
<g clip-path="url(#clip5)">
<path d="M395.391 1070.76C396.914 1070.76 398.148 1069.52 398.148 1068C398.148 1066.48 396.914 1065.24 395.391 1065.24C393.867 1065.24 392.633 1066.48 392.633 1068C392.633 1069.52 393.867 1070.76 395.391 1070.76Z" fill="white"/>
<path d="M366.422 1087.34C367.945 1087.34 369.18 1086.1 369.18 1084.58C369.18 1083.05 367.945 1081.82 366.422 1081.82C364.899 1081.82 363.664 1083.05 363.664 1084.58C363.664 1086.1 364.899 1087.34 366.422 1087.34Z" fill="white"/>
<path d="M385.566 1087.34C387.089 1087.34 388.324 1086.1 388.324 1084.58C388.324 1083.05 387.089 1081.82 385.566 1081.82C384.043 1081.82 382.809 1083.05 382.809 1084.58C382.809 1086.1 384.043 1087.34 385.566 1087.34Z" fill="white"/>
<path d="M385.566 1054.18C387.089 1054.18 388.324 1052.94 388.324 1051.42C388.324 1049.89 387.089 1048.66 385.566 1048.66C384.043 1048.66 382.809 1049.89 382.809 1051.42C382.809 1052.94 384.043 1054.18 385.566 1054.18Z" fill="white"/>
<path d="M366.422 1054.18C367.945 1054.18 369.18 1052.94 369.18 1051.42C369.18 1049.89 367.945 1048.66 366.422 1048.66C364.899 1048.66 363.664 1049.89 363.664 1051.42C363.664 1052.94 364.899 1054.18 366.422 1054.18Z" fill="white"/>
<path d="M375.991 1071.97C378.184 1071.97 379.962 1070.19 379.962 1068C379.962 1065.81 378.184 1064.03 375.991 1064.03C373.798 1064.03 372.02 1065.81 372.02 1068C372.02 1070.19 373.798 1071.97 375.991 1071.97Z" fill="white"/>
<path d="M356.598 1070.76C358.121 1070.76 359.355 1069.52 359.355 1068C359.355 1066.48 358.121 1065.24 356.598 1065.24C355.075 1065.24 353.84 1066.48 353.84 1068C353.84 1069.52 355.075 1070.76 356.598 1070.76Z" fill="white"/>
<path d="M380.333 1063.08L384.094 1056.56C383.239 1056.32 382.47 1055.87 381.847 1055.26L378.086 1061.78C378.923 1062.06 379.684 1062.51 380.333 1063.08Z" fill="white"/>
<path d="M361.789 1066.7C361.893 1067.12 361.949 1067.55 361.949 1068C361.949 1068.45 361.893 1068.88 361.789 1069.3H369.55C369.465 1068.88 369.42 1068.44 369.42 1068C369.42 1067.55 369.465 1067.12 369.55 1066.7H361.789Z" fill="white"/>
<path d="M371.649 1063.08C372.297 1062.5 373.059 1062.06 373.896 1061.77L370.138 1055.26C369.515 1055.87 368.746 1056.32 367.891 1056.56L371.649 1063.08Z" fill="white"/>
<path d="M387.039 1079.43C387.895 1079.68 388.663 1080.13 389.286 1080.73L393.705 1073.08C392.862 1072.8 392.112 1072.32 391.513 1071.69L387.039 1079.43Z" fill="white"/>
<path d="M380.332 1072.92C379.684 1073.49 378.923 1073.94 378.086 1074.22L381.847 1080.73C382.47 1080.13 383.239 1079.68 384.094 1079.43L380.332 1072.92Z" fill="white"/>
<path d="M364.951 1056.56C364.096 1056.32 363.327 1055.87 362.704 1055.26L358.285 1062.92C359.128 1063.2 359.879 1063.68 360.478 1064.31L364.951 1056.56Z" fill="white"/>
<path d="M371.653 1072.92L367.895 1079.43C368.75 1079.68 369.518 1080.13 370.142 1080.73L373.9 1074.22C373.063 1073.94 372.301 1073.49 371.653 1072.92Z" fill="white"/>
<path d="M371.617 1083.28C371.721 1083.7 371.777 1084.13 371.777 1084.58C371.777 1085.03 371.721 1085.46 371.617 1085.88H380.375C380.272 1085.46 380.216 1085.03 380.216 1084.58C380.216 1084.13 380.272 1083.7 380.375 1083.28H371.617Z" fill="white"/>
<path d="M382.43 1066.7C382.514 1067.12 382.559 1067.55 382.559 1068C382.559 1068.44 382.514 1068.88 382.43 1069.3H390.197C390.093 1068.88 390.037 1068.45 390.037 1068C390.037 1067.55 390.093 1067.12 390.197 1066.7H382.43Z" fill="white"/>
<path d="M360.478 1071.69C359.879 1072.32 359.128 1072.8 358.285 1073.08L362.704 1080.73C363.327 1080.13 364.096 1079.68 364.951 1079.43L360.478 1071.69Z" fill="white"/>
<path d="M391.513 1064.31C392.112 1063.68 392.862 1063.2 393.705 1062.92L389.286 1055.26C388.663 1055.87 387.895 1056.32 387.039 1056.56L391.513 1064.31Z" fill="white"/>
<path d="M380.376 1052.72C380.272 1052.3 380.216 1051.87 380.216 1051.42C380.216 1050.97 380.272 1050.54 380.376 1050.12H371.617C371.721 1050.54 371.777 1050.97 371.777 1051.42C371.777 1051.87 371.721 1052.3 371.617 1052.72H380.376Z" fill="white"/>
</g>
<path d="M100.147 466.443H88.371V464.856H99.48V462.556H88.371V461.015H99.94V458.623H85.358V468.835H100.147V466.443ZM102.148 470.353H82.966V472.814H91.016V479.001H94.052V472.814H102.148V470.353ZM111.921 462.326H116.13V459.819H104.492V462.326H108.885V463.499C108.885 466.995 107.16 470.974 103.687 472.584L105.389 474.999C107.804 473.849 109.506 471.526 110.449 468.766C111.392 471.273 113.048 473.389 115.394 474.47L117.073 472.078C113.6 470.468 111.921 466.719 111.921 463.499V462.326ZM123.812 465.868H120.73V457.795H117.694V478.978H120.73V468.375H123.812V465.868ZM134.85 460.923C137.61 460.923 139.381 461.751 139.381 463.246C139.381 464.764 137.61 465.569 134.85 465.569C132.067 465.569 130.296 464.764 130.296 463.246C130.296 461.751 132.067 460.923 134.85 460.923ZM134.85 467.984C139.358 467.984 142.509 466.144 142.509 463.246C142.509 460.371 139.358 458.508 134.85 458.508C130.319 458.508 127.191 460.371 127.191 463.246C127.191 466.144 130.319 467.984 134.85 467.984ZM144.487 469.571H125.305V472.032H129.652V478.955H132.711V472.032H136.966V478.955H140.048V472.032H144.487V469.571ZM154.721 463.66H159.045V461.245H154.721V458.301H151.685V461.245H147.269V463.66H151.685V464.396C151.685 467.616 150.029 471.204 146.556 472.768L148.189 475.091C150.604 474.01 152.306 471.848 153.249 469.295C154.192 471.71 155.871 473.734 158.263 474.723L159.873 472.4C156.4 470.905 154.721 467.455 154.721 464.396V463.66ZM161 457.795V478.978H164.036V457.795H161Z" fill="#575467"/>
<path d="M177.226 481.646L179.342 480.749C177.41 477.391 176.536 473.527 176.536 469.732C176.536 465.983 177.41 462.096 179.342 458.738L177.226 457.841C175.064 461.383 173.799 465.155 173.799 469.732C173.799 474.355 175.064 478.081 177.226 481.646ZM199.58 457.795H196.705V473.55H199.58V457.795ZM184.308 464.672C184.308 462.924 185.205 461.935 186.447 461.935C187.689 461.935 188.586 462.924 188.586 464.672C188.586 466.397 187.689 467.409 186.447 467.409C185.205 467.409 184.308 466.397 184.308 464.672ZM192.496 465.96V472.929H195.325V458.163H192.496V463.522H191.185C190.748 461.038 188.885 459.336 186.447 459.336C183.641 459.336 181.594 461.544 181.594 464.672C181.594 467.823 183.641 470.031 186.447 470.031C188.839 470.031 190.679 468.398 191.162 465.96H192.496ZM188.356 476.195V471.549H185.32V478.61H200.109V476.195H188.356ZM220.738 457.818H217.863V468.812H220.738V457.818ZM211.538 462.303V464.718H213.7V468.651H216.529V458.209H213.7V462.303H211.538ZM213.079 466.397C210.457 465.477 209.353 463.499 209.353 461.452V461.406H212.435V459.014H203.074V461.406H206.409V461.452C206.409 463.545 205.236 465.73 202.453 466.719L203.902 468.996C205.857 468.283 207.145 466.995 207.904 465.408C208.64 466.88 209.859 468.053 211.699 468.674L213.079 466.397ZM209.376 476.425V475.183H220.738V469.571H206.34V471.894H217.748V473.044H206.386V478.725H221.405V476.425H209.376ZM226.142 481.646C228.327 478.081 229.592 474.355 229.592 469.732C229.592 465.155 228.327 461.383 226.142 457.841L224.049 458.738C225.981 462.096 226.855 465.983 226.855 469.732C226.855 473.527 225.981 477.391 224.049 480.749L226.142 481.646Z" fill="#8A8A8A"/>
<path d="M100.147 588.443H88.371V586.856H99.48V584.556H88.371V583.015H99.94V580.623H85.358V590.835H100.147V588.443ZM102.148 592.353H82.966V594.814H91.016V601.001H94.052V594.814H102.148V592.353ZM111.921 584.326H116.13V581.819H104.492V584.326H108.885V585.499C108.885 588.995 107.16 592.974 103.687 594.584L105.389 596.999C107.804 595.849 109.506 593.526 110.449 590.766C111.392 593.273 113.048 595.389 115.394 596.47L117.073 594.078C113.6 592.468 111.921 588.719 111.921 585.499V584.326ZM123.812 587.868H120.73V579.795H117.694V600.978H120.73V590.375H123.812V587.868ZM134.85 582.923C137.61 582.923 139.381 583.751 139.381 585.246C139.381 586.764 137.61 587.569 134.85 587.569C132.067 587.569 130.296 586.764 130.296 585.246C130.296 583.751 132.067 582.923 134.85 582.923ZM134.85 589.984C139.358 589.984 142.509 588.144 142.509 585.246C142.509 582.371 139.358 580.508 134.85 580.508C130.319 580.508 127.191 582.371 127.191 585.246C127.191 588.144 130.319 589.984 134.85 589.984ZM144.487 591.571H125.305V594.032H129.652V600.955H132.711V594.032H136.966V600.955H140.048V594.032H144.487V591.571ZM154.721 585.66H159.045V583.245H154.721V580.301H151.685V583.245H147.269V585.66H151.685V586.396C151.685 589.616 150.029 593.204 146.556 594.768L148.189 597.091C150.604 596.01 152.306 593.848 153.249 591.295C154.192 593.71 155.871 595.734 158.263 596.723L159.873 594.4C156.4 592.905 154.721 589.455 154.721 586.396V585.66ZM161 579.795V600.978H164.036V579.795H161Z" fill="#575467"/>
<path d="M177.226 603.646L179.342 602.749C177.41 599.391 176.536 595.527 176.536 591.732C176.536 587.983 177.41 584.096 179.342 580.738L177.226 579.841C175.064 583.383 173.799 587.155 173.799 591.732C173.799 596.355 175.064 600.081 177.226 603.646ZM182.698 581.98V584.395H189.759C189.322 589.087 186.976 592.399 181.571 594.998L183.158 597.39C190.679 593.756 192.864 588.466 192.864 581.98H182.698ZM196.107 579.772V600.955H199.166V579.772H196.107ZM213.999 588.88C214.482 586.212 214.482 584.119 214.482 582.647V581.336H203.603V583.751H211.492C211.469 585.016 211.377 586.557 211.032 588.535L213.999 588.88ZM215.402 589.731C213.424 590.007 211.308 590.168 209.215 590.26V586.258H206.248V590.375C204.868 590.398 203.557 590.398 202.384 590.398L202.66 592.813C206.294 592.79 211.216 592.698 215.586 591.893L215.402 589.731ZM208.502 594.239H205.466V600.61H220.255V598.195H208.502V594.239ZM219.588 586.235V579.772H216.552V595.642H219.588V588.742H222.118V586.235H219.588ZM226.142 603.646C228.327 600.081 229.592 596.355 229.592 591.732C229.592 587.155 228.327 583.383 226.142 579.841L224.049 580.738C225.981 584.096 226.855 587.983 226.855 591.732C226.855 595.527 225.981 599.391 224.049 602.749L226.142 603.646Z" fill="#8A8A8A"/>
<path d="M84.093 717H87.497V699.957H84.093V717ZM91.6848 717H95.0888V710.951H97.3658C101.023 710.951 103.944 709.203 103.944 705.316C103.944 701.291 101.046 699.957 97.2738 699.957H91.6848V717ZM95.0888 708.26V702.671H97.0208C99.3668 702.671 100.609 703.338 100.609 705.316C100.609 707.271 99.4818 708.26 97.1358 708.26H95.0888ZM113.788 717.322C118.296 717.322 121.401 713.941 121.401 708.421C121.401 702.901 118.296 699.658 113.788 699.658C109.28 699.658 106.175 702.878 106.175 708.421C106.175 713.941 109.28 717.322 113.788 717.322ZM113.788 714.378C111.258 714.378 109.648 712.055 109.648 708.421C109.648 704.764 111.258 702.579 113.788 702.579C116.318 702.579 117.928 704.764 117.928 708.421C117.928 712.055 116.318 714.378 113.788 714.378Z" fill="#8A8A8A"/>
<path d="M130.856 708.283C134.559 707.777 137.158 706.19 138.423 704.028C139.688 706.19 142.287 707.777 145.99 708.283L147.071 705.914C142.77 705.385 140.539 703.315 140.24 701.291H146.243V698.876H130.534V701.291H136.629C136.33 703.315 134.076 705.385 129.752 705.914L130.856 708.283ZM147.991 709.502H128.855V711.917H136.836V719.024H139.872V711.917H147.991V709.502ZM161.306 706.88C161.789 704.212 161.789 702.119 161.789 700.647V699.336H150.91V701.751H158.799C158.776 703.016 158.684 704.557 158.339 706.535L161.306 706.88ZM162.709 707.731C160.731 708.007 158.615 708.168 156.522 708.26V704.258H153.555V708.375C152.175 708.398 150.864 708.398 149.691 708.398L149.967 710.813C153.601 710.79 158.523 710.698 162.893 709.893L162.709 707.731ZM155.809 712.239H152.773V718.61H167.562V716.195H155.809V712.239ZM166.895 704.235V697.772H163.859V713.642H166.895V706.742H169.425V704.235H166.895ZM178.945 699.428H175.886V702.51C175.886 706.443 174.276 710.491 170.711 712.17L172.528 714.631C174.92 713.458 176.507 711.227 177.427 708.536C178.301 711.066 179.796 713.113 182.004 714.24L183.844 711.848C180.44 710.169 178.945 706.328 178.945 702.51V699.428ZM190.813 705.937H187.731V697.795H184.695V718.978H187.731V708.467H190.813V705.937ZM212.191 713.435H215.227V697.795H212.191V702.303H208.304V704.764H212.191V713.435ZM210.167 708.007C206.855 706.834 205.429 704.143 205.429 701.383V699.083H202.347V701.36C202.347 704.373 200.875 707.317 197.379 708.49L198.966 710.859C201.427 709.962 203.06 708.237 203.957 706.052C204.831 708.007 206.349 709.548 208.557 710.353L210.167 708.007ZM204.279 716.195V711.871H201.243V718.61H215.687V716.195H204.279ZM230.176 702.901V705.362H233.35V710.399H236.386V697.795H233.35V702.901H230.176ZM231.441 707.455C228.221 706.397 226.749 703.913 226.657 701.498H230.774V699.06H219.389V701.498H223.552C223.46 704.143 221.919 706.834 218.561 708.007L220.102 710.399C222.563 709.571 224.242 707.846 225.162 705.707C226.082 707.57 227.669 709.065 229.969 709.824L231.441 707.455ZM229.233 716.701C226.45 716.701 225.001 716.126 225.001 714.93C225.001 713.734 226.45 713.159 229.233 713.159C231.993 713.159 233.442 713.734 233.442 714.93C233.442 716.126 231.993 716.701 229.233 716.701ZM229.233 710.859C224.725 710.859 221.965 712.354 221.965 714.93C221.965 717.506 224.725 719.001 229.233 719.001C233.718 719.001 236.478 717.506 236.478 714.93C236.478 712.354 233.718 710.859 229.233 710.859Z" fill="#575467"/>
<path d="M100.561 815.818H97.525V826.421H100.561V815.818ZM95.846 822.695C93.339 823.201 91.062 823.339 87.221 823.362V819.291H94.167V816.945H84.185V825.708H86.002C90.694 825.708 93.339 825.593 96.145 824.995L95.846 822.695ZM89.475 834.517V833.068H100.561V827.295H86.462V829.618H97.571V830.929H86.485V836.863H101.113V834.517H89.475ZM107.873 825.524H114.382V817.589H104.837V820.004H111.369V823.155H104.883V832.125H106.631C110.15 832.125 112.956 832.01 116.107 831.504L115.831 829.043C113.163 829.48 110.748 829.618 107.873 829.641V825.524ZM118.821 815.772V823.408H115.509V825.869H118.821V837.024H121.88V815.772H118.821ZM136.621 824.88C137.104 822.212 137.104 820.119 137.104 818.647V817.336H126.225V819.751H134.114C134.091 821.016 133.999 822.557 133.654 824.535L136.621 824.88ZM138.024 825.731C136.046 826.007 133.93 826.168 131.837 826.26V822.258H128.87V826.375C127.49 826.398 126.179 826.398 125.006 826.398L125.282 828.813C128.916 828.79 133.838 828.698 138.208 827.893L138.024 825.731ZM131.124 830.239H128.088V836.61H142.877V834.195H131.124V830.239ZM142.21 822.235V815.772H139.174V831.642H142.21V824.742H144.74V822.235H142.21ZM150.696 825.777H157.573V817.589H147.568V820.004H154.468V823.385H147.591V832.102H149.5C153.341 832.102 156.446 831.964 159.896 831.366L159.574 828.905C156.584 829.411 153.916 829.572 150.696 829.595V825.777ZM161.046 815.772V837.024H164.082V815.772H161.046Z" fill="#575467"/>
<path d="M95.754 949.455C92.488 948.351 91.016 945.798 90.97 943.383H95.087V940.968H83.702V943.383H87.865C87.819 946.005 86.278 948.696 82.874 949.846L84.415 952.238C86.876 951.433 88.532 949.731 89.475 947.661C90.372 949.547 91.959 951.065 94.282 951.824L95.754 949.455ZM86.255 955.757H97.663V961.001H100.699V953.342H86.255V955.757ZM97.663 939.818V944.855H94.535V947.293H97.663V952.399H100.699V939.818H97.663ZM106.171 955.688H118.085V961.001H121.121V953.296H106.171V955.688ZM120.661 948.42C121.075 945.775 121.075 943.751 121.075 942.187V940.715H106.493V943.13H118.085C118.062 944.533 117.993 946.258 117.648 948.42H104.147V950.835H123.329V948.42H120.661ZM138.07 949.455C134.804 948.351 133.332 945.798 133.286 943.383H137.403V940.968H126.018V943.383H130.181C130.135 946.005 128.594 948.696 125.19 949.846L126.731 952.238C129.192 951.433 130.848 949.731 131.791 947.661C132.688 949.547 134.275 951.065 136.598 951.824L138.07 949.455ZM128.571 955.757H139.979V961.001H143.015V953.342H128.571V955.757ZM139.979 939.818V944.855H136.851V947.293H139.979V952.399H143.015V939.818H139.979ZM169.822 941.313H162.761V939.611H159.725V941.313H152.595V943.59H169.822V941.313ZM161.197 958.816C158.253 958.816 156.942 958.471 156.942 957.712C156.942 956.93 158.253 956.608 161.197 956.608C164.141 956.608 165.452 956.93 165.452 957.712C165.452 958.471 164.141 958.816 161.197 958.816ZM161.197 954.423C156.551 954.423 153.86 955.55 153.86 957.712C153.86 959.874 156.551 960.978 161.197 960.978C165.866 960.978 168.557 959.874 168.557 957.712C168.557 955.55 165.866 954.423 161.197 954.423ZM157.402 947.178C157.402 946.488 158.621 946.212 161.243 946.212C163.888 946.212 165.084 946.488 165.084 947.178C165.084 947.868 163.888 948.167 161.243 948.167C158.621 948.167 157.402 947.868 157.402 947.178ZM162.761 951.249V950.168C166.349 949.938 168.35 948.949 168.35 947.178C168.35 945.177 165.797 944.165 161.243 944.165C156.712 944.165 154.159 945.177 154.159 947.178C154.159 948.949 156.16 949.938 159.725 950.168V951.249H151.652V953.595H170.834V951.249H162.761ZM177.87 946.787H186.932V949.754H177.87V946.787ZM183.919 956.056V952.169H189.922V941.106H186.932V944.395H177.87V941.106H174.857V952.169H180.883V956.056H172.833V958.517H192.015V956.056H183.919Z" fill="#575467"/>
<path d="M94.351 1061.27V1063.73H97.663V1071.25H100.699V1055.79H97.663V1061.27H94.351ZM95.754 1066.14C92.419 1065.02 90.97 1062.42 90.97 1059.91V1059.64H95.087V1057.22H83.702V1059.64H87.865V1059.93C87.865 1062.6 86.347 1065.39 82.874 1066.51L84.415 1068.93C86.876 1068.1 88.532 1066.42 89.475 1064.33C90.395 1066.24 91.959 1067.75 94.282 1068.51L95.754 1066.14ZM89.774 1074.19V1069.96H86.738V1076.61H101.182V1074.19H89.774ZM117.878 1062.19H109.483V1059.06H117.878V1062.19ZM120.868 1056.69H106.493V1064.58H120.868V1056.69ZM109.391 1070.47H106.355V1076.61H121.19V1074.19H109.391V1070.47ZM104.124 1066.26V1068.65H112.473V1072.26H115.509V1068.65H123.306V1066.26H104.124ZM142.9 1055.82H139.841V1071.02H142.9V1055.82ZM128.571 1062.53C128.571 1060.79 129.813 1059.77 131.377 1059.77C132.964 1059.77 134.16 1060.79 134.16 1062.53C134.16 1064.24 132.964 1065.27 131.377 1065.27C129.813 1065.27 128.571 1064.24 128.571 1062.53ZM137.127 1062.53C137.127 1059.41 134.62 1057.15 131.377 1057.15C128.134 1057.15 125.604 1059.41 125.604 1062.53C125.604 1065.62 128.134 1067.89 131.377 1067.89C134.62 1067.89 137.127 1065.62 137.127 1062.53ZM131.837 1074.19V1069.53H128.801V1076.61H143.429V1074.19H131.837ZM157.274 1065.39C155.181 1065.78 153.318 1065.87 150.282 1065.89V1063.68H156.515V1056.99H147.246V1059.43H153.525V1061.43H147.269V1068.33H148.902C152.927 1068.33 155.112 1068.26 157.573 1067.8L157.274 1065.39ZM149.684 1072.22H161.138V1077H164.174V1069.8H149.684V1072.22ZM161.138 1055.82V1058.72H157.734V1061.15H161.138V1063.25H157.734V1065.66H161.138V1068.86H164.174V1055.79L161.138 1055.82ZM189.991 1064.44H178.215V1062.86H189.324V1060.56H178.215V1059.01H189.784V1056.62H175.202V1066.83H189.991V1064.44ZM191.992 1068.35H172.81V1070.81H180.86V1077H183.896V1070.81H191.992V1068.35ZM208.527 1055.79V1067.18H211.586V1055.79H208.527ZM197.51 1068.1V1076.73H211.586V1068.1H208.573V1070.08H200.523V1068.1H197.51ZM200.523 1072.4H208.573V1074.31H200.523V1072.4ZM200.063 1056.67C196.774 1056.67 194.29 1058.76 194.29 1061.66C194.29 1064.58 196.774 1066.67 200.063 1066.67C203.352 1066.67 205.813 1064.58 205.813 1061.66C205.813 1058.76 203.352 1056.67 200.063 1056.67ZM200.063 1059.18C201.673 1059.18 202.846 1060.12 202.846 1061.66C202.846 1063.25 201.673 1064.17 200.063 1064.17C198.453 1064.17 197.257 1063.25 197.257 1061.66C197.257 1060.12 198.453 1059.18 200.063 1059.18Z" fill="#575467"/>
<defs>
<filter id="filter0_d" x="0" y="381" width="482" height="212" filterUnits="userSpaceOnUse" color-interpolation-filters="sRGB">
<feFlood flood-opacity="0" result="BackgroundImageFix"/>
<feColorMatrix in="SourceAlpha" type="matrix" values="0 0 0 0 0 0 0 0 0 0 0 0 0 0 0 0 0 0 127 0" result="hardAlpha"/>
<feOffset dy="19"/>
<feGaussianBlur stdDeviation="29"/>
<feColorMatrix type="matrix" values="0 0 0 0 0.521569 0 0 0 0 0.0941176 0 0 0 0 0.00392157 0 0 0 0.2 0"/>
<feBlend mode="normal" in2="BackgroundImageFix" result="effect1_dropShadow"/>
<feBlend mode="normal" in="SourceGraphic" in2="effect1_dropShadow" result="shape"/>
</filter>
<filter id="filter1_d" x="0" y="501" width="482" height="212" filterUnits="userSpaceOnUse" color-interpolation-filters="sRGB">
<feFlood flood-opacity="0" result="BackgroundImageFix"/>
<feColorMatrix in="SourceAlpha" type="matrix" values="0 0 0 0 0 0 0 0 0 0 0 0 0 0 0 0 0 0 127 0" result="hardAlpha"/>
<feOffset dy="19"/>
<feGaussianBlur stdDeviation="29"/>
<feColorMatrix type="matrix" values="0 0 0 0 0.521569 0 0 0 0 0.0941176 0 0 0 0 0.00392157 0 0 0 0.2 0"/>
<feBlend mode="normal" in2="BackgroundImageFix" result="effect1_dropShadow"/>
<feBlend mode="normal" in="SourceGraphic" in2="effect1_dropShadow" result="shape"/>
</filter>
<filter id="filter2_d" x="0" y="621" width="482" height="212" filterUnits="userSpaceOnUse" color-interpolation-filters="sRGB">
<feFlood flood-opacity="0" result="BackgroundImageFix"/>
<feColorMatrix in="SourceAlpha" type="matrix" values="0 0 0 0 0 0 0 0 0 0 0 0 0 0 0 0 0 0 127 0" result="hardAlpha"/>
<feOffset dy="19"/>
<feGaussianBlur stdDeviation="29"/>
<feColorMatrix type="matrix" values="0 0 0 0 0.521569 0 0 0 0 0.0941176 0 0 0 0 0.00392157 0 0 0 0.2 0"/>
<feBlend mode="normal" in2="BackgroundImageFix" result="effect1_dropShadow"/>
<feBlend mode="normal" in="SourceGraphic" in2="effect1_dropShadow" result="shape"/>
</filter>
<filter id="filter3_d" x="0" y="741" width="482" height="212" filterUnits="userSpaceOnUse" color-interpolation-filters="sRGB">
<feFlood flood-opacity="0" result="BackgroundImageFix"/>
<feColorMatrix in="SourceAlpha" type="matrix" values="0 0 0 0 0 0 0 0 0 0 0 0 0 0 0 0 0 0 127 0" result="hardAlpha"/>
<feOffset dy="19"/>
<feGaussianBlur stdDeviation="29"/>
<feColorMatrix type="matrix" values="0 0 0 0 0.521569 0 0 0 0 0.0941176 0 0 0 0 0.00392157 0 0 0 0.2 0"/>
<feBlend mode="normal" in2="BackgroundImageFix" result="effect1_dropShadow"/>
<feBlend mode="normal" in="SourceGraphic" in2="effect1_dropShadow" result="shape"/>
</filter>
<filter id="filter4_d" x="0" y="861" width="482" height="212" filterUnits="userSpaceOnUse" color-interpolation-filters="sRGB">
<feFlood flood-opacity="0" result="BackgroundImageFix"/>
<feColorMatrix in="SourceAlpha" type="matrix" values="0 0 0 0 0 0 0 0 0 0 0 0 0 0 0 0 0 0 127 0" result="hardAlpha"/>
<feOffset dy="19"/>
<feGaussianBlur stdDeviation="29"/>
<feColorMatrix type="matrix" values="0 0 0 0 0.521569 0 0 0 0 0.0941176 0 0 0 0 0.00392157 0 0 0 0.2 0"/>
<feBlend mode="normal" in2="BackgroundImageFix" result="effect1_dropShadow"/>
<feBlend mode="normal" in="SourceGraphic" in2="effect1_dropShadow" result="shape"/>
</filter>
<filter id="filter5_d" x="0" y="981" width="482" height="212" filterUnits="userSpaceOnUse" color-interpolation-filters="sRGB">
<feFlood flood-opacity="0" result="BackgroundImageFix"/>
<feColorMatrix in="SourceAlpha" type="matrix" values="0 0 0 0 0 0 0 0 0 0 0 0 0 0 0 0 0 0 127 0" result="hardAlpha"/>
<feOffset dy="19"/>
<feGaussianBlur stdDeviation="29"/>
<feColorMatrix type="matrix" values="0 0 0 0 0.521569 0 0 0 0 0.0941176 0 0 0 0 0.00392157 0 0 0 0.2 0"/>
<feBlend mode="normal" in2="BackgroundImageFix" result="effect1_dropShadow"/>
<feBlend mode="normal" in="SourceGraphic" in2="effect1_dropShadow" result="shape"/>
</filter>
<filter id="filter6_d" x="306" y="402" width="140" height="140" filterUnits="userSpaceOnUse" color-interpolation-filters="sRGB">
<feFlood flood-opacity="0" result="BackgroundImageFix"/>
<feColorMatrix in="SourceAlpha" type="matrix" values="0 0 0 0 0 0 0 0 0 0 0 0 0 0 0 0 0 0 127 0" result="hardAlpha"/>
<feOffset dy="4"/>
<feGaussianBlur stdDeviation="11"/>
<feColorMatrix type="matrix" values="0 0 0 0 0.754444 0 0 0 0 0.754444 0 0 0 0 0.808333 0 0 0 0.4 0"/>
<feBlend mode="normal" in2="BackgroundImageFix" result="effect1_dropShadow"/>
<feBlend mode="normal" in="SourceGraphic" in2="effect1_dropShadow" result="shape"/>
</filter>
<filter id="filter7_d" x="306" y="522" width="140" height="140" filterUnits="userSpaceOnUse" color-interpolation-filters="sRGB">
<feFlood flood-opacity="0" result="BackgroundImageFix"/>
<feColorMatrix in="SourceAlpha" type="matrix" values="0 0 0 0 0 0 0 0 0 0 0 0 0 0 0 0 0 0 127 0" result="hardAlpha"/>
<feOffset dy="4"/>
<feGaussianBlur stdDeviation="11"/>
<feColorMatrix type="matrix" values="0 0 0 0 0.754444 0 0 0 0 0.754444 0 0 0 0 0.808333 0 0 0 0.4 0"/>
<feBlend mode="normal" in2="BackgroundImageFix" result="effect1_dropShadow"/>
<feBlend mode="normal" in="SourceGraphic" in2="effect1_dropShadow" result="shape"/>
</filter>
<filter id="filter8_d" x="306" y="642" width="140" height="140" filterUnits="userSpaceOnUse" color-interpolation-filters="sRGB">
<feFlood flood-opacity="0" result="BackgroundImageFix"/>
<feColorMatrix in="SourceAlpha" type="matrix" values="0 0 0 0 0 0 0 0 0 0 0 0 0 0 0 0 0 0 127 0" result="hardAlpha"/>
<feOffset dy="4"/>
<feGaussianBlur stdDeviation="11"/>
<feColorMatrix type="matrix" values="0 0 0 0 0.754444 0 0 0 0 0.754444 0 0 0 0 0.808333 0 0 0 0.4 0"/>
<feBlend mode="normal" in2="BackgroundImageFix" result="effect1_dropShadow"/>
<feBlend mode="normal" in="SourceGraphic" in2="effect1_dropShadow" result="shape"/>
</filter>
<filter id="filter9_d" x="306" y="762" width="140" height="140" filterUnits="userSpaceOnUse" color-interpolation-filters="sRGB">
<feFlood flood-opacity="0" result="BackgroundImageFix"/>
<feColorMatrix in="SourceAlpha" type="matrix" values="0 0 0 0 0 0 0 0 0 0 0 0 0 0 0 0 0 0 127 0" result="hardAlpha"/>
<feOffset dy="4"/>
<feGaussianBlur stdDeviation="11"/>
<feColorMatrix type="matrix" values="0 0 0 0 0.754444 0 0 0 0 0.754444 0 0 0 0 0.808333 0 0 0 0.4 0"/>
<feBlend mode="normal" in2="BackgroundImageFix" result="effect1_dropShadow"/>
<feBlend mode="normal" in="SourceGraphic" in2="effect1_dropShadow" result="shape"/>
</filter>
<filter id="filter10_d" x="306" y="882" width="140" height="140" filterUnits="userSpaceOnUse" color-interpolation-filters="sRGB">
<feFlood flood-opacity="0" result="BackgroundImageFix"/>
<feColorMatrix in="SourceAlpha" type="matrix" values="0 0 0 0 0 0 0 0 0 0 0 0 0 0 0 0 0 0 127 0" result="hardAlpha"/>
<feOffset dy="4"/>
<feGaussianBlur stdDeviation="11"/>
<feColorMatrix type="matrix" values="0 0 0 0 0.754444 0 0 0 0 0.754444 0 0 0 0 0.808333 0 0 0 0.4 0"/>
<feBlend mode="normal" in2="BackgroundImageFix" result="effect1_dropShadow"/>
<feBlend mode="normal" in="SourceGraphic" in2="effect1_dropShadow" result="shape"/>
</filter>
<filter id="filter11_d" x="306" y="1002" width="140" height="140" filterUnits="userSpaceOnUse" color-interpolation-filters="sRGB">
<feFlood flood-opacity="0" result="BackgroundImageFix"/>
<feColorMatrix in="SourceAlpha" type="matrix" values="0 0 0 0 0 0 0 0 0 0 0 0 0 0 0 0 0 0 127 0" result="hardAlpha"/>
<feOffset dy="4"/>
<feGaussianBlur stdDeviation="11"/>
<feColorMatrix type="matrix" values="0 0 0 0 0.754444 0 0 0 0 0.754444 0 0 0 0 0.808333 0 0 0 0.4 0"/>
<feBlend mode="normal" in2="BackgroundImageFix" result="effect1_dropShadow"/>
<feBlend mode="normal" in="SourceGraphic" in2="effect1_dropShadow" result="shape"/>
</filter>
<clipPath id="clip0">
<rect width="44.3077" height="44.3077" fill="white" transform="translate(353.84 445.846)"/>
</clipPath>
<clipPath id="clip1">
<rect width="44.3077" height="44.3077" fill="white" transform="translate(353.84 565.846)"/>
</clipPath>
<clipPath id="clip2">
<rect width="44.3077" height="44.3077" fill="white" transform="translate(353.84 685.846)"/>
</clipPath>
<clipPath id="clip3">
<rect width="44.3077" height="44.3077" fill="white" transform="translate(353.84 805.846)"/>
</clipPath>
<clipPath id="clip4">
<rect width="44.3077" height="44.3077" fill="white" transform="translate(353.84 925.846)"/>
</clipPath>
<clipPath id="clip5">
<rect width="44.3077" height="44.3077" fill="white" transform="translate(353.84 1045.85)"/>
</clipPath>
</defs>
</svg>
