<svg width="25" height="15" viewBox="0 0 25 15" fill="none" xmlns="http://www.w3.org/2000/svg">
<path d="M19.5431 0.208172C18.7993 0.208172 18.1139 0.631087 17.7931 1.28734L15.7223 5.429C15.5181 5.83734 15.416 6.27484 15.416 6.72692L15.416 13.3332C15.416 14.1353 16.0723 14.7915 16.8743 14.7915L22.7077 14.7915C23.5098 14.7915 24.166 14.1353 24.166 13.3332V7.49984C24.166 6.69775 23.5098 6.0415 22.7077 6.0415H19.791L21.2931 3.03734C21.9493 1.73942 21.0014 0.208172 19.5431 0.208172ZM4.95977 0.208172C4.21602 0.208172 3.5306 0.631087 3.20977 1.28734L1.13893 5.429C0.934765 5.83734 0.832684 6.27484 0.832684 6.72692V13.3332C0.832684 14.1353 1.48893 14.7915 2.29102 14.7915L8.12435 14.7915C8.92643 14.7915 9.58268 14.1353 9.58268 13.3332L9.58268 7.49984C9.58268 6.69775 8.92643 6.0415 8.12435 6.0415H5.20768L6.70977 3.03734C7.36602 1.73942 6.4181 0.208172 4.95977 0.208172Z" fill="#A5250A"/>
</svg>
