<svg width="25" height="25" viewBox="0 0 25 25" fill="none" xmlns="http://www.w3.org/2000/svg">
<path d="M12.4997 2.08398C6.74967 2.08398 2.08301 6.75065 2.08301 12.5007C2.08301 18.2507 6.74967 22.9173 12.4997 22.9173C18.2497 22.9173 22.9163 18.2507 22.9163 12.5007C22.9163 6.75065 18.2497 2.08398 12.4997 2.08398ZM12.4997 20.834C7.90593 20.834 4.16634 17.0944 4.16634 12.5007C4.16634 7.9069 7.90593 4.16732 12.4997 4.16732C17.0934 4.16732 20.833 7.9069 20.833 12.5007C20.833 17.0944 17.0934 20.834 12.4997 20.834ZM16.5413 8.63607L10.4163 14.7611L8.45801 12.8027C8.05176 12.3965 7.39551 12.3965 6.98926 12.8027C6.58301 13.209 6.58301 13.8652 6.98926 14.2715L9.68718 16.9694C10.0934 17.3757 10.7497 17.3757 11.1559 16.9694L18.0205 10.1048C18.4268 9.69857 18.4268 9.04232 18.0205 8.63607C17.6143 8.22982 16.9476 8.22982 16.5413 8.63607Z" fill="#CE3B3B"/>
</svg>
