<svg width="593" height="526" viewBox="0 0 593 526" fill="none" xmlns="http://www.w3.org/2000/svg">
<g filter="url(#filter0_d)">
<path fill-rule="evenodd" clip-rule="evenodd" d="M316.295 22.6159C324.908 22.6159 331.943 17.5536 331.943 11.3079C331.943 5.06228 324.908 0 316.295 0C307.683 0 300.648 5.06228 300.648 11.3079C300.714 17.4879 307.683 22.6159 316.295 22.6159Z" fill="white"/>
<path fill-rule="evenodd" clip-rule="evenodd" d="M331.809 27.9404C338.384 27.9404 343.775 24.0615 343.775 19.2622C343.775 14.4629 338.384 10.584 331.809 10.584C325.235 10.584 319.844 14.4629 319.844 19.2622C319.844 24.0615 325.235 27.9404 331.809 27.9404Z" fill="white"/>
<path fill-rule="evenodd" clip-rule="evenodd" d="M298.346 23.9309C304.198 23.9309 308.931 20.5123 308.931 16.2389C308.931 12.0313 304.132 8.54688 298.346 8.54688C292.495 8.54688 287.762 11.9656 287.762 16.2389C287.762 20.5123 292.561 23.9309 298.346 23.9309Z" fill="white"/>
<path fill-rule="evenodd" clip-rule="evenodd" d="M313.731 34.253C321.423 34.253 327.668 29.7167 327.668 24.1285C327.668 18.5402 321.423 14.0039 313.731 14.0039C306.039 14.0039 299.793 18.5402 299.793 24.1285C299.793 29.7167 306.039 34.253 313.731 34.253Z" fill="white"/>
</g>
<path fill-rule="evenodd" clip-rule="evenodd" d="M355.806 119.851C355.806 120.377 355.28 120.772 354.688 120.772C354.031 120.772 353.57 120.377 353.57 119.851V24.3911C353.57 23.8652 354.096 23.4707 354.688 23.4707C355.345 23.4707 355.806 23.8652 355.806 24.3911V119.851Z" fill="#383838"/>
<path fill-rule="evenodd" clip-rule="evenodd" d="M0 525.163L164.36 283.422L236.415 289.602L263.173 282.699L427.993 525.163H0Z" fill="#851801"/>
<path fill-rule="evenodd" clip-rule="evenodd" d="M303.144 525.163L236.414 289.602L263.172 282.699L427.992 525.163H303.144Z" fill="#A5250A"/>
<path fill-rule="evenodd" clip-rule="evenodd" d="M236.415 289.604L164.359 283.424L213.996 210.383L236.415 289.604Z" fill="#D3E3F0"/>
<path fill-rule="evenodd" clip-rule="evenodd" d="M213.996 210.383L263.172 282.701L236.415 289.604L213.996 210.383Z" fill="white"/>
<path fill-rule="evenodd" clip-rule="evenodd" d="M117.207 525.29L299.683 194.89L379.717 203.302L409.418 193.92L592.42 525.29H117.207Z" fill="#851801"/>
<path fill-rule="evenodd" clip-rule="evenodd" d="M464.026 525.293L379.605 202.243L409.322 194.617L592.419 525.293H464.026Z" fill="#A5250A"/>
<path fill-rule="evenodd" clip-rule="evenodd" d="M379.603 201.178L299.527 194.34L354.686 113.146L379.603 201.178Z" fill="#D3E3F0"/>
<path fill-rule="evenodd" clip-rule="evenodd" d="M354.688 113.146L409.321 193.551L379.604 201.178L354.688 113.146Z" fill="white"/>
<g filter="url(#filter1_d)">
<path d="M204.792 151.67C213.215 151.67 220.044 146.725 220.044 140.625C220.044 134.525 213.215 129.58 204.792 129.58C196.368 129.58 189.539 134.525 189.539 140.625C189.539 146.725 196.368 151.67 204.792 151.67Z" fill="white"/>
<path fill-rule="evenodd" clip-rule="evenodd" d="M192.433 155.089C198.876 155.089 204.135 151.276 204.135 146.608C204.135 141.94 198.876 138.127 192.433 138.127C185.99 138.127 180.73 141.94 180.73 146.608C180.73 151.276 185.99 155.089 192.433 155.089Z" fill="white"/>
<path fill-rule="evenodd" clip-rule="evenodd" d="M219.126 153.839C224.846 153.839 229.513 150.486 229.513 146.344C229.513 142.203 224.846 138.85 219.126 138.85C213.406 138.85 208.738 142.203 208.738 146.344C208.738 150.486 213.406 153.839 219.126 153.839Z" fill="white"/>
<path d="M209.525 156.929C213.701 156.929 217.086 154.486 217.086 151.472C217.086 148.459 213.701 146.016 209.525 146.016C205.35 146.016 201.965 148.459 201.965 151.472C201.965 154.486 205.35 156.929 209.525 156.929Z" fill="white"/>
</g>
<g filter="url(#filter2_d)">
<path fill-rule="evenodd" clip-rule="evenodd" d="M427.009 153.708C436.739 153.708 444.694 147.923 444.694 140.888C444.694 133.854 436.739 128.068 427.009 128.068C417.279 128.068 409.324 133.788 409.324 140.888C409.324 147.989 417.279 153.708 427.009 153.708Z" fill="white"/>
<path d="M412.676 143.648C420.156 143.648 426.219 139.263 426.219 133.852C426.219 128.442 420.156 124.057 412.676 124.057C405.196 124.057 399.133 128.442 399.133 133.852C399.133 139.263 405.196 143.648 412.676 143.648Z" fill="white"/>
<path fill-rule="evenodd" clip-rule="evenodd" d="M443.707 142.927C450.347 142.927 455.738 139.048 455.738 134.248C455.738 129.449 450.347 125.57 443.707 125.57C437.067 125.57 431.676 129.449 431.676 134.248C431.676 138.982 437.067 142.927 443.707 142.927Z" fill="white"/>
<path d="M428.454 134.773C434.809 134.773 439.96 131.035 439.96 126.424C439.96 121.812 434.809 118.074 428.454 118.074C422.1 118.074 416.949 121.812 416.949 126.424C416.949 131.035 422.1 134.773 428.454 134.773Z" fill="white"/>
</g>
<path fill-rule="evenodd" clip-rule="evenodd" d="M331.414 99.2734L349.822 103.613L345.417 126.754L342.853 108.675L328.061 107.426L321.881 161.336L317.41 106.111L331.414 99.2734Z" fill="#364654"/>
<path fill-rule="evenodd" clip-rule="evenodd" d="M318.068 76.0677L317.41 106.113L333.123 99.6697L329.113 75.8047L318.068 76.0677Z" fill="white"/>
<path fill-rule="evenodd" clip-rule="evenodd" d="M318.068 76.0645L322.21 106.57L314.847 109.265L313.992 78.6285L318.068 76.0645Z" fill="#5C7082"/>
<path fill-rule="evenodd" clip-rule="evenodd" d="M329.113 75.8026L330.297 102.955L336.279 101.574L332.795 75.2109L329.113 75.8026Z" fill="#5C7082"/>
<path fill-rule="evenodd" clip-rule="evenodd" d="M323.983 61.3379L314.582 62.85L316.291 70.9365L317.409 71.0022L318.461 73.369L319.118 73.1718L320.039 77.1164L327.534 74.7496L323.983 61.3379Z" fill="#E8DABD"/>
<path fill-rule="evenodd" clip-rule="evenodd" d="M315.241 66.4002L312.809 63.2445L323.985 61.3379L326.615 71.1995L321.355 65.414L315.241 66.4002Z" fill="#383838"/>
<path fill-rule="evenodd" clip-rule="evenodd" d="M323.526 66.2031C322.868 66.2689 322.342 67.0578 322.408 67.9782C322.474 68.8986 323.131 69.6218 323.789 69.5561C324.446 69.4903 324.972 68.7014 324.906 67.781C324.84 66.8606 324.249 66.2031 323.526 66.2031Z" fill="#E8DABD"/>
<path fill-rule="evenodd" clip-rule="evenodd" d="M318.792 81.7183L304.395 117.286L313.927 78.957L318.792 81.7183Z" fill="#5C7082"/>
<path fill-rule="evenodd" clip-rule="evenodd" d="M307.747 109.001L304.395 117.284L306.498 108.672L307.747 109.001Z" fill="#E8DABD"/>
<path fill-rule="evenodd" clip-rule="evenodd" d="M307.745 109.001L306.956 112.945L306.496 108.672L307.745 109.001Z" fill="#E8DABD"/>
<path fill-rule="evenodd" clip-rule="evenodd" d="M329.375 77.9687L339.237 68.0414L347.718 51.4082L342.524 70.2767L331.282 85.1348L329.375 77.9687Z" fill="#5C7082"/>
<path fill-rule="evenodd" clip-rule="evenodd" d="M344.102 58.5085L347.717 51.4082L345.614 59.1002L344.102 58.5085Z" fill="#E8DABD"/>
<path fill-rule="evenodd" clip-rule="evenodd" d="M344.102 58.5091L347.98 54.7617L345.614 59.1008L344.102 58.5091Z" fill="#E8DABD"/>
<path fill-rule="evenodd" clip-rule="evenodd" d="M319.647 75.0137L323.92 75.9341L322.342 79.55L317.938 76.0656L319.647 75.0137Z" fill="#E6E6E6"/>
<path fill-rule="evenodd" clip-rule="evenodd" d="M319.647 75.0137L323.92 75.9341L322.211 78.4981L317.938 76.0656L319.647 75.0137Z" fill="white"/>
<path fill-rule="evenodd" clip-rule="evenodd" d="M327.534 74.6191L323.918 75.934L325.693 79.4842L329.112 75.8025L327.534 74.6191Z" fill="#E6E6E6"/>
<path fill-rule="evenodd" clip-rule="evenodd" d="M327.534 74.6191L323.918 75.934L325.956 78.4323L329.112 75.8025L327.534 74.6191Z" fill="white"/>
<path fill-rule="evenodd" clip-rule="evenodd" d="M322.805 77.6429L323.594 79.0236L324.646 78.8921L325.106 77.38L323.922 75.9336L322.805 77.6429Z" fill="#D03A3B"/>
<path fill-rule="evenodd" clip-rule="evenodd" d="M324.645 78.8926L323.593 79.0241L323.527 89.4773L325.565 95.1313L326.552 89.3458L324.645 78.8926Z" fill="#D03A3B"/>
<path fill-rule="evenodd" clip-rule="evenodd" d="M290.914 158.049L309.322 162.388L304.917 185.53L302.353 167.45L287.561 166.201L281.381 220.111L276.91 164.886L290.914 158.049Z" fill="#012B52"/>
<path fill-rule="evenodd" clip-rule="evenodd" d="M277.568 134.841L276.91 164.886L292.623 158.443L288.613 134.578L277.568 134.841Z" fill="white"/>
<path fill-rule="evenodd" clip-rule="evenodd" d="M277.568 134.84L281.71 165.345L274.347 168.04L273.887 137.141L277.568 134.84Z" fill="#00376A"/>
<path fill-rule="evenodd" clip-rule="evenodd" d="M288.613 134.576L289.797 161.728L295.779 160.348L292.295 133.984L288.613 134.576Z" fill="#00376A"/>
<path fill-rule="evenodd" clip-rule="evenodd" d="M278.227 120.904L287.628 119.326L288.614 127.478L287.562 127.939L287.365 130.24L286.313 130.831L287.036 134.579L279.213 134.776L278.227 120.904Z" fill="#E8DABD"/>
<path fill-rule="evenodd" clip-rule="evenodd" d="M287.759 120.904L287.628 119.326L278.227 120.904L278.95 131.094L282.04 123.928L287.759 120.904Z" fill="#2A263C"/>
<path fill-rule="evenodd" clip-rule="evenodd" d="M280.199 125.44C280.857 125.242 281.58 125.9 281.843 126.754C282.04 127.675 281.712 128.529 281.054 128.727C280.397 128.924 279.673 128.267 279.41 127.412C279.148 126.426 279.542 125.571 280.199 125.44Z" fill="#E8DABD"/>
<path fill-rule="evenodd" clip-rule="evenodd" d="M278.292 140.494L263.895 176.061L273.888 137.141L278.292 140.494Z" fill="#00376A"/>
<path fill-rule="evenodd" clip-rule="evenodd" d="M267.247 167.776L263.895 176.06L265.998 167.447L267.247 167.776Z" fill="#E8DABD"/>
<path fill-rule="evenodd" clip-rule="evenodd" d="M267.245 167.776L266.456 171.721L265.996 167.447L267.245 167.776Z" fill="#E8DABD"/>
<path fill-rule="evenodd" clip-rule="evenodd" d="M288.879 136.746L298.74 126.819L307.221 110.186L302.028 129.054L290.785 143.912L288.879 136.746Z" fill="#00376A"/>
<path fill-rule="evenodd" clip-rule="evenodd" d="M303.605 117.286L307.221 110.186L305.118 117.878L303.605 117.286Z" fill="#E8DABD"/>
<path fill-rule="evenodd" clip-rule="evenodd" d="M303.605 117.286L307.484 113.539L305.118 117.878L303.605 117.286Z" fill="#E8DABD"/>
<path fill-rule="evenodd" clip-rule="evenodd" d="M279.147 133.789L283.42 134.709L281.842 138.325L277.438 134.841L279.147 133.789Z" fill="#E6E6E6"/>
<path fill-rule="evenodd" clip-rule="evenodd" d="M279.147 133.789L283.42 134.709L281.711 137.273L277.438 134.841L279.147 133.789Z" fill="white"/>
<path fill-rule="evenodd" clip-rule="evenodd" d="M287.038 133.393L283.422 134.707L285.197 138.258L288.616 134.576L287.038 133.393Z" fill="#E6E6E6"/>
<path fill-rule="evenodd" clip-rule="evenodd" d="M287.038 133.393L283.422 134.707L285.46 137.206L288.616 134.576L287.038 133.393Z" fill="white"/>
<path fill-rule="evenodd" clip-rule="evenodd" d="M282.305 136.418L283.094 137.799L284.146 137.667L284.606 136.155L283.422 134.709L282.305 136.418Z" fill="#851801"/>
<path fill-rule="evenodd" clip-rule="evenodd" d="M284.145 137.668L283.093 137.799L283.027 148.253L285.065 153.907L286.052 148.121L284.145 137.668Z" fill="#851801"/>
<path fill-rule="evenodd" clip-rule="evenodd" d="M245.224 181.715L248.84 197.23L244.172 197.099L245.224 181.715Z" fill="#FFCC00"/>
<path fill-rule="evenodd" clip-rule="evenodd" d="M252.126 216.164L269.088 221.884L264.749 245.026L262.185 226.946L248.51 223.199L241.213 279.607L239.043 223.199L252.126 216.164Z" fill="#E8DABD"/>
<path fill-rule="evenodd" clip-rule="evenodd" d="M237.336 194.273L238.388 216.166L250.813 213.471L248.447 194.076L237.336 194.273Z" fill="white"/>
<path fill-rule="evenodd" clip-rule="evenodd" d="M238.387 216.166L239.636 239.637L262.778 219.979L250.812 213.471L238.387 216.166Z" fill="#038894"/>
<path fill-rule="evenodd" clip-rule="evenodd" d="M239.833 194.141L240.687 218.795L236.151 219.583L236.02 194.404L239.833 194.141Z" fill="#04ABBA"/>
<path fill-rule="evenodd" clip-rule="evenodd" d="M245.945 194.076L250.219 216.495L256.201 215.114L249.627 193.484L245.945 194.076Z" fill="#04ABBA"/>
<path fill-rule="evenodd" clip-rule="evenodd" d="M238.254 181.912L246.34 179.15L248.444 186.974L247.327 187.434L246.603 191.05L245.617 191.182L245.946 194.074L239.832 194.206L238.254 181.912Z" fill="#E8DABD"/>
<path fill-rule="evenodd" clip-rule="evenodd" d="M242.921 197.363C244.63 197.363 245.945 195.916 245.945 194.141C245.945 192.366 244.565 190.92 242.921 190.92C241.212 190.92 239.897 192.366 239.897 194.141C239.831 195.916 241.212 197.363 242.921 197.363Z" fill="#E8DABD"/>
<path fill-rule="evenodd" clip-rule="evenodd" d="M239.373 200.52L217.875 232.275L236.02 194.209L239.373 200.52Z" fill="#04ABBA"/>
<path fill-rule="evenodd" clip-rule="evenodd" d="M222.872 224.909L217.875 232.273L221.754 224.252L222.872 224.909Z" fill="#E8DABD"/>
<path fill-rule="evenodd" clip-rule="evenodd" d="M222.871 224.909L221.293 228.525L221.753 224.252L222.871 224.909Z" fill="#E8DABD"/>
<path fill-rule="evenodd" clip-rule="evenodd" d="M247 181.65C248.512 179.086 246.277 178.362 242.661 179.086C233.062 180.926 234.049 190.985 239.571 198.414L241.412 186.252L247 181.65Z" fill="#FFCC00"/>
<path fill-rule="evenodd" clip-rule="evenodd" d="M240.031 184.873C240.689 184.676 241.412 185.333 241.675 186.188C241.872 187.108 241.543 187.963 240.886 188.16C240.228 188.358 239.505 187.7 239.242 186.845C238.979 185.925 239.308 185.07 240.031 184.873Z" fill="#E8DABD"/>
<path fill-rule="evenodd" clip-rule="evenodd" d="M249.629 193.483L258.57 186.317L267.051 169.684L261.857 188.486L250.023 201.241L249.629 193.483Z" fill="#04ABBA"/>
<path fill-rule="evenodd" clip-rule="evenodd" d="M263.434 176.784L267.05 169.684L264.946 177.376L263.434 176.784Z" fill="#E8DABD"/>
<path fill-rule="evenodd" clip-rule="evenodd" d="M263.434 176.782L267.312 172.969L264.946 177.374L263.434 176.782Z" fill="#E8DABD"/>
<path d="M212.585 225.571L207.633 235.443L222.793 243.049L227.746 233.177L212.585 225.571Z" fill="#C93E78"/>
<path fill-rule="evenodd" clip-rule="evenodd" d="M218.531 238.52L213.929 236.219L214.915 234.181L209.656 231.551L207.684 235.495L222.805 243.056L224.777 239.111L219.517 236.482L218.531 238.52Z" fill="#F978AE"/>
<path d="M215.797 234.573L215.207 235.748L218.086 237.193L218.676 236.017L215.797 234.573Z" fill="#FFCC00"/>
<path fill-rule="evenodd" clip-rule="evenodd" d="M225.303 228.396L217.874 224.648L216.428 227.541L212.549 225.569L210.051 230.631L215.31 233.261L219.912 235.562L225.172 238.192L227.67 233.129L223.791 231.157L225.303 228.396ZM217.809 228.199L218.597 226.621L223.397 229.053L222.608 230.631L217.809 228.199Z" fill="#F978AE"/>
<path fill-rule="evenodd" clip-rule="evenodd" d="M222.871 224.909L221.293 228.525L221.753 224.252L222.871 224.909Z" fill="#E8DABD"/>
<path fill-rule="evenodd" clip-rule="evenodd" d="M353.57 31.0944C376.581 22.7449 392.885 38.2605 414.646 31.0944C411.754 35.039 408.861 38.9836 405.902 42.8625C408.795 47.4646 411.688 52.0667 414.646 56.6687C391.899 64.3608 377.501 50.8833 353.57 56.6687C353.57 48.1878 353.57 39.6411 353.57 31.0944Z" fill="#FFCC00"/>
<path d="M380.756 52.2101H382.54V50.1714C384.612 49.7847 385.711 48.3611 385.711 46.4454C385.711 42.5086 380.233 42.8425 380.233 40.6632C380.233 39.6965 380.828 39.2044 381.891 39.2044C382.81 39.2044 383.459 39.5735 384.198 40.2414L385.531 38.765C384.756 37.9566 383.837 37.3414 382.54 37.1657V35.1621H380.756V37.2008C378.863 37.5523 377.692 38.8705 377.692 40.7862C377.692 44.4594 383.171 44.2485 383.171 46.6212C383.171 47.623 382.594 48.1678 381.332 48.1678C380.305 48.1678 379.35 47.7284 378.359 46.9727L377.188 48.7126C378.143 49.5562 379.53 50.1011 380.756 50.2417V52.2101Z" fill="black"/>
<defs>
<filter id="filter0_d" x="283.762" y="0" width="64.0128" height="42.253" filterUnits="userSpaceOnUse" color-interpolation-filters="sRGB">
<feFlood flood-opacity="0" result="BackgroundImageFix"/>
<feColorMatrix in="SourceAlpha" type="matrix" values="0 0 0 0 0 0 0 0 0 0 0 0 0 0 0 0 0 0 127 0" result="hardAlpha"/>
<feOffset dy="4"/>
<feGaussianBlur stdDeviation="2"/>
<feColorMatrix type="matrix" values="0 0 0 0 0 0 0 0 0 0 0 0 0 0 0 0 0 0 0.25 0"/>
<feBlend mode="normal" in2="BackgroundImageFix" result="effect1_dropShadow"/>
<feBlend mode="normal" in="SourceGraphic" in2="effect1_dropShadow" result="shape"/>
</filter>
<filter id="filter1_d" x="176.73" y="129.58" width="56.7829" height="35.349" filterUnits="userSpaceOnUse" color-interpolation-filters="sRGB">
<feFlood flood-opacity="0" result="BackgroundImageFix"/>
<feColorMatrix in="SourceAlpha" type="matrix" values="0 0 0 0 0 0 0 0 0 0 0 0 0 0 0 0 0 0 127 0" result="hardAlpha"/>
<feOffset dy="4"/>
<feGaussianBlur stdDeviation="2"/>
<feColorMatrix type="matrix" values="0 0 0 0 0 0 0 0 0 0 0 0 0 0 0 0 0 0 0.25 0"/>
<feBlend mode="normal" in2="BackgroundImageFix" result="effect1_dropShadow"/>
<feBlend mode="normal" in="SourceGraphic" in2="effect1_dropShadow" result="shape"/>
</filter>
<filter id="filter2_d" x="395.133" y="118.074" width="64.6052" height="43.6342" filterUnits="userSpaceOnUse" color-interpolation-filters="sRGB">
<feFlood flood-opacity="0" result="BackgroundImageFix"/>
<feColorMatrix in="SourceAlpha" type="matrix" values="0 0 0 0 0 0 0 0 0 0 0 0 0 0 0 0 0 0 127 0" result="hardAlpha"/>
<feOffset dy="4"/>
<feGaussianBlur stdDeviation="2"/>
<feColorMatrix type="matrix" values="0 0 0 0 0 0 0 0 0 0 0 0 0 0 0 0 0 0 0.25 0"/>
<feBlend mode="normal" in2="BackgroundImageFix" result="effect1_dropShadow"/>
<feBlend mode="normal" in="SourceGraphic" in2="effect1_dropShadow" result="shape"/>
</filter>
</defs>
</svg>
