<svg width="32" height="32" viewBox="0 0 32 32" fill="none" xmlns="http://www.w3.org/2000/svg">
<path d="M24 12C23.0111 12 22.0444 12.2932 21.2222 12.8427C20.3999 13.3921 19.759 14.173 19.3806 15.0866C19.0022 16.0002 18.9031 17.0055 19.0961 17.9754C19.289 18.9454 19.7652 19.8363 20.4645 20.5355C21.1637 21.2348 22.0546 21.711 23.0245 21.9039C23.9945 22.0968 24.9998 21.9978 25.9134 21.6194C26.827 21.241 27.6079 20.6001 28.1573 19.7778C28.7068 18.9556 29 17.9889 29 17C28.9985 15.6744 28.4712 14.4035 27.5339 13.4661C26.5965 12.5288 25.3256 12.0015 24 12ZM24 16.5C24.3537 16.5001 24.696 16.6253 24.9664 16.8533C25.2369 17.0814 25.418 17.3977 25.4778 17.7463C25.5376 18.095 25.4723 18.4535 25.2934 18.7587C25.1145 19.0638 24.8335 19.2959 24.5 19.414V20C24.5 20.1326 24.4473 20.2598 24.3536 20.3535C24.2598 20.4473 24.1326 20.5 24 20.5C23.8674 20.5 23.7402 20.4473 23.6464 20.3535C23.5527 20.2598 23.5 20.1326 23.5 20V19.5H23C22.8674 19.5 22.7402 19.4473 22.6464 19.3535C22.5527 19.2598 22.5 19.1326 22.5 19C22.5 18.8674 22.5527 18.7402 22.6464 18.6464C22.7402 18.5527 22.8674 18.5 23 18.5H24C24.1326 18.5 24.2598 18.4473 24.3536 18.3535C24.4473 18.2598 24.5 18.1326 24.5 18C24.5 17.8674 24.4473 17.7402 24.3536 17.6464C24.2598 17.5527 24.1326 17.5 24 17.5C23.6463 17.4999 23.304 17.3747 23.0336 17.1466C22.7631 16.9186 22.582 16.6023 22.5222 16.2537C22.4624 15.905 22.5277 15.5465 22.7066 15.2413C22.8855 14.9362 23.1665 14.7041 23.5 14.586V14C23.5 13.8674 23.5527 13.7402 23.6464 13.6464C23.7402 13.5527 23.8674 13.5 24 13.5C24.1326 13.5 24.2598 13.5527 24.3536 13.6464C24.4473 13.7402 24.5 13.8674 24.5 14V14.5H25C25.1326 14.5 25.2598 14.5527 25.3536 14.6464C25.4473 14.7402 25.5 14.8674 25.5 15C25.5 15.1326 25.4473 15.2598 25.3536 15.3536C25.2598 15.4473 25.1326 15.5 25 15.5H24C23.8674 15.5 23.7402 15.5527 23.6464 15.6464C23.5527 15.7402 23.5 15.8674 23.5 16C23.5 16.1326 23.5527 16.2598 23.6464 16.3536C23.7402 16.4473 23.8674 16.5 24 16.5Z" fill="#851801"/>
<path d="M2 22H5.5V30H2V22Z" fill="#851801"/>
<path d="M28.9367 24.2999L18.6492 26.9836C18.5458 27.0106 18.4365 27.0037 18.3373 26.9641L14.6361 25.4836L12.6209 25.985C12.557 26.0014 12.4905 26.005 12.4253 25.9955C12.36 25.9861 12.2972 25.9639 12.2406 25.9301C12.1839 25.8963 12.1345 25.8516 12.0952 25.7986C12.0559 25.7457 12.0275 25.6854 12.0116 25.6214C11.9956 25.5574 11.9925 25.4909 12.0024 25.4257C12.0123 25.3605 12.035 25.2979 12.0692 25.2415C12.1034 25.1851 12.1484 25.136 12.2017 25.0971C12.2549 25.0581 12.3153 25.0301 12.3794 25.0146L17.3044 23.7891C17.4668 23.7483 17.6064 23.6448 17.6924 23.5012C17.7785 23.3576 17.8041 23.1857 17.7635 23.0233C17.7277 22.8816 17.644 22.7566 17.5266 22.6695C17.4091 22.5825 17.2652 22.5387 17.1192 22.5456L8.54944 22.9991L6.5 22.9984V28.924L9.4525 28.5049C9.51406 28.4961 9.57673 28.4989 9.63725 28.5132L17.9872 30.4778L29.4998 26.05C29.7189 25.9653 29.8974 25.8 29.9987 25.588C30.0999 25.376 30.1163 25.1332 30.0444 24.9096C29.9725 24.6859 29.8178 24.4981 29.6119 24.3848C29.4061 24.2715 29.1647 24.2411 28.9373 24.3L28.9367 24.2999Z" fill="#851801"/>
<path d="M29.5 1.5H26.5C26.3674 1.5 26.2402 1.55268 26.1465 1.64645C26.0527 1.74021 26 1.86739 26 2C26 2.13261 26.0527 2.25979 26.1465 2.35355C26.2402 2.44732 26.3674 2.5 26.5 2.5H28.2929L21.7929 9H17.5C17.4344 9 17.3693 9.01293 17.3087 9.03805C17.248 9.06318 17.1929 9.10001 17.1464 9.14644L9.79295 16.5H6.00001C5.93435 16.5 5.86933 16.5129 5.80867 16.5381C5.748 16.5632 5.69288 16.6 5.64645 16.6464L2.14645 20.1464C2.05268 20.2402 2 20.3674 2 20.5C2 20.6326 2.05268 20.7598 2.14645 20.8536C2.24022 20.9473 2.3674 21 2.50001 21C2.63262 21 2.7598 20.9473 2.85358 20.8536L6.20708 17.5H10C10.0657 17.5 10.1307 17.4871 10.1914 17.4619C10.252 17.4368 10.3071 17.4 10.3536 17.3536L17.7071 10H22C22.0657 10 22.1307 9.98707 22.1914 9.96195C22.252 9.93682 22.3071 9.89999 22.3536 9.85356L29 3.20712V5C29 5.13261 29.0527 5.25979 29.1465 5.35355C29.2402 5.44732 29.3674 5.5 29.5 5.5C29.6326 5.5 29.7598 5.44732 29.8536 5.35355C29.9473 5.25979 30 5.13261 30 5V2C30 1.86739 29.9473 1.74021 29.8536 1.64645C29.7598 1.55268 29.6326 1.5 29.5 1.5Z" fill="#851801"/>
</svg>
