<svg width="32" height="32" viewBox="0 0 32 32" fill="none" xmlns="http://www.w3.org/2000/svg">
<g clip-path="url(#clip0)">
<path d="M4 25.5C4 25.6989 4.07902 25.8897 4.21967 26.0303C4.36032 26.171 4.55109 26.25 4.75 26.25H6.4375C6.60476 26.25 6.76722 26.1941 6.89906 26.0912C7.0309 25.9882 7.12455 25.8442 7.16512 25.6819L8.33556 21H4V25.5Z" fill="#851801"/>
<path d="M9 20.3171C11.4716 20.6934 16.9129 22.634 20.5 25.9264V6.07227C16.9129 9.36464 11.4716 11.3053 9 11.6816V20.3171Z" fill="#851801"/>
<path d="M23.25 3C22.7197 3.0006 22.2114 3.2115 21.8364 3.58644C21.4615 3.96139 21.2506 4.46975 21.25 5V27C21.25 27.5304 21.4607 28.0391 21.8358 28.4142C22.2109 28.7893 22.7196 29 23.25 29C23.7804 29 24.2891 28.7893 24.6642 28.4142C25.0393 28.0391 25.25 27.5304 25.25 27V5C25.2494 4.46975 25.0385 3.96139 24.6636 3.58644C24.2886 3.2115 23.7803 3.0006 23.25 3Z" fill="#851801"/>
<path d="M4 11.75H8.25V20.25H4V11.75Z" fill="#851801"/>
<path d="M0 14V18C0.000661713 18.5965 0.237927 19.1684 0.659741 19.5903C1.08155 20.0121 1.65347 20.2493 2.25 20.25H3.25V11.75H2.25C1.65347 11.7507 1.08155 11.9879 0.659741 12.4097C0.237927 12.8316 0.000661713 13.4035 0 14Z" fill="#851801"/>
<path d="M30.75 15.25H28.25C28.0511 15.25 27.8603 15.329 27.7197 15.4697C27.579 15.6103 27.5 15.8011 27.5 16C27.5 16.1989 27.579 16.3897 27.7197 16.5303C27.8603 16.671 28.0511 16.75 28.25 16.75H30.75C30.9489 16.75 31.1397 16.671 31.2803 16.5303C31.421 16.3897 31.5 16.1989 31.5 16C31.5 15.8011 31.421 15.6103 31.2803 15.4697C31.1397 15.329 30.9489 15.25 30.75 15.25Z" fill="#851801"/>
<path d="M27.0162 11.3335C27.1286 11.3335 27.2395 11.3081 27.3407 11.2593L29.594 10.176C29.7732 10.0898 29.9109 9.93587 29.9767 9.74816C30.0426 9.56045 30.0311 9.35428 29.9449 9.17501C29.8587 8.99574 29.7048 8.85806 29.5171 8.79224C29.3294 8.72643 29.1232 8.73788 28.944 8.82407L26.6909 9.90745C26.5376 9.98107 26.4139 10.1046 26.3401 10.2578C26.2662 10.4109 26.2466 10.5847 26.2844 10.7504C26.3223 10.9162 26.4153 11.0642 26.5484 11.1702C26.6814 11.2761 26.8464 11.3337 27.0165 11.3335H27.0162Z" fill="#851801"/>
<path d="M29.593 21.8251L27.34 20.7418C27.1609 20.6572 26.9557 20.6469 26.769 20.713C26.5823 20.7792 26.4294 20.9164 26.3436 21.0949C26.2578 21.2734 26.246 21.4786 26.3109 21.6657C26.3758 21.8528 26.5121 22.0066 26.69 22.0936L28.943 23.177C29.1223 23.2632 29.3285 23.2746 29.5162 23.2088C29.7039 23.143 29.8578 23.0053 29.944 22.8261C30.0301 22.6468 30.0416 22.4406 29.9758 22.2529C29.91 22.0652 29.7723 21.9113 29.593 21.8251Z" fill="#851801"/>
</g>
<defs>
<clipPath id="clip0">
<rect width="31.5" height="32" fill="white"/>
</clipPath>
</defs>
</svg>
