<svg width="32" height="32" viewBox="0 0 32 32" fill="none" xmlns="http://www.w3.org/2000/svg">
<path d="M16.0004 8.38483L17.1766 6.62109H14.8242L16.0004 8.38483Z" fill="#851801"/>
<path d="M0.550781 18.7591C0.550781 20.2825 1.78596 21.5177 3.3094 21.5177H6.61975C7.53381 21.5177 8.27492 22.2588 8.27492 23.1729V30.897H10.4818V20.966C10.4818 19.4426 9.24663 18.2074 7.7232 18.2074H5.5163C4.60224 18.2074 3.86113 17.4663 3.86113 16.5522V10.4832C3.86113 10.1785 4.10816 9.93151 4.41285 9.93151C4.71754 9.93151 4.96457 10.1785 4.96457 10.4832V16.5522C4.96457 16.8569 5.21161 17.1039 5.5163 17.1039H12.137V14.897H7.17147V9.37978C7.17147 8.46572 6.43036 7.72461 5.5163 7.72461H3.3094C1.78596 7.72461 0.550781 8.95979 0.550781 10.4832V18.7591Z" fill="#851801"/>
<path d="M31.4495 18.7591V10.4832C31.4495 8.95979 30.2143 7.72461 28.6909 7.72461H26.484C25.5699 7.72461 24.8288 8.46572 24.8288 9.37978V14.897H19.8633V17.1039H26.484C26.7887 17.1039 27.0357 16.8569 27.0357 16.5522V10.4832C27.0357 10.1785 27.2827 9.93151 27.5874 9.93151C27.8921 9.93151 28.1391 10.1785 28.1391 10.4832V16.5522C28.1391 17.4663 27.398 18.2074 26.484 18.2074H24.2771C22.7536 18.2074 21.5185 19.4426 21.5185 20.966V30.897H23.7254V23.1729C23.7254 22.2588 24.4665 21.5177 25.3805 21.5177H28.6909C30.2143 21.5177 31.4495 20.2825 31.4495 18.7591Z" fill="#851801"/>
<path d="M11.0352 13.7925H13.2421V17.1028H18.7593V13.7925H20.9662V9.3787C20.9616 7.96626 19.8889 6.78657 18.4834 6.6481L16.0007 10.3717L13.5179 6.64648C12.1117 6.78495 11.0389 7.96572 11.0352 9.3787V13.7925Z" fill="#851801"/>
<path d="M1.65625 22.4277H2.7597V32.0002H1.65625V22.4277Z" fill="#851801"/>
<path d="M29.2422 22.4277H30.3456V32.0002H29.2422V22.4277Z" fill="#851801"/>
<path d="M16.5525 21.5176H15.4491V30.8969H13.2422V32.0003H18.7594V30.8969H16.5525V21.5176Z" fill="#851801"/>
<path d="M29.2399 3.86214C29.2399 5.38557 28.0047 6.62076 26.4813 6.62076C24.9578 6.62076 23.7227 5.38557 23.7227 3.86214C23.7227 2.3387 24.9578 1.10352 26.4813 1.10352C28.0047 1.10352 29.2399 2.3387 29.2399 3.86214Z" fill="#851801"/>
<path d="M20.4582 20.4139C20.5789 19.575 20.9728 18.7994 21.5787 18.207H10.4219C11.0277 18.7994 11.4216 19.575 11.5423 20.4139H20.4582Z" fill="#851801"/>
<path d="M18.7594 2.75862C18.7594 4.28206 17.5242 5.51724 16.0008 5.51724C14.4774 5.51724 13.2422 4.28206 13.2422 2.75862C13.2422 1.23518 14.4774 0 16.0008 0C17.5242 0 18.7594 1.23518 18.7594 2.75862Z" fill="#851801"/>
<path d="M8.27506 3.86214C8.27506 5.38557 7.03988 6.62076 5.51644 6.62076C3.993 6.62076 2.75781 5.38557 2.75781 3.86214C2.75781 2.3387 3.993 1.10352 5.51644 1.10352C7.03988 1.10352 8.27506 2.3387 8.27506 3.86214Z" fill="#851801"/>
</svg>
