<svg width="32" height="32" viewBox="0 0 32 32" fill="none" xmlns="http://www.w3.org/2000/svg">
<path d="M16 26.5V21.207L15 22.207V27.5H18.025C18.01 27.335 18 27.169 18 27C18 26.831 18.0105 26.665 18.025 26.5H16Z" fill="#851801"/>
<path d="M5 13.4996C4.831 13.4996 4.665 13.4891 4.5 13.4746V18.9996H7.793L8.793 17.9996H5.5V13.4746C5.335 13.4891 5.169 13.4996 5 13.4996Z" fill="#851801"/>
<path d="M21.1465 27.3535L21.8535 26.6465L23 27.793L26.82 23.973C25.9965 23.0705 24.815 22.5 23.5 22.5C21.019 22.5 19 24.5185 19 27C19 29.4815 21.019 31.5 23.5 31.5C25.981 31.5 28 29.4815 28 27C28 26.197 27.786 25.444 27.416 24.791L23 29.207L21.1465 27.3535Z" fill="#851801"/>
<path d="M5 12.5C7.481 12.5 9.5 10.4815 9.5 8C9.5 5.5185 7.481 3.5 5 3.5C2.519 3.5 0.5 5.5185 0.5 8C0.5 10.4815 2.519 12.5 5 12.5ZM2.6465 6.3535L3.3535 5.6465L5 7.293L6.6465 5.6465L7.3535 6.3535L5.707 8L7.3535 9.6465L6.6465 10.3535L5 8.707L3.3535 10.3535L2.6465 9.6465L4.293 8L2.6465 6.3535Z" fill="#851801"/>
<path d="M28.6468 22.1465L26.8203 23.973C27.0478 24.2225 27.2488 24.4955 27.4163 24.791L29.3538 22.8535L28.6468 22.1465Z" fill="#851801"/>
<path d="M5.00109 27.0003V24.8908L3.79709 24.5898L2.62109 27.4133L4.58859 29.3808L7.41159 28.2043L7.11059 27.0003H5.00109Z" fill="#851801"/>
<path d="M1.5255 30.0382C1.5085 30.0792 1.5 30.1222 1.5 30.1662C1.5 30.3947 1.7475 30.5627 1.9625 30.4737L3.589 29.7957L2.2035 28.4102L1.5255 30.0382Z" fill="#851801"/>
<path d="M18.6266 16.492L17.4756 17.205L16.4881 16.2175L15.8521 16.8535L15.1451 16.1465L15.7811 15.5105L14.7941 14.5235L15.5066 13.372C15.4251 13.225 15.3596 13.07 15.2876 12.918L4.47656 23.729L5.99856 24.1095V25.293L10.6451 20.6465L11.3521 21.3535L6.70556 26H7.88906L8.26956 27.522L19.0801 16.711C18.9286 16.639 18.7736 16.574 18.6266 16.492ZM11.8521 20.8535L11.1451 20.1465L11.8521 19.4395L12.5591 20.1465L11.8521 20.8535ZM13.2666 19.4395L12.5596 18.7325L13.2666 18.0255L13.9736 18.7325L13.2666 19.4395ZM14.6806 18.025L13.9736 17.318L14.6451 16.6465L15.3521 17.3535L14.6806 18.025Z" fill="#851801"/>
<path d="M22.5 4.5C19.743 4.5 17.5 6.743 17.5 9.5C17.5 12.257 19.743 14.5 22.5 14.5C25.257 14.5 27.5 12.257 27.5 9.5C27.5 6.743 25.257 4.5 22.5 4.5ZM22.5 14C21.673 14 21 13.327 21 12.5C21 11.673 21.673 11 22.5 11C23.327 11 24 11.673 24 12.5C24 13.327 23.327 14 22.5 14ZM23.989 6.621L23.5545 9.0905C23.4915 9.5985 23.0365 10 22.5 10C21.9635 10 21.5085 9.5985 21.442 9.066L21.015 6.645C21.0035 6.5615 21 6.5015 21 6.4415C21 5.6465 21.6465 5 22.4415 5H22.5585C23.3535 5 24 5.6465 24 6.4415C24 6.5015 23.9965 6.5615 23.989 6.621Z" fill="#851801"/>
<path d="M29.364 8.1285L29.291 7.831C29.122 7.142 28.85 6.4855 28.4815 5.879L28.3225 5.6175L28.937 4.6245L27.3755 3.063L26.3825 3.6775L26.1205 3.5185C25.513 3.1505 24.8565 2.878 24.1685 2.71L23.871 2.637L23.604 1.5H21.396L21.1285 2.6365L20.831 2.7095C20.1435 2.8775 19.4865 3.15 18.879 3.518L18.617 3.677L17.624 3.0625L16.0625 4.624L16.677 5.617L16.518 5.8785C16.15 6.485 15.8775 7.1415 15.7085 7.8305L15.6355 8.128L14.5 8.396V10.604L15.636 10.8715L15.709 11.169C15.878 11.858 16.15 12.5145 16.5185 13.121L16.6775 13.3825L16.063 14.3755L17.6245 15.937L18.6175 15.3225L18.8795 15.4815C19.487 15.8495 20.1435 16.122 20.8315 16.29L21.129 16.363L21.396 17.5H23.604L23.8715 16.3635L24.169 16.2905C24.8565 16.1225 25.5135 15.85 26.121 15.482L26.383 15.323L27.376 15.9375L28.9375 14.376L28.323 13.383L28.482 13.1215C28.8505 12.5145 29.1225 11.858 29.2915 11.1695L29.3645 10.872L30.5 10.604V8.396L29.364 8.1285ZM22.5 15.5C19.1915 15.5 16.5 12.8085 16.5 9.5C16.5 6.1915 19.1915 3.5 22.5 3.5C25.8085 3.5 28.5 6.1915 28.5 9.5C28.5 12.8085 25.8085 15.5 22.5 15.5Z" fill="#851801"/>
<path d="M22.5585 6H22.4415C22.198 6 22 6.198 22 6.4415C22 6.4595 22.001 6.4775 22.0035 6.495L22.4305 8.91699C22.446 9.03299 22.5575 9.0085 22.566 8.942L23 6.471C22.999 6.4735 23 6.4645 23 6.441C23 6.198 22.802 6 22.5585 6Z" fill="#851801"/>
<path d="M22.5 13C22.7761 13 23 12.7761 23 12.5C23 12.2239 22.7761 12 22.5 12C22.2239 12 22 12.2239 22 12.5C22 12.7761 22.2239 13 22.5 13Z" fill="#851801"/>
</svg>
