<svg width="32" height="32" viewBox="0 0 32 32" fill="none" xmlns="http://www.w3.org/2000/svg">
<path d="M1.5625 24.0015C1.5625 24.9539 2.12134 25.8284 2.98511 26.2275L14.9712 31.7732C15.2981 31.9243 15.6487 32 16 32C16.3513 32 16.7019 31.9243 17.0288 31.7732L29.0149 26.2275C29.8787 25.8284 30.4375 24.9539 30.4375 24.0015V3.75H1.5625V24.0015ZM18.2969 13.0615C18.2969 11.4585 19.6013 10.1543 21.2043 10.1543C22.8081 10.1543 24.1125 11.4585 24.1125 13.0615V17.0022C24.1125 18.606 22.8081 19.9102 21.2043 19.9102C19.6013 19.9102 18.2969 18.606 18.2969 17.0022V13.0615ZM11.3962 11.6179C11.4031 10.8091 12.0625 10.1541 12.8726 10.1541H15.5164C16.4512 10.1541 17.2119 10.9148 17.2119 11.8496V14.2734C17.2119 15.2085 16.4512 15.9695 15.5164 15.9695H13.2712V18.9727C13.2712 19.4902 12.8518 19.9102 12.3337 19.9102C11.8162 19.9102 11.3962 19.4902 11.3962 18.9727V11.6179ZM8.27002 11.0918C8.27002 10.5735 8.68994 10.1543 9.20752 10.1543C9.7251 10.1543 10.145 10.5735 10.145 11.0918V18.9729C10.145 19.4902 9.7251 19.9104 9.20752 19.9104C8.68994 19.9104 8.27002 19.4902 8.27002 18.9729V11.0918ZM9.20752 21.1982H23.175C23.6924 21.1982 24.1125 21.6184 24.1125 22.1357C24.1125 22.6533 23.6924 23.0732 23.175 23.0732H9.20752C8.68994 23.0732 8.27002 22.6533 8.27002 22.1357C8.27002 21.6184 8.68994 21.1982 9.20752 21.1982Z" fill="#851801"/>
<path d="M13.2695 12.0293H15.3352V14.095H13.2695V12.0293Z" fill="#851801"/>
<path d="M21.2043 18.0354C21.7737 18.0354 22.2375 17.5718 22.2375 17.0024V13.0618C22.2375 12.4924 21.7737 12.0293 21.2043 12.0293C20.635 12.0293 20.1719 12.4924 20.1719 13.0618V17.0024C20.1719 17.5718 20.635 18.0354 21.2043 18.0354Z" fill="#851801"/>
<path d="M31.0625 0H0.9375C0.419678 0 0 0.419678 0 0.9375C0 1.45532 0.419678 1.875 0.9375 1.875H31.0625C31.5803 1.875 32 1.45532 32 0.9375C32 0.419678 31.5803 0 31.0625 0Z" fill="#851801"/>
</svg>
