<svg width="465" height="396" viewBox="0 0 465 396" fill="none" xmlns="http://www.w3.org/2000/svg">
<circle cx="241" cy="221" r="163" stroke="#838291" stroke-width="4" stroke-dasharray="10 18"/>
<circle cx="233" cy="85" r="85" fill="#F9F9FB"/>
<path d="M204.959 54.2372L209.647 62.3564C210.294 63.4773 211.727 63.8614 212.848 63.2142L214.904 62.027C215.627 62.5258 216.389 62.965 217.186 63.3422V65.7189C217.186 67.0133 218.235 68.0625 219.53 68.0625H228.905C230.199 68.0625 231.249 67.0133 231.249 65.7189V63.3422C232.045 62.965 232.808 62.5259 233.53 62.027L235.587 63.2142C236.708 63.8614 238.141 63.4773 238.788 62.3564L243.476 54.2372C244.123 53.1163 243.739 51.683 242.618 51.0358L240.567 49.8517C240.605 49.4081 240.624 48.9697 240.624 48.5311C240.624 48.0925 240.605 47.6541 240.567 47.2105L242.618 46.0264C243.739 45.3792 244.123 43.9459 243.476 42.825L238.788 34.7058C238.141 33.5848 236.708 33.2008 235.587 33.848L233.53 35.0352C232.808 34.5364 232.045 34.0972 231.249 33.72V31.3436C231.248 30.0492 230.199 29 228.905 29H219.53C218.235 29 217.186 30.0492 217.186 31.3436V33.7203C216.389 34.0975 215.627 34.5366 214.904 35.0355L212.848 33.8483C211.727 33.2011 210.294 33.5852 209.646 34.7061L204.959 42.8253C204.312 43.9462 204.696 45.3795 205.817 46.0267L207.868 47.2108C207.83 47.6542 207.811 48.0927 207.811 48.5312C207.811 48.9698 207.83 49.4083 207.867 49.8519L205.817 51.0359C204.696 51.683 204.312 53.1163 204.959 54.2372ZM221.873 43.8438C221.873 42.5494 222.923 41.5 224.217 41.5C225.512 41.5 226.561 42.5494 226.561 43.8438V46.1875H228.905C230.199 46.1875 231.248 47.2369 231.248 48.5312C231.248 49.8256 230.199 50.875 228.905 50.875H224.217C222.923 50.875 221.873 49.8256 221.873 48.5312V43.8438Z" fill="#851801"/>
<path d="M272.656 72.75H265.625C264.331 72.75 263.281 73.7994 263.281 75.0938V104.312H255.469V81.3438C255.469 80.0494 254.419 79 253.125 79H246.094C244.799 79 243.75 80.0494 243.75 81.3438V104.312H235.938V87.5938C235.938 86.2994 234.888 85.25 233.594 85.25H226.562C225.268 85.25 224.219 86.2994 224.219 87.5938V104.312H216.406V93.8438C216.406 92.5494 215.357 91.5 214.062 91.5H207.031C205.737 91.5 204.688 92.5494 204.688 93.8438V104.312H199.688V31.3438C199.688 30.0494 198.638 29 197.344 29C196.049 29 195 30.0494 195 31.3438V106.656C195 107.951 196.049 109 197.344 109H272.656C273.951 109 275 107.951 275 106.656V75.0938C275 73.7994 273.951 72.75 272.656 72.75Z" fill="#851801"/>
<path d="M207.031 77.4378C205.737 77.4378 204.688 78.4872 204.688 79.7816C204.688 81.0759 205.737 82.1253 207.031 82.1253C231.985 82.1253 255.017 69.4714 268.435 48.7497L268.795 50.5537C269.049 51.823 270.284 52.6462 271.553 52.3923C272.822 52.1384 273.646 50.9037 273.392 49.6345L271.829 41.822C271.575 40.5528 270.341 39.7297 269.071 39.9834L261.259 41.5459C259.99 41.7998 259.167 43.0345 259.42 44.3037C259.674 45.573 260.909 46.3961 262.178 46.1423L264.888 45.6005C252.388 65.3508 230.627 77.4378 207.031 77.4378Z" fill="#851801"/>
<circle cx="85" cy="246" r="85" fill="#F9F9FB"/>
<path d="M85 253.844C81.7564 253.844 78.8514 252.371 76.9152 250.061C74.6788 252.196 73.2812 255.203 73.2812 258.532V261.657C73.2812 262.951 74.3306 264 75.625 264H94.375C95.6694 264 96.7188 262.951 96.7188 261.657V258.532C96.7188 255.203 95.3213 252.196 93.0848 250.061C91.1486 252.371 88.2436 253.844 85 253.844Z" fill="#851801"/>
<path d="M56.7188 249.157C59.9497 249.157 62.5781 246.529 62.5781 243.298V240.173C62.5781 237.775 61.1298 235.71 59.0625 234.804V233.376C59.0625 232.083 60.1139 231.032 61.4063 231.032H82.6563V234.804C80.5889 235.71 79.1406 237.775 79.1406 240.173V243.298C79.1406 246.529 81.7691 249.157 85 249.157C88.2309 249.157 90.8594 246.529 90.8594 243.298V240.173C90.8594 237.775 89.4111 235.71 87.3438 234.804V231.032H108.594C109.886 231.032 110.938 232.083 110.938 233.376V234.804C108.87 235.71 107.422 237.775 107.422 240.173V243.298C107.422 246.529 110.05 249.157 113.281 249.157C116.512 249.157 119.141 246.529 119.141 243.298V240.173C119.141 237.775 117.692 235.71 115.625 234.804V233.376C115.625 229.499 112.471 226.345 108.594 226.345H87.3438V222.938C86.5734 223.02 85.7917 223.063 85 223.063C84.2083 223.063 83.4266 223.02 82.6563 222.938V226.345H61.4063C57.5292 226.345 54.375 229.499 54.375 233.376V234.804C52.3077 235.71 50.8594 237.775 50.8594 240.173V243.298C50.8594 246.529 53.4878 249.157 56.7188 249.157Z" fill="#851801"/>
<path d="M56.7188 253.844C53.4752 253.844 50.5702 252.371 48.6339 250.061C46.3975 252.196 45 255.203 45 258.532V261.657C45 262.951 46.0494 264 47.3438 264H66.0938C67.3881 264 68.4375 262.951 68.4375 261.657V258.532C68.4375 255.203 67.04 252.196 64.8036 250.061C62.8673 252.371 59.9623 253.844 56.7188 253.844Z" fill="#851801"/>
<path d="M121.366 250.061C119.43 252.371 116.525 253.844 113.281 253.844C110.038 253.844 107.133 252.371 105.196 250.061C102.96 252.196 101.562 255.203 101.562 258.532V261.657C101.562 262.951 102.612 264 103.906 264H122.656C123.951 264 125 262.951 125 261.657V258.532C125 255.203 123.602 252.196 121.366 250.061Z" fill="#851801"/>
<path d="M87.9992 205.425C88.1019 204.814 88.1439 203.359 86.4531 202.646V207.665C87.332 207.162 87.8569 206.272 87.9992 205.425Z" fill="#851801"/>
<path d="M85 218.375C94.4923 218.375 102.188 210.68 102.188 201.188C102.188 191.695 94.4923 184 85 184C75.5077 184 67.8125 191.695 67.8125 201.188C67.8125 210.68 75.5077 218.375 85 218.375ZM79.0877 207.573C79.5602 206.851 80.5286 206.649 81.2506 207.121C82.0945 207.673 82.6236 207.913 83.3297 208.012V201.413C82.3316 200.956 81.5856 200.516 80.9736 200.036C79.677 199.019 79.085 197.254 79.4286 195.431C79.803 193.443 81.1863 191.863 83.0383 191.305C83.1364 191.275 83.2334 191.248 83.3297 191.222V190.25C83.3297 189.387 84.0292 188.688 84.8922 188.688C85.7552 188.688 86.4547 189.387 86.4547 190.25V191.051C87.9717 191.314 89.0439 192.061 89.5631 192.657C90.13 193.307 90.0622 194.294 89.4116 194.861C88.7642 195.425 87.7844 195.361 87.2161 194.72C87.1808 194.684 86.9323 194.445 86.4547 194.268V199.317C86.732 199.42 87.0091 199.52 87.2813 199.616C90.028 200.587 91.5556 203.13 91.0827 205.943C90.715 208.13 89.0509 210.347 86.4547 211.006V212.125C86.4547 212.988 85.7552 213.688 84.8922 213.688C84.0292 213.688 83.3297 212.988 83.3297 212.125V211.156C82.0681 211.047 81.0223 210.706 79.54 209.736C78.8177 209.264 78.6152 208.295 79.0877 207.573Z" fill="#851801"/>
<path d="M83.3293 194.609C82.8524 194.975 82.5896 195.529 82.4991 196.009C82.3743 196.671 82.5324 197.286 82.902 197.576C83.0321 197.678 83.1756 197.778 83.3293 197.877V194.609Z" fill="#851801"/>
<circle cx="380" cy="311" r="85" fill="#F9F9FB"/>
<path d="M400 279C397.528 279 395.111 279.733 393.055 281.107C391 282.48 389.398 284.432 388.452 286.716C387.505 289.001 387.258 291.514 387.74 293.939C388.223 296.363 389.413 298.591 391.161 300.339C392.909 302.087 395.137 303.277 397.561 303.76C399.986 304.242 402.499 303.995 404.784 303.048C407.068 302.102 409.02 300.5 410.393 298.445C411.767 296.389 412.5 293.972 412.5 291.5C412.496 288.186 411.178 285.009 408.835 282.665C406.491 280.322 403.314 279.004 400 279ZM400 290.25C400.884 290.25 401.74 290.563 402.416 291.133C403.092 291.704 403.545 292.494 403.694 293.366C403.844 294.237 403.681 295.134 403.233 295.897C402.786 296.66 402.084 297.24 401.25 297.535V299C401.25 299.332 401.118 299.649 400.884 299.884C400.649 300.118 400.332 300.25 400 300.25C399.668 300.25 399.351 300.118 399.116 299.884C398.882 299.649 398.75 299.332 398.75 299V297.75H397.5C397.168 297.75 396.851 297.618 396.616 297.384C396.382 297.149 396.25 296.832 396.25 296.5C396.25 296.168 396.382 295.851 396.616 295.616C396.851 295.382 397.168 295.25 397.5 295.25H400C400.332 295.25 400.649 295.118 400.884 294.884C401.118 294.649 401.25 294.332 401.25 294C401.25 293.668 401.118 293.351 400.884 293.116C400.649 292.882 400.332 292.75 400 292.75C399.116 292.75 398.26 292.437 397.584 291.867C396.908 291.296 396.455 290.506 396.306 289.634C396.156 288.763 396.319 287.866 396.767 287.103C397.214 286.34 397.916 285.76 398.75 285.465V284C398.75 283.668 398.882 283.351 399.116 283.116C399.351 282.882 399.668 282.75 400 282.75C400.332 282.75 400.649 282.882 400.884 283.116C401.118 283.351 401.25 283.668 401.25 284V285.25H402.5C402.832 285.25 403.149 285.382 403.384 285.616C403.618 285.851 403.75 286.168 403.75 286.5C403.75 286.832 403.618 287.149 403.384 287.384C403.149 287.618 402.832 287.75 402.5 287.75H400C399.668 287.75 399.351 287.882 399.116 288.116C398.882 288.351 398.75 288.668 398.75 289C398.75 289.332 398.882 289.649 399.116 289.884C399.351 290.118 399.668 290.25 400 290.25Z" fill="#851801"/>
<path d="M345 304H353.75V324H345V304Z" fill="#851801"/>
<path d="M412.342 309.751L386.623 316.46C386.365 316.527 386.091 316.51 385.843 316.411L376.59 312.71L371.552 313.964C371.393 314.004 371.226 314.013 371.063 313.99C370.9 313.966 370.743 313.911 370.601 313.826C370.46 313.742 370.336 313.63 370.238 313.498C370.14 313.365 370.069 313.215 370.029 313.055C369.989 312.895 369.981 312.728 370.006 312.565C370.031 312.402 370.087 312.246 370.173 312.105C370.258 311.964 370.371 311.841 370.504 311.744C370.637 311.646 370.788 311.576 370.949 311.538L383.261 308.474C383.667 308.372 384.016 308.113 384.231 307.754C384.446 307.395 384.51 306.965 384.409 306.559C384.319 306.205 384.11 305.892 383.816 305.675C383.523 305.457 383.163 305.348 382.798 305.365L361.374 306.499L356.25 306.497V321.311L363.631 320.263C363.785 320.241 363.942 320.248 364.093 320.284L384.968 325.196L413.749 314.126C414.297 313.914 414.744 313.501 414.997 312.971C415.25 312.441 415.291 311.834 415.111 311.275C414.931 310.716 414.544 310.246 414.03 309.963C413.515 309.68 412.912 309.604 412.343 309.751L412.342 309.751Z" fill="#851801"/>
<path d="M413.75 252.75H406.25C405.919 252.75 405.601 252.882 405.366 253.116C405.132 253.351 405 253.668 405 254C405 254.332 405.132 254.649 405.366 254.884C405.601 255.118 405.919 255.25 406.25 255.25H410.732L394.482 271.5H383.75C383.586 271.5 383.423 271.532 383.272 271.595C383.12 271.658 382.982 271.75 382.866 271.866L364.482 290.25H355C354.836 290.25 354.673 290.282 354.522 290.345C354.37 290.408 354.232 290.5 354.116 290.616L345.366 299.366C345.132 299.601 345 299.918 345 300.25C345 300.582 345.132 300.899 345.366 301.134C345.601 301.368 345.919 301.5 346.25 301.5C346.582 301.5 346.9 301.368 347.134 301.134L355.518 292.75H365C365.164 292.75 365.327 292.718 365.478 292.655C365.63 292.592 365.768 292.5 365.884 292.384L384.268 274H395C395.164 274 395.327 273.968 395.478 273.905C395.63 273.842 395.768 273.75 395.884 273.634L412.5 257.018V261.5C412.5 261.832 412.632 262.149 412.866 262.384C413.101 262.618 413.419 262.75 413.75 262.75C414.082 262.75 414.399 262.618 414.634 262.384C414.868 262.149 415 261.832 415 261.5V254C415 253.668 414.868 253.351 414.634 253.116C414.399 252.882 414.082 252.75 413.75 252.75Z" fill="#851801"/>
<path d="M38.692 287.68V289.57H44.218C43.876 293.242 42.04 295.834 37.81 297.868L39.052 299.74C44.938 296.896 46.648 292.756 46.648 287.68H38.692ZM49.186 285.952V302.53H51.58V285.952H49.186ZM65.8346 300.46H59.5706V298.984H65.8346V300.46ZM65.8346 297.184H59.5706V295.6H57.2126V302.35H68.1926V295.6H65.8346V297.184ZM58.9046 292.594C57.6986 292.594 56.8166 291.856 56.8166 290.614C56.8166 289.372 57.6986 288.634 58.9046 288.634C60.1286 288.634 61.0106 289.372 61.0106 290.614C61.0106 291.856 60.1286 292.594 58.9046 292.594ZM65.8166 285.97V289.624H63.1706C62.7026 287.86 61.0106 286.654 58.9046 286.654C56.4206 286.654 54.5486 288.31 54.5486 290.614C54.5486 292.918 56.4206 294.574 58.9046 294.574C61.0466 294.574 62.7386 293.35 63.1886 291.55H65.8166V294.88H68.1926V285.97H65.8166ZM71.6472 287.662V289.588H77.0652C76.6332 293.26 74.5812 295.888 70.7292 297.868L72.0612 299.686C77.5692 296.896 79.4592 292.63 79.4592 287.662H71.6472ZM86.1912 292.288H83.8692V285.952H81.4932V302.512H83.8692V294.25H86.1912V292.288ZM93.9118 290.56H97.2958V288.67H93.9118V286.366H91.5358V288.67H88.0798V290.56H91.5358V291.136C91.5358 293.656 90.2398 296.464 87.5218 297.688L88.7998 299.506C90.6898 298.66 92.0218 296.968 92.7598 294.97C93.4978 296.86 94.8118 298.444 96.6838 299.218L97.9438 297.4C95.2258 296.23 93.9118 293.53 93.9118 291.136V290.56ZM98.8258 285.97V302.548H101.202V285.97H98.8258ZM114.063 301.252C117.321 301.252 119.211 299.434 119.211 295.006V287.662H116.655V295.24C116.655 298.012 115.647 298.948 114.063 298.948C112.515 298.948 111.543 298.012 111.543 295.24V287.662H108.879V295.006C108.879 299.434 110.823 301.252 114.063 301.252ZM122.415 301H125.079V296.266H126.861C129.723 296.266 132.009 294.898 132.009 291.856C132.009 288.706 129.741 287.662 126.789 287.662H122.415V301ZM125.079 294.16V289.786H126.591C128.427 289.786 129.399 290.308 129.399 291.856C129.399 293.386 128.517 294.16 126.681 294.16H125.079Z" fill="#2A263C"/>
<path d="M206.456 134.534H208.58V141.554H206.456V134.534ZM204.242 143.408H210.776V132.662H204.242V143.408ZM215.744 130.952V137.288H214.358V131.222H212.144V146.792H214.358V139.196H215.744V147.53H217.994V130.952H215.744ZM221.593 137.594C224.689 137.432 226.777 136.676 227.803 135.452C228.847 136.676 230.935 137.432 234.013 137.594L234.679 135.848C231.349 135.704 229.729 134.912 229.261 133.976H233.869V132.266H228.991V130.952H226.615V132.266H221.773V133.976H226.345C225.895 134.912 224.275 135.704 220.945 135.848L221.593 137.594ZM235.291 139.754V138.008H220.369V139.754H226.633V140.744H222.043V142.454H231.151V143.246H222.061V147.422H233.923V145.712H224.419V144.848H233.491V140.744H229.009V139.754H235.291ZM246.945 146.252C250.203 146.252 252.093 144.434 252.093 140.006V132.662H249.537V140.24C249.537 143.012 248.529 143.948 246.945 143.948C245.397 143.948 244.425 143.012 244.425 140.24V132.662H241.761V140.006C241.761 144.434 243.705 146.252 246.945 146.252ZM255.298 146H257.962V141.266H259.744C262.606 141.266 264.892 139.898 264.892 136.856C264.892 133.706 262.624 132.662 259.672 132.662H255.298V146ZM257.962 139.16V134.786H259.474C261.31 134.786 262.282 135.308 262.282 136.856C262.282 138.386 261.4 139.16 259.564 139.16H257.962Z" fill="#2A263C"/>
<path d="M346.31 357.738H337.094V356.496H345.788V354.696H337.094V353.49H346.148V351.618H334.736V359.61H346.31V357.738ZM347.876 360.798H332.864V362.724H339.164V367.566H341.54V362.724H347.876V360.798ZM355.525 354.516H358.819V352.554H349.711V354.516H353.149V355.434C353.149 358.17 351.799 361.284 349.081 362.544L350.413 364.434C352.303 363.534 353.635 361.716 354.373 359.556C355.111 361.518 356.407 363.174 358.243 364.02L359.557 362.148C356.839 360.888 355.525 357.954 355.525 355.434V354.516ZM364.831 357.288H362.419V350.97H360.043V367.548H362.419V359.25H364.831V357.288ZM373.47 353.418C375.63 353.418 377.016 354.066 377.016 355.236C377.016 356.424 375.63 357.054 373.47 357.054C371.292 357.054 369.906 356.424 369.906 355.236C369.906 354.066 371.292 353.418 373.47 353.418ZM373.47 358.944C376.998 358.944 379.464 357.504 379.464 355.236C379.464 352.986 376.998 351.528 373.47 351.528C369.924 351.528 367.476 352.986 367.476 355.236C367.476 357.504 369.924 358.944 373.47 358.944ZM381.012 360.186H366V362.112H369.402V367.53H371.796V362.112H375.126V367.53H377.538V362.112H381.012V360.186ZM389.02 355.56H392.404V353.67H389.02V351.366H386.644V353.67H383.188V355.56H386.644V356.136C386.644 358.656 385.348 361.464 382.63 362.688L383.908 364.506C385.798 363.66 387.13 361.968 387.868 359.97C388.606 361.86 389.92 363.444 391.792 364.218L393.052 362.4C390.334 361.23 389.02 358.53 389.02 356.136V355.56ZM393.934 350.97V367.548H396.31V350.97H393.934ZM409.171 366.252C412.429 366.252 414.319 364.434 414.319 360.006V352.662H411.763V360.24C411.763 363.012 410.755 363.948 409.171 363.948C407.623 363.948 406.651 363.012 406.651 360.24V352.662H403.987V360.006C403.987 364.434 405.931 366.252 409.171 366.252ZM417.524 366H420.188V361.266H421.97C424.832 361.266 427.118 359.898 427.118 356.856C427.118 353.706 424.85 352.662 421.898 352.662H417.524V366ZM420.188 359.16V354.786H421.7C423.536 354.786 424.508 355.308 424.508 356.856C424.508 358.386 423.626 359.16 421.79 359.16H420.188Z" fill="#2A263C"/>
</svg>
